<?xml version="1.0" encoding="UTF-8" standalone="no"?>
<!DOCTYPE svg PUBLIC "-//W3C//DTD SVG 1.1//EN" "http://www.w3.org/Graphics/SVG/1.1/DTD/svg11.dtd">
<svg xmlns="http://www.w3.org/2000/svg" version="1.1" viewBox="0.00 0.00 558.00 447.00">
<g stroke-width="2.00" fill="none" stroke-linecap="butt">
<path stroke="#162a2e" vector-effect="non-scaling-stroke" d="
  M 386.27 35.87
  Q 384.70 31.73 384.01 23.51
  Q 383.80 21.12 380.99 13.67"
/>
<path stroke="#22322f" vector-effect="non-scaling-stroke" d="
  M 380.99 13.67
  Q 375.68 11.32 368.30 13.05
  C 349.77 17.39 332.86 27.17 315.13 39.22
  Q 314.47 39.66 314.55 38.87
  Q 314.64 38.02 315.54 37.49
  Q 318.23 35.94 321.32 34.16
  A 0.69 0.68 41.9 0 0 321.25 32.94
  C 300.17 23.55 278.45 20.29 255.47 23.47"
/>
<path stroke="#162a2e" vector-effect="non-scaling-stroke" d="
  M 255.47 23.47
  Q 248.52 23.75 241.45 25.52
  Q 240.78 25.68 241.17 26.26
  L 243.70 30.01
  Q 243.88 30.27 243.65 30.48
  Q 243.51 30.61 243.38 30.74
  Q 243.12 31.01 242.87 30.72
  C 235.50 21.95 226.74 15.83 216.49 10.17
  C 210.36 6.77 202.39 2.78 195.37 2.00"
/>
<path stroke="#22322f" vector-effect="non-scaling-stroke" d="
  M 195.37 2.00
  L 192.35 1.48
  A 0.89 0.88 -64.7 0 0 191.52 1.78
  Q 189.97 3.60 189.16 5.41
  Q 180.75 24.24 178.30 44.95
  C 177.49 51.77 177.48 59.81 177.23 67.24
  C 177.20 68.20 177.93 69.38 177.04 70.31
  A 0.59 0.58 -24.2 0 1 176.03 69.93
  L 175.97 68.09
  Q 175.94 67.18 175.35 67.88
  C 163.14 82.28 158.12 104.02 159.50 122.25
  Q 160.72 138.24 168.63 150.29
  C 170.59 153.27 173.63 156.39 176.10 159.39
  Q 176.30 159.63 176.02 159.75
  Q 175.90 159.80 175.75 159.78
  Q 175.56 159.75 175.34 159.55
  C 157.45 143.15 154.79 116.06 161.09 94.42
  Q 161.88 91.72 159.29 92.82
  Q 120.47 109.46 87.47 134.46
  C 61.51 154.14 38.89 177.21 27.05 208.00
  C 26.09 210.49 25.48 215.17 25.70 217.67
  C 26.35 224.90 31.62 228.66 37.94 232.28
  Q 38.39 232.53 38.89 232.42
  Q 45.59 230.86 51.09 234.66
  A 2.53 2.53 0.0 0 0 54.79 233.71
  C 56.47 230.33 64.19 226.50 67.12 231.28
  Q 67.39 231.74 67.90 231.60
  C 74.60 229.85 81.36 228.59 87.70 226.06
  C 100.39 220.97 112.79 215.30 125.42 210.06
  C 135.57 205.85 145.93 198.85 155.15 192.85
  Q 155.65 192.52 156.11 192.08
  Q 156.51 191.69 156.75 192.19
  Q 157.16 193.01 156.16 193.64
  C 133.09 208.19 111.70 218.23 83.00 228.99
  C 82.03 229.36 82.08 230.25 81.79 230.94
  C 77.17 241.89 72.58 253.06 69.81 264.64"
/>
<path stroke="#162a2e" vector-effect="non-scaling-stroke" d="
  M 69.81 264.64
  Q 64.65 279.96 61.22 296.03
  A 1.13 1.12 -81.4 0 0 62.22 297.39
  Q 70.67 298.15 78.92 300.17
  Q 79.51 300.31 79.79 299.78
  L 82.83 294.15"
/>
<path stroke="#22322f" vector-effect="non-scaling-stroke" d="
  M 82.83 294.15
  Q 87.44 286.79 93.11 283.31
  A 0.75 0.74 53.6 0 1 94.07 283.46
  L 96.74 286.64
  A 0.38 0.38 0.0 0 0 97.40 286.50
  C 111.65 236.79 150.88 200.46 195.38 177.01
  Q 195.88 176.74 195.46 176.36
  C 178.76 161.22 170.17 142.77 175.31 120.63
  C 180.30 99.11 197.10 84.97 216.41 76.27
  Q 216.88 76.06 217.37 76.22
  Q 222.54 77.94 227.24 80.72
  Q 244.20 90.78 260.04 101.16
  A 2.74 2.73 47.6 0 0 262.81 101.29
  C 275.55 94.56 289.89 87.28 304.08 84.69
  C 315.37 82.63 322.73 84.35 331.78 90.72
  Q 350.15 103.66 359.42 121.22"
/>
<path stroke="#162a2e" vector-effect="non-scaling-stroke" d="
  M 359.42 121.22
  C 368.36 140.31 368.31 158.64 352.30 173.82
  A 0.50 0.50 0.0 0 0 352.43 174.63
  Q 369.09 182.58 383.25 194.18"
/>
<path stroke="#22322f" vector-effect="non-scaling-stroke" d="
  M 383.25 194.18
  Q 402.63 211.44 414.96 229.05
  C 431.26 252.33 440.14 280.38 443.94 309.32
  A 0.58 0.58 0.0 0 0 445.01 309.56
  Q 451.40 299.55 458.88 290.42
  Q 460.45 288.51 462.13 290.32
  C 464.97 293.37 466.74 300.08 467.91 304.07"
/>
<path stroke="#162a2e" vector-effect="non-scaling-stroke" d="
  M 467.91 304.07
  L 469.61 309.64
  Q 469.78 310.19 470.36 310.21
  Q 479.97 310.56 488.78 314.30
  Q 489.03 314.41 489.17 314.64
  L 489.44 315.10
  A 0.61 0.60 56.8 0 0 490.31 315.29
  L 495.02 311.96
  A 0.74 0.74 0.0 0 0 495.33 311.36
  L 495.33 306.48"
/>
<path stroke="#162a2e" vector-effect="non-scaling-stroke" d="
  M 387.96 441.34
  Q 389.56 439.93 390.50 439.97
  Q 395.58 440.19 399.76 437.06
  Q 400.26 436.69 399.75 436.34
  C 391.55 430.65 385.24 424.40 381.54 415.22
  Q 381.32 414.68 380.83 414.99
  C 358.04 429.07 328.57 432.75 302.52 435.63
  C 292.21 436.77 281.92 436.58 271.61 436.52
  C 261.04 436.45 250.27 435.07 239.53 434.06
  Q 202.55 430.61 169.08 414.66
  Q 160.99 410.81 149.71 404.65
  Q 149.17 404.36 148.98 404.95
  Q 145.42 415.96 138.10 424.90
  A 0.55 0.55 0.0 0 0 138.27 425.73
  Q 141.75 427.55 145.50 428.75
  Q 167.59 435.80 191.08 439.75"
/>
<path stroke="#6e7876" vector-effect="non-scaling-stroke" d="
  M 26.26 227.45
  L 27.66 226.64
  Q 28.12 226.38 27.77 225.98
  Q 25.53 223.38 24.93 220.00
  A 0.38 0.38 0.0 0 0 24.19 219.97
  L 21.67 229.21
  A 0.45 0.45 0.0 0 0 22.29 229.73
  L 25.35 228.27"
/>
<path stroke="#67584d" vector-effect="non-scaling-stroke" d="
  M 20.20 228.90
  Q 21.45 227.93 21.37 224.83"
/>
<path stroke="#6e7876" vector-effect="non-scaling-stroke" d="
  M 22.07 218.20
  L 23.97 218.47
  Q 24.50 218.54 24.43 218.02
  Q 23.94 214.25 25.37 210.73
  A 0.40 0.40 0.0 0 0 24.66 210.37
  L 20.19 217.70"
/>
<path stroke="#67584d" vector-effect="non-scaling-stroke" d="
  M 200.51 178.29
  Q 209.29 185.56 218.59 189.41
  C 259.67 206.43 321.26 206.92 353.99 170.25
  Q 371.47 150.67 359.87 125.92"
/>
<path stroke="#79705d" vector-effect="non-scaling-stroke" d="
  M 359.87 125.92
  Q 354.44 112.32 342.01 100.49
  C 334.77 93.60 324.63 85.60 314.66 85.01
  C 297.53 84.00 276.84 95.42 261.66 103.14
  Q 261.20 103.38 260.77 103.10
  C 247.98 94.74 234.48 85.36 220.72 78.76
  C 216.28 76.64 215.42 77.94 210.99 80.37
  Q 201.06 85.83 193.32 92.82
  C 175.61 108.81 168.92 135.02 180.85 156.42
  Q 188.31 169.80 200.51 178.29"
/>
<path stroke="#dfc8a9" vector-effect="non-scaling-stroke" d="
  M 359.87 125.92
  Q 351.02 141.67 346.64 147.66
  C 318.93 185.57 264.98 201.77 220.83 185.40
  Q 208.07 180.67 200.51 178.29"
/>
<path stroke="#79705d" vector-effect="non-scaling-stroke" d="
  M 197.77 178.53
  C 196.94 178.20 196.33 178.09 195.47 178.51
  Q 151.56 200.24 122.24 239.43
  C 111.33 254.02 101.71 271.72 98.22 289.39
  Q 98.11 289.96 98.30 290.51
  Q 101.96 300.71 104.23 311.27
  A 1.00 0.98 -78.5 0 0 104.61 311.86
  Q 126.29 328.17 139.36 352.14"
/>
<path stroke="#67584d" vector-effect="non-scaling-stroke" d="
  M 139.36 352.14
  Q 152.92 375.23 149.44 402.26
  Q 149.35 402.99 149.99 403.37
  Q 177.41 419.46 208.32 427.61
  C 226.76 432.47 248.14 434.52 265.75 435.20
  C 296.83 436.40 329.80 433.15 361.43 422.56
  Q 371.27 419.27 380.09 414.06
  A 0.89 0.88 67.4 0 0 380.50 413.06
  C 375.51 394.12 378.62 377.56 387.00 360.26"
/>
<path stroke="#79705d" vector-effect="non-scaling-stroke" d="
  M 387.00 360.26
  C 399.45 337.71 415.99 322.16 441.09 314.96
  Q 441.56 314.82 441.84 314.43
  Q 443.36 312.32 443.21 311.00
  Q 442.56 304.91 438.95 288.26
  C 430.65 249.92 410.27 219.25 380.75 193.95"
/>
<path stroke="#67584d" vector-effect="non-scaling-stroke" d="
  M 380.75 193.95
  Q 367.79 182.97 351.69 175.77
  A 0.87 0.87 0.0 0 0 350.76 175.91
  C 334.61 190.13 317.17 196.93 296.31 200.59
  C 277.28 203.92 260.56 201.70 242.08 198.17
  C 235.98 197.01 228.57 194.69 223.21 192.67
  Q 209.46 187.49 197.77 178.53"
/>
<path stroke="#dfc8a9" vector-effect="non-scaling-stroke" d="
  M 380.75 193.95
  Q 351.07 212.78 317.25 216.96
  C 276.85 221.96 225.13 214.00 197.65 180.38
  Q 197.36 180.03 197.57 179.63
  Q 197.84 179.09 197.77 178.53"
/>
<path stroke="#dfc8a9" vector-effect="non-scaling-stroke" d="
  M 387.00 360.26
  Q 386.30 360.35 385.74 359.99
  Q 385.34 359.73 384.91 359.96
  Q 343.98 381.74 299.74 381.97
  Q 272.97 382.12 265.56 381.94
  Q 226.40 381.00 183.58 368.64
  Q 161.47 362.26 140.90 351.95
  Q 140.42 351.72 139.36 352.14"
/>
<path stroke="#6e7876" vector-effect="non-scaling-stroke" d="
  M 29.39 237.09
  A 0.30 0.30 0.0 0 0 29.83 237.35
  L 36.96 233.70
  A 0.30 0.30 0.0 0 0 37.00 233.19
  L 29.87 228.05
  A 0.30 0.30 0.0 0 0 29.39 228.29
  L 29.39 237.09"
/>
<path stroke="#6e7876" vector-effect="non-scaling-stroke" d="
  M 65.61 231.29
  C 63.13 228.57 57.89 231.39 55.97 233.51
  A 0.76 0.76 0.0 0 0 55.98 234.54
  L 63.63 242.60
  A 0.61 0.61 0.0 0 0 64.65 242.39
  C 65.53 239.98 67.57 233.44 65.61 231.29"
/>
<path stroke="#6e7876" vector-effect="non-scaling-stroke" d="
  M 49.46 235.00
  Q 45.28 232.13 40.15 233.12
  Q 39.75 233.20 39.73 233.60
  Q 39.54 238.87 40.16 244.13
  Q 40.57 247.63 42.82 244.92
  Q 46.51 240.47 49.59 235.63
  Q 49.83 235.26 49.46 235.00"
/>
<path stroke="#6e7876" vector-effect="non-scaling-stroke" d="
  M 79.60 306.52
  C 82.47 316.36 92.28 318.28 100.71 314.73
  Q 103.51 313.56 102.98 311.27
  Q 100.09 298.82 95.12 286.43
  A 2.08 2.07 -23.9 0 0 92.28 285.34
  C 87.87 287.49 78.18 301.65 79.60 306.52"
/>
<path stroke="#6e7876" vector-effect="non-scaling-stroke" d="
  M 52.31 296.44
  C 48.00 292.35 42.70 286.75 38.25 286.26
  Q 37.64 286.19 37.47 286.78
  C 36.09 291.47 32.71 313.49 38.48 315.63
  Q 49.47 319.70 57.38 310.83
  C 62.32 305.29 56.55 300.46 52.31 296.44"
/>
<path stroke="#6e7876" vector-effect="non-scaling-stroke" d="
  M 442.98 315.25
  C 445.28 324.34 454.62 325.79 462.29 323.09
  C 467.81 321.14 469.66 318.03 468.56 312.19
  Q 466.45 301.11 461.60 291.30
  A 1.08 1.07 51.2 0 0 459.80 291.10
  Q 450.84 302.20 443.14 314.22
  A 1.33 1.32 53.9 0 0 442.98 315.25"
/>
<path stroke="#67584d" vector-effect="non-scaling-stroke" d="
  M 28.60 400.63
  C 41.89 419.66 59.32 433.46 81.99 439.34
  Q 115.23 447.96 137.84 423.37
  Q 143.22 417.52 146.29 409.13
  C 155.23 384.70 143.14 356.00 127.58 336.73"
/>
<path stroke="#79705d" vector-effect="non-scaling-stroke" d="
  M 127.58 336.73
  Q 118.39 323.53 104.68 313.66
  Q 104.24 313.34 103.91 313.78
  C 101.12 317.50 94.14 317.73 90.02 317.25
  C 82.77 316.40 79.59 311.35 77.44 305.00
  Q 77.26 304.48 77.51 303.98
  L 78.11 302.76
  Q 78.88 301.19 77.16 300.86
  Q 67.65 299.02 57.95 298.43
  Q 56.11 298.31 57.40 299.63
  C 65.48 307.81 57.02 314.77 49.71 317.53
  C 44.92 319.34 40.34 318.34 36.00 315.91
  A 0.77 0.75 9.3 0 1 35.63 315.41
  L 34.22 308.44
  A 0.84 0.83 -24.1 0 0 32.90 307.94
  Q 24.88 313.92 18.07 321.28
  A 0.35 0.34 32.3 0 0 18.20 321.84
  C 20.53 322.76 24.58 323.71 25.72 325.97
  C 27.02 328.55 25.78 332.51 24.99 335.19
  C 23.26 341.01 18.26 343.52 12.30 342.92
  A 0.47 0.47 0.0 0 0 11.78 343.40
  C 12.53 364.05 16.25 383.39 28.60 400.63"
/>
<path stroke="#dfc8a9" vector-effect="non-scaling-stroke" d="
  M 127.58 336.73
  C 127.09 353.24 124.02 368.09 111.22 379.11"
/>
<path stroke="#79705d" vector-effect="non-scaling-stroke" d="
  M 111.22 379.11
  C 99.14 366.32 79.64 355.39 62.15 361.22
  C 43.15 367.55 41.71 386.34 49.39 402.01"
/>
<path stroke="#dfc8a9" vector-effect="non-scaling-stroke" d="
  M 49.39 402.01
  L 28.60 400.63"
/>
<path stroke="#67584d" vector-effect="non-scaling-stroke" d="
  M 49.39 402.01
  Q 59.77 422.55 82.51 428.44
  C 100.82 433.18 117.17 425.54 119.78 405.80
  Q 121.76 390.78 111.22 379.11"
/>
<path stroke="#6e7876" vector-effect="non-scaling-stroke" d="
  M 493.11 337.54
  C 502.02 341.52 505.02 338.71 506.83 329.72
  Q 508.38 321.98 509.65 314.18
  Q 510.12 311.26 509.27 309.34
  A 2.59 2.59 0.0 0 0 505.92 307.98
  Q 493.69 312.94 483.87 321.85
  Q 483.51 322.18 483.53 322.66
  C 483.87 329.23 487.05 334.83 493.11 337.54"
/>
<path stroke="#67584d" vector-effect="non-scaling-stroke" d="
  M 397.63 346.05
  C 384.28 363.80 375.74 385.39 380.41 406.88
  C 388.10 442.22 428.00 448.89 456.50 436.46
  Q 482.10 425.29 499.46 404.77"
/>
<path stroke="#79705d" vector-effect="non-scaling-stroke" d="
  M 499.46 404.77
  Q 508.62 393.74 513.65 378.46
  Q 514.06 377.21 514.02 376.29
  A 1.12 1.11 17.5 0 0 513.57 375.44
  C 508.69 371.76 506.53 367.08 506.68 360.83
  C 506.76 357.80 507.14 352.24 509.26 349.90
  C 510.88 348.11 514.29 348.37 516.48 348.53
  Q 517.58 348.62 517.30 347.54
  Q 514.67 337.50 508.90 328.83
  Q 508.50 328.22 508.32 328.93
  C 506.99 334.10 505.90 341.21 499.71 340.55
  Q 483.72 338.86 481.97 322.24
  Q 481.92 321.69 482.35 321.34
  L 488.54 316.40
  Q 489.12 315.94 488.45 315.62
  Q 479.88 311.50 470.31 311.66
  Q 469.89 311.67 469.93 312.09
  C 470.23 315.34 470.57 318.60 468.11 321.09
  C 464.99 324.26 461.22 324.93 456.69 325.42
  Q 446.27 326.55 441.93 316.51
  Q 441.71 316.01 441.20 316.17
  Q 413.60 324.72 397.63 346.05"
/>
<path stroke="#dfc8a9" vector-effect="non-scaling-stroke" d="
  M 499.46 404.77
  Q 490.90 402.03 481.47 403.37"
/>
<path stroke="#79705d" vector-effect="non-scaling-stroke" d="
  M 481.47 403.37
  Q 485.77 385.11 471.52 374.01
  C 456.24 362.10 436.11 368.04 422.43 379.74"
/>
<path stroke="#dfc8a9" vector-effect="non-scaling-stroke" d="
  M 422.43 379.74
  Q 406.37 366.52 397.63 346.05"
/>
<path stroke="#67584d" vector-effect="non-scaling-stroke" d="
  M 422.43 379.74
  C 412.56 388.53 401.94 404.67 407.99 418.19
  C 411.76 426.61 421.45 432.25 430.51 432.97
  C 451.15 434.63 473.83 423.09 481.47 403.37"
/>
<path stroke="#6e7876" vector-effect="non-scaling-stroke" d="
  M 23.31 325.19
  C 16.60 322.58 9.90 319.24 2.81 318.93
  A 1.36 1.36 0.0 0 0 1.40 320.43
  C 2.11 327.44 7.38 335.58 11.60 340.92
  Q 12.28 341.78 13.37 341.78
  C 19.60 341.82 23.35 338.52 24.33 332.66
  C 24.68 330.61 25.82 326.16 23.31 325.19"
/>
<path stroke="#6e7876" vector-effect="non-scaling-stroke" d="
  M 513.39 373.85
  A 1.91 1.90 53.4 0 0 515.66 374.19
  C 523.64 369.81 531.37 361.85 537.77 354.77
  A 1.12 1.11 -58.7 0 0 537.34 352.98
  C 530.42 350.37 522.40 349.96 511.63 350.06
  Q 511.14 350.07 510.77 350.39
  C 508.68 352.20 508.81 354.37 508.27 356.53
  Q 505.81 366.19 513.39 373.85"
/>
<path stroke="#375b5c" vector-effect="non-scaling-stroke" d="
  M 195.37 2.00
  C 199.14 8.34 207.35 13.01 212.94 17.89
  Q 212.96 17.91 212.93 17.92
  Q 212.76 17.95 212.66 18.01
  Q 212.46 18.12 212.64 18.27
  Q 213.11 18.68 213.73 18.75
  Q 214.20 18.80 214.57 19.11
  Q 223.99 26.98 233.54 34.73
  C 241.64 41.29 252.16 32.48 255.47 23.47"
/>
<path stroke="#375b5c" vector-effect="non-scaling-stroke" d="
  M 380.99 13.67
  C 380.82 16.39 379.99 18.44 380.08 20.80
  C 381.45 55.16 376.01 86.67 362.31 119.07
  C 361.67 120.59 360.93 120.86 359.42 121.22"
/>
<path stroke="#375b5c" vector-effect="non-scaling-stroke" d="
  M 82.83 294.15
  Q 77.92 283.46 73.76 273.20
  Q 73.59 272.76 72.72 269.10
  Q 72.07 266.39 69.81 264.64"
/>
<path stroke="#162a2e" vector-effect="non-scaling-stroke" d="
  M 385.87 60.28
  Q 383.78 70.27 381.97 79.82
  C 381.73 81.07 380.95 82.15 380.58 83.39
  A 0.64 0.64 0.0 0 0 381.73 83.92
  Q 383.22 81.57 382.99 78.84
  A 0.35 0.35 0.0 0 1 383.66 78.69
  C 388.80 91.89 391.03 106.39 391.40 120.19
  C 391.83 135.72 386.53 148.78 376.16 160.96
  A 0.27 0.27 0.0 0 0 376.43 161.40
  Q 377.02 161.24 377.58 160.56
  C 389.91 145.87 393.82 130.68 392.03 111.51
  Q 390.93 99.70 388.65 88.01
  Q 388.55 87.49 389.06 87.63
  Q 394.64 89.20 397.55 90.46
  Q 417.02 98.90 433.91 109.94"
/>
<path stroke="#375b5c" vector-effect="non-scaling-stroke" d="
  M 433.91 109.94
  C 427.74 143.22 413.39 171.59 385.34 191.36
  C 384.36 192.05 383.77 193.16 383.25 194.18"
/>
<path stroke="#67584d" vector-effect="non-scaling-stroke" d="
  M 553.23 236.15
  Q 554.91 238.95 557.04 240.22"
/>
<path stroke="#6e7876" vector-effect="non-scaling-stroke" d="
  M 556.20 241.64
  Q 555.48 240.49 553.23 241.28
  Q 552.79 241.43 552.86 241.89
  Q 552.99 242.80 553.96 242.76"
/>
<path stroke="#6e7876" vector-effect="non-scaling-stroke" d="
  M 555.45 247.10
  L 550.88 241.63
  Q 550.54 241.22 550.45 241.74
  L 549.32 248.05
  Q 549.24 248.46 549.67 248.43
  L 554.20 248.07"
/>
<path stroke="#6e7876" vector-effect="non-scaling-stroke" d="
  M 551.09 259.44
  Q 550.32 255.54 548.02 252.08
  Q 547.73 251.64 547.40 252.06
  L 544.07 256.44
  Q 543.76 256.85 544.22 257.06
  L 546.12 257.95"
/>
<path stroke="#162a2e" vector-effect="non-scaling-stroke" d="
  M 495.36 302.29
  C 493.82 288.31 492.53 273.09 487.60 259.92"
/>
<path stroke="#22322f" vector-effect="non-scaling-stroke" d="
  M 487.60 259.92
  L 486.80 255.61
  Q 486.69 255.04 486.16 254.82
  L 476.31 250.64"
/>
<path stroke="#162a2e" vector-effect="non-scaling-stroke" d="
  M 476.31 250.64
  Q 453.01 239.95 430.48 226.45"
/>
<path stroke="#22322f" vector-effect="non-scaling-stroke" d="
  M 430.48 226.45
  L 428.46 224.26"
/>
<path stroke="#162a2e" vector-effect="non-scaling-stroke" d="
  M 428.46 224.26
  Q 428.45 224.09 428.60 224.05
  Q 428.69 224.03 428.76 224.08
  C 445.55 234.73 463.26 244.16 481.70 251.60
  C 486.49 253.53 490.99 256.22 496.36 256.13"
/>
<path stroke="#22322f" vector-effect="non-scaling-stroke" d="
  M 496.36 256.13
  L 507.47 259.99
  Q 508.13 260.22 508.10 259.52
  Q 507.94 256.04 510.02 255.52
  Q 514.62 254.38 518.78 256.31
  A 1.46 1.46 0.0 0 1 519.57 258.02
  L 518.61 261.42
  Q 518.39 262.22 519.22 262.14
  L 528.08 261.24
  A 0.52 0.52 0.0 0 0 528.50 260.50
  L 528.18 259.83
  Q 527.95 259.35 528.24 258.91
  Q 531.26 254.40 536.90 255.15
  Q 537.43 255.22 537.77 255.63
  L 539.62 257.82
  A 0.63 0.63 0.0 0 0 540.47 257.92
  Q 548.84 251.91 549.06 241.71
  C 549.11 239.48 547.94 233.69 547.19 231.76
  Q 542.70 220.09 536.78 210.21
  C 513.69 171.63 480.02 140.99 443.08 115.67
  Q 439.06 112.91 433.91 109.94"
/>
<path stroke="#6e7876" vector-effect="non-scaling-stroke" d="
  M 553.91 240.00
  A 0.52 0.52 0.0 0 0 554.28 239.12
  L 549.79 234.53
  A 0.52 0.52 0.0 0 0 548.91 235.02
  L 549.98 239.60
  A 0.52 0.52 0.0 0 0 550.48 240.00
  L 553.91 240.00"
/>
<path stroke="#6e7876" vector-effect="non-scaling-stroke" d="
  M 518.39 257.29
  Q 514.30 255.20 510.03 256.55
  Q 509.37 256.75 509.39 257.44
  Q 509.55 263.87 512.19 269.66
  A 0.51 0.51 0.0 0 0 513.11 269.67
  L 518.70 258.23
  A 0.71 0.70 26.9 0 0 518.39 257.29"
/>
<path stroke="#6e7876" vector-effect="non-scaling-stroke" d="
  M 542.12 267.04
  Q 542.47 267.09 542.39 266.16
  C 542.19 263.74 538.50 258.44 536.99 256.41
  A 1.03 1.01 -16.4 0 0 536.24 256.01
  Q 532.01 255.73 529.45 258.99
  A 0.73 0.73 0.0 0 0 529.52 259.96
  Q 534.15 264.47 540.22 266.92"
/>
<path stroke="#79705d" vector-effect="non-scaling-stroke" d="
  M 238.45 147.88
  Q 227.05 146.52 215.97 145.18
  C 210.95 144.58 206.26 143.09 201.42 141.74
  C 199.05 141.07 196.71 139.46 194.24 138.82
  A 0.69 0.69 0.0 0 0 193.79 140.12
  Q 205.26 145.18 216.68 146.53
  C 224.16 147.41 230.98 148.85 238.21 149.08
  Q 238.52 149.09 238.72 148.94
  Q 239.14 148.64 238.89 148.18
  A 0.61 0.60 78.4 0 0 238.45 147.88"
/>
<path stroke="#79705d" vector-effect="non-scaling-stroke" d="
  M 311.33 149.77
  C 303.67 150.28 295.99 149.97 288.32 149.01
  A 0.39 0.39 0.0 0 0 288.06 149.73
  Q 288.20 149.81 288.77 149.89
  Q 305.84 152.23 322.72 149.46
  C 327.36 148.70 334.30 145.87 339.37 145.76
  Q 339.93 145.75 340.07 145.38
  A 0.68 0.68 0.0 0 0 339.28 144.47
  C 330.13 146.59 320.36 149.16 311.33 149.77"
/>
<path stroke="#79705d" vector-effect="non-scaling-stroke" d="
  M 293.23 178.04
  A 1.19 1.17 77.8 0 1 292.45 179.27
  C 278.97 183.94 263.24 184.82 249.18 181.61
  Q 243.45 180.30 237.78 178.80
  A 1.97 1.96 1.5 0 1 236.36 177.31
  L 234.65 169.04
  A 0.97 0.97 0.0 0 0 232.87 168.73
  Q 231.32 171.27 228.78 172.77
  A 1.23 1.23 0.0 0 0 228.68 174.82
  C 235.11 179.51 242.75 182.19 250.62 183.32
  C 264.46 185.30 287.51 186.43 299.72 176.78
  A 0.92 0.91 61.2 0 0 300.01 175.77
  Q 298.94 172.77 296.72 170.30
  Q 294.87 168.24 293.99 170.87
  Q 292.84 174.30 293.23 178.04"
/>
<path stroke="#375b5c" vector-effect="non-scaling-stroke" d="
  M 496.36 256.13
  Q 487.11 249.88 477.64 244.55
  C 459.52 234.33 442.43 221.89 425.03 210.36
  Q 423.18 209.12 423.42 211.34
  Q 424.13 217.91 428.46 224.26"
/>
<path stroke="#375b5c" vector-effect="non-scaling-stroke" d="
  M 430.48 226.45
  C 432.67 241.71 460.66 249.30 473.80 251.36
  Q 474.26 251.44 474.63 251.16
  Q 475.31 250.65 476.31 250.64"
/>
<path stroke="#375b5c" vector-effect="non-scaling-stroke" d="
  M 487.60 259.92
  Q 485.69 263.48 484.01 270.50
  Q 480.20 286.45 470.75 302.77
  A 1.21 1.18 4.5 0 1 470.10 303.31
  L 467.91 304.07"
/>
<path stroke="#22322f" vector-effect="non-scaling-stroke" d="
  M 423.7716 226.3344
  A 5.36 0.56 48.5 0 0 420.6394 221.9489
  A 5.36 0.56 48.5 0 0 416.6684 218.3056
  A 5.36 0.56 48.5 0 0 419.8006 222.6911
  A 5.36 0.56 48.5 0 0 423.7716 226.3344"
/>
<path stroke="#6e7876" vector-effect="non-scaling-stroke" d="
  M 233.61 171.67
  A 0.69 0.69 0.0 0 0 232.54 171.36
  L 230.16 173.20
  A 0.69 0.69 0.0 0 0 230.20 174.31
  L 234.16 176.98
  A 0.69 0.69 0.0 0 0 235.19 176.18
  L 233.61 171.67"
/>
<path stroke="#6e7876" vector-effect="non-scaling-stroke" d="
  M 295.07 171.45
  L 294.54 177.95
  Q 294.50 178.47 294.96 178.23
  L 298.32 176.43
  Q 298.89 176.12 298.55 175.58
  L 295.83 171.27
  A 0.41 0.41 0.0 0 0 295.07 171.45"
/>
<path stroke="#79705d" vector-effect="non-scaling-stroke" d="
  M 187.9226 215.6854
  A 0.55 0.55 0.0 0 0 187.1449 215.6758
  L 178.2989 224.3083
  A 0.55 0.55 0.0 0 0 178.2894 225.0860
  L 178.3174 225.1146
  A 0.55 0.55 0.0 0 0 179.0951 225.1242
  L 187.9411 216.4917
  A 0.55 0.55 0.0 0 0 187.9506 215.7140
  L 187.9226 215.6854"
/>
<path stroke="#79705d" vector-effect="non-scaling-stroke" d="
  M 195.7840 223.0971
  A 0.38 0.38 0.0 0 0 195.6631 222.5735
  L 195.1713 222.2661
  A 0.38 0.38 0.0 0 0 194.6476 222.3870
  L 191.0760 228.1029
  A 0.38 0.38 0.0 0 0 191.1969 228.6265
  L 191.6887 228.9339
  A 0.38 0.38 0.0 0 0 192.2124 228.8130
  L 195.7840 223.0971"
/>
<path stroke="#79705d" vector-effect="non-scaling-stroke" d="
  M 204.5185 233.0223
  A 2.45 0.59 114.9 0 0 206.0852 231.0484
  A 2.45 0.59 114.9 0 0 206.5815 228.5777
  A 2.45 0.59 114.9 0 0 205.0148 230.5516
  A 2.45 0.59 114.9 0 0 204.5185 233.0223"
/>
<path stroke="#79705d" vector-effect="non-scaling-stroke" d="
  M 212.2261 233.9047
  A 1.87 0.65 123.2 0 0 213.7939 232.6959
  A 1.87 0.65 123.2 0 0 214.2739 230.7753
  A 1.87 0.65 123.2 0 0 212.7061 231.9841
  A 1.87 0.65 123.2 0 0 212.2261 233.9047"
/>
<path stroke="#563b2c" vector-effect="non-scaling-stroke" d="
  M 50.99 402.42
  Q 64.64 426.76 91.01 428.49
  C 119.25 430.35 126.68 398.31 110.36 380.02"
/>
<path stroke="#614939" vector-effect="non-scaling-stroke" d="
  M 110.36 380.02
  C 100.25 369.28 87.70 361.69 72.75 361.06
  C 57.19 360.41 44.37 371.47 46.43 387.56
  Q 47.54 396.26 50.99 402.42"
/>
<path stroke="#b58463" vector-effect="non-scaling-stroke" d="
  M 110.36 380.02
  Q 100.00 388.97 87.98 393.70
  Q 71.08 400.35 50.99 402.42"
/>
<path stroke="#563b2c" vector-effect="non-scaling-stroke" d="
  M 424.50 379.69
  C 412.70 389.25 399.09 411.34 414.31 424.67
  Q 420.29 429.90 426.25 431.00
  C 447.32 434.88 472.04 424.29 480.06 403.24"
/>
<path stroke="#614939" vector-effect="non-scaling-stroke" d="
  M 480.06 403.24
  Q 484.31 388.68 474.83 378.41
  C 460.69 363.09 439.78 367.97 424.50 379.69"
/>
<path stroke="#b58463" vector-effect="non-scaling-stroke" d="
  M 480.06 403.24
  Q 475.20 401.81 470.38 400.64
  C 455.33 396.99 436.01 390.07 424.50 379.69"
/>
<path stroke="#162a2e" vector-effect="non-scaling-stroke" d="
  M 384.29 441.79
  Q 375.67 441.80 367.17 443.59"
/>
<path stroke="#162a2e" vector-effect="non-scaling-stroke" d="
  M 366.27 443.82
  L 357.49 444.43"
/>
<path stroke="#162a2e" vector-effect="non-scaling-stroke" d="
  M 227.02 444.51
  Q 219.24 442.33 211.11 442.05
  C 208.10 441.94 204.92 441.16 201.68 441.18
  C 197.89 441.20 195.07 439.66 191.02 440.36"
/>
</g>
<path fill="#010001" d="
  M 386.27 35.87
  Q 384.70 31.73 384.01 23.51
  Q 383.80 21.12 380.99 13.67
  Q 375.68 11.32 368.30 13.05
  C 349.77 17.39 332.86 27.17 315.13 39.22
  Q 314.47 39.66 314.55 38.87
  Q 314.64 38.02 315.54 37.49
  Q 318.23 35.94 321.32 34.16
  A 0.69 0.68 41.9 0 0 321.25 32.94
  C 300.17 23.55 278.45 20.29 255.47 23.47
  Q 248.52 23.75 241.45 25.52
  Q 240.78 25.68 241.17 26.26
  L 243.70 30.01
  Q 243.88 30.27 243.65 30.48
  Q 243.51 30.61 243.38 30.74
  Q 243.12 31.01 242.87 30.72
  C 235.50 21.95 226.74 15.83 216.49 10.17
  C 210.36 6.77 202.39 2.78 195.37 2.00
  L 192.35 1.48
  A 0.89 0.88 -64.7 0 0 191.52 1.78
  Q 189.97 3.60 189.16 5.41
  Q 180.75 24.24 178.30 44.95
  C 177.49 51.77 177.48 59.81 177.23 67.24
  C 177.20 68.20 177.93 69.38 177.04 70.31
  A 0.59 0.58 -24.2 0 1 176.03 69.93
  L 175.97 68.09
  Q 175.94 67.18 175.35 67.88
  C 163.14 82.28 158.12 104.02 159.50 122.25
  Q 160.72 138.24 168.63 150.29
  C 170.59 153.27 173.63 156.39 176.10 159.39
  Q 176.30 159.63 176.02 159.75
  Q 175.90 159.80 175.75 159.78
  Q 175.56 159.75 175.34 159.55
  C 157.45 143.15 154.79 116.06 161.09 94.42
  Q 161.88 91.72 159.29 92.82
  Q 120.47 109.46 87.47 134.46
  C 61.51 154.14 38.89 177.21 27.05 208.00
  C 26.09 210.49 25.48 215.17 25.70 217.67
  C 26.35 224.90 31.62 228.66 37.94 232.28
  Q 38.39 232.53 38.89 232.42
  Q 45.59 230.86 51.09 234.66
  A 2.53 2.53 0.0 0 0 54.79 233.71
  C 56.47 230.33 64.19 226.50 67.12 231.28
  Q 67.39 231.74 67.90 231.60
  C 74.60 229.85 81.36 228.59 87.70 226.06
  C 100.39 220.97 112.79 215.30 125.42 210.06
  C 135.57 205.85 145.93 198.85 155.15 192.85
  Q 155.65 192.52 156.11 192.08
  Q 156.51 191.69 156.75 192.19
  Q 157.16 193.01 156.16 193.64
  C 133.09 208.19 111.70 218.23 83.00 228.99
  C 82.03 229.36 82.08 230.25 81.79 230.94
  C 77.17 241.89 72.58 253.06 69.81 264.64
  Q 64.65 279.96 61.22 296.03
  A 1.13 1.12 -81.4 0 0 62.22 297.39
  Q 70.67 298.15 78.92 300.17
  Q 79.51 300.31 79.79 299.78
  L 82.83 294.15
  Q 87.44 286.79 93.11 283.31
  A 0.75 0.74 53.6 0 1 94.07 283.46
  L 96.74 286.64
  A 0.38 0.38 0.0 0 0 97.40 286.50
  C 111.65 236.79 150.88 200.46 195.38 177.01
  Q 195.88 176.74 195.46 176.36
  C 178.76 161.22 170.17 142.77 175.31 120.63
  C 180.30 99.11 197.10 84.97 216.41 76.27
  Q 216.88 76.06 217.37 76.22
  Q 222.54 77.94 227.24 80.72
  Q 244.20 90.78 260.04 101.16
  A 2.74 2.73 47.6 0 0 262.81 101.29
  C 275.55 94.56 289.89 87.28 304.08 84.69
  C 315.37 82.63 322.73 84.35 331.78 90.72
  Q 350.15 103.66 359.42 121.22
  C 368.36 140.31 368.31 158.64 352.30 173.82
  A 0.50 0.50 0.0 0 0 352.43 174.63
  Q 369.09 182.58 383.25 194.18
  Q 402.63 211.44 414.96 229.05
  C 431.26 252.33 440.14 280.38 443.94 309.32
  A 0.58 0.58 0.0 0 0 445.01 309.56
  Q 451.40 299.55 458.88 290.42
  Q 460.45 288.51 462.13 290.32
  C 464.97 293.37 466.74 300.08 467.91 304.07
  L 469.61 309.64
  Q 469.78 310.19 470.36 310.21
  Q 479.97 310.56 488.78 314.30
  Q 489.03 314.41 489.17 314.64
  L 489.44 315.10
  A 0.61 0.60 56.8 0 0 490.31 315.29
  L 495.02 311.96
  A 0.74 0.74 0.0 0 0 495.33 311.36
  L 495.33 306.48
  Q 495.77 307.87 495.46 309.16
  A 1.20 1.20 0.0 0 0 497.07 310.56
  C 499.63 309.53 506.22 305.54 508.76 306.42
  Q 509.20 306.57 509.42 306.98
  C 512.27 312.46 510.03 320.07 509.18 325.96
  A 1.65 1.64 -53.2 0 0 509.31 326.88
  Q 511.02 330.66 513.30 334.14
  C 514.85 336.52 515.51 338.93 516.65 341.47
  C 517.55 343.49 517.90 346.21 519.20 348.40
  Q 519.46 348.83 519.95 348.87
  Q 529.37 349.55 538.55 351.67
  A 1.54 1.54 0.0 0 1 539.48 354.04
  Q 538.62 355.29 537.29 356.79
  Q 527.62 367.73 515.56 375.91
  Q 515.16 376.19 515.08 376.67
  C 514.56 379.87 514.00 382.12 512.42 385.29
  C 511.41 387.32 510.80 389.63 509.73 391.52
  C 493.51 420.30 458.94 444.28 424.25 443.80
  Q 420.65 443.75 408.05 439.87
  C 404.61 438.80 402.68 435.65 398.65 439.13
  A 1.84 1.74 18.0 0 1 397.81 439.53
  L 387.96 441.34
  Q 389.56 439.93 390.50 439.97
  Q 395.58 440.19 399.76 437.06
  Q 400.26 436.69 399.75 436.34
  C 391.55 430.65 385.24 424.40 381.54 415.22
  Q 381.32 414.68 380.83 414.99
  C 358.04 429.07 328.57 432.75 302.52 435.63
  C 292.21 436.77 281.92 436.58 271.61 436.52
  C 261.04 436.45 250.27 435.07 239.53 434.06
  Q 202.55 430.61 169.08 414.66
  Q 160.99 410.81 149.71 404.65
  Q 149.17 404.36 148.98 404.95
  Q 145.42 415.96 138.10 424.90
  A 0.55 0.55 0.0 0 0 138.27 425.73
  Q 141.75 427.55 145.50 428.75
  Q 167.59 435.80 191.08 439.75
  Q 185.89 440.09 181.12 438.95
  C 167.99 435.82 155.13 432.97 141.71 428.47
  C 139.62 427.77 136.42 425.43 134.77 427.70
  Q 133.83 428.97 133.61 429.17
  C 106.43 453.35 67.93 441.84 43.84 419.84
  C 27.34 404.79 16.57 386.65 12.76 364.43
  Q 10.92 353.69 10.47 343.25
  Q 10.39 341.18 9.23 339.76
  Q 6.49 336.38 4.94 332.30
  C 4.58 331.36 3.51 330.91 3.07 329.66
  Q 1.70 325.85 0.00 322.14
  L 0.00 319.71
  Q 1.51 316.67 5.15 317.62
  Q 12.38 319.50 16.15 320.60
  Q 16.63 320.74 17.01 320.40
  C 22.58 315.42 26.20 311.32 33.55 306.13
  Q 33.96 305.84 33.96 305.34
  C 33.91 300.26 33.87 289.81 37.21 285.35
  A 0.79 0.79 0.0 0 1 38.06 285.07
  C 44.28 286.83 49.08 291.11 53.85 295.74
  C 56.30 298.12 59.47 298.43 60.38 294.60
  Q 66.34 269.65 74.57 245.36
  C 74.96 244.20 75.82 243.40 76.14 242.42
  Q 78.01 236.66 80.76 231.29
  A 1.18 1.18 0.0 0 0 79.39 229.61
  Q 75.35 230.72 71.06 231.82
  C 65.95 233.14 67.03 239.43 65.46 243.48
  A 1.67 1.66 -54.9 0 1 62.65 243.97
  Q 59.91 240.81 57.17 237.55
  C 51.65 230.99 48.09 240.77 45.40 243.77
  Q 43.49 245.90 41.95 246.96
  Q 39.36 248.75 39.12 245.60
  L 38.39 235.64
  A 1.30 1.30 0.0 0 0 36.49 234.59
  L 29.23 238.38
  A 0.63 0.63 0.0 0 1 28.32 237.93
  Q 27.56 233.90 28.05 229.86
  C 28.19 228.68 27.67 227.19 26.26 227.45
  L 27.66 226.64
  Q 28.12 226.38 27.77 225.98
  Q 25.53 223.38 24.93 220.00
  A 0.38 0.38 0.0 0 0 24.19 219.97
  L 21.67 229.21
  A 0.45 0.45 0.0 0 0 22.29 229.73
  L 25.35 228.27
  L 21.11 231.80
  Q 20.58 232.24 20.36 231.59
  Q 19.98 230.48 20.20 228.90
  Q 21.45 227.93 21.37 224.83
  Q 22.45 222.54 22.07 218.20
  L 23.97 218.47
  Q 24.50 218.54 24.43 218.02
  Q 23.94 214.25 25.37 210.73
  A 0.40 0.40 0.0 0 0 24.66 210.37
  L 20.19 217.70
  Q 19.37 217.90 20.01 219.02
  Q 20.31 219.54 19.72 219.51
  L 18.99 219.47
  A 0.69 0.69 0.0 0 1 18.37 219.02
  Q 17.97 217.95 18.71 217.38
  Q 19.15 217.05 19.38 216.54
  C 21.71 211.53 25.57 207.93 27.76 203.10
  C 38.37 179.76 54.67 159.65 74.80 143.11
  Q 103.43 119.58 136.31 102.43
  C 140.83 100.07 146.82 97.46 151.98 94.79
  C 154.87 93.29 159.10 92.42 162.24 89.95
  A 1.49 1.48 78.9 0 0 162.78 89.14
  Q 165.49 79.52 171.11 71.40
  C 172.57 69.29 175.77 66.88 175.99 63.57
  C 176.32 58.61 176.05 53.62 176.77 48.84
  Q 178.00 40.67 179.23 32.50
  Q 181.00 20.75 188.11 4.96
  C 188.79 3.44 190.12 2.48 190.81 0.89
  A 1.26 1.25 24.7 0 1 192.51 0.27
  C 194.92 1.43 197.57 1.10 199.79 1.74
  Q 206.84 3.78 214.26 7.78
  Q 227.93 15.15 238.63 24.16
  Q 239.01 24.48 239.51 24.44
  C 244.37 24.03 248.96 22.52 253.53 22.27
  Q 260.62 21.87 267.68 21.41
  Q 283.22 20.37 298.29 24.07
  C 303.12 25.25 311.99 27.60 317.98 30.61
  C 319.31 31.28 320.74 31.27 322.04 32.15
  A 1.33 1.29 -33.4 0 0 323.03 32.34
  C 325.36 31.90 327.10 29.96 328.56 29.12
  C 339.11 23.01 347.64 19.34 355.99 15.71
  C 361.23 13.42 375.68 8.85 381.41 12.19
  A 1.49 1.46 -86.1 0 1 382.06 12.95
  Q 386.34 23.92 386.27 35.87
  Z
  M 200.51 178.29
  Q 209.29 185.56 218.59 189.41
  C 259.67 206.43 321.26 206.92 353.99 170.25
  Q 371.47 150.67 359.87 125.92
  Q 354.44 112.32 342.01 100.49
  C 334.77 93.60 324.63 85.60 314.66 85.01
  C 297.53 84.00 276.84 95.42 261.66 103.14
  Q 261.20 103.38 260.77 103.10
  C 247.98 94.74 234.48 85.36 220.72 78.76
  C 216.28 76.64 215.42 77.94 210.99 80.37
  Q 201.06 85.83 193.32 92.82
  C 175.61 108.81 168.92 135.02 180.85 156.42
  Q 188.31 169.80 200.51 178.29
  Z
  M 197.77 178.53
  C 196.94 178.20 196.33 178.09 195.47 178.51
  Q 151.56 200.24 122.24 239.43
  C 111.33 254.02 101.71 271.72 98.22 289.39
  Q 98.11 289.96 98.30 290.51
  Q 101.96 300.71 104.23 311.27
  A 1.00 0.98 -78.5 0 0 104.61 311.86
  Q 126.29 328.17 139.36 352.14
  Q 152.92 375.23 149.44 402.26
  Q 149.35 402.99 149.99 403.37
  Q 177.41 419.46 208.32 427.61
  C 226.76 432.47 248.14 434.52 265.75 435.20
  C 296.83 436.40 329.80 433.15 361.43 422.56
  Q 371.27 419.27 380.09 414.06
  A 0.89 0.88 67.4 0 0 380.50 413.06
  C 375.51 394.12 378.62 377.56 387.00 360.26
  C 399.45 337.71 415.99 322.16 441.09 314.96
  Q 441.56 314.82 441.84 314.43
  Q 443.36 312.32 443.21 311.00
  Q 442.56 304.91 438.95 288.26
  C 430.65 249.92 410.27 219.25 380.75 193.95
  Q 367.79 182.97 351.69 175.77
  A 0.87 0.87 0.0 0 0 350.76 175.91
  C 334.61 190.13 317.17 196.93 296.31 200.59
  C 277.28 203.92 260.56 201.70 242.08 198.17
  C 235.98 197.01 228.57 194.69 223.21 192.67
  Q 209.46 187.49 197.77 178.53
  Z
  M 29.39 237.09
  A 0.30 0.30 0.0 0 0 29.83 237.35
  L 36.96 233.70
  A 0.30 0.30 0.0 0 0 37.00 233.19
  L 29.87 228.05
  A 0.30 0.30 0.0 0 0 29.39 228.29
  L 29.39 237.09
  Z
  M 65.61 231.29
  C 63.13 228.57 57.89 231.39 55.97 233.51
  A 0.76 0.76 0.0 0 0 55.98 234.54
  L 63.63 242.60
  A 0.61 0.61 0.0 0 0 64.65 242.39
  C 65.53 239.98 67.57 233.44 65.61 231.29
  Z
  M 49.46 235.00
  Q 45.28 232.13 40.15 233.12
  Q 39.75 233.20 39.73 233.60
  Q 39.54 238.87 40.16 244.13
  Q 40.57 247.63 42.82 244.92
  Q 46.51 240.47 49.59 235.63
  Q 49.83 235.26 49.46 235.00
  Z
  M 79.60 306.52
  C 82.47 316.36 92.28 318.28 100.71 314.73
  Q 103.51 313.56 102.98 311.27
  Q 100.09 298.82 95.12 286.43
  A 2.08 2.07 -23.9 0 0 92.28 285.34
  C 87.87 287.49 78.18 301.65 79.60 306.52
  Z
  M 52.31 296.44
  C 48.00 292.35 42.70 286.75 38.25 286.26
  Q 37.64 286.19 37.47 286.78
  C 36.09 291.47 32.71 313.49 38.48 315.63
  Q 49.47 319.70 57.38 310.83
  C 62.32 305.29 56.55 300.46 52.31 296.44
  Z
  M 442.98 315.25
  C 445.28 324.34 454.62 325.79 462.29 323.09
  C 467.81 321.14 469.66 318.03 468.56 312.19
  Q 466.45 301.11 461.60 291.30
  A 1.08 1.07 51.2 0 0 459.80 291.10
  Q 450.84 302.20 443.14 314.22
  A 1.33 1.32 53.9 0 0 442.98 315.25
  Z
  M 28.60 400.63
  C 41.89 419.66 59.32 433.46 81.99 439.34
  Q 115.23 447.96 137.84 423.37
  Q 143.22 417.52 146.29 409.13
  C 155.23 384.70 143.14 356.00 127.58 336.73
  Q 118.39 323.53 104.68 313.66
  Q 104.24 313.34 103.91 313.78
  C 101.12 317.50 94.14 317.73 90.02 317.25
  C 82.77 316.40 79.59 311.35 77.44 305.00
  Q 77.26 304.48 77.51 303.98
  L 78.11 302.76
  Q 78.88 301.19 77.16 300.86
  Q 67.65 299.02 57.95 298.43
  Q 56.11 298.31 57.40 299.63
  C 65.48 307.81 57.02 314.77 49.71 317.53
  C 44.92 319.34 40.34 318.34 36.00 315.91
  A 0.77 0.75 9.3 0 1 35.63 315.41
  L 34.22 308.44
  A 0.84 0.83 -24.1 0 0 32.90 307.94
  Q 24.88 313.92 18.07 321.28
  A 0.35 0.34 32.3 0 0 18.20 321.84
  C 20.53 322.76 24.58 323.71 25.72 325.97
  C 27.02 328.55 25.78 332.51 24.99 335.19
  C 23.26 341.01 18.26 343.52 12.30 342.92
  A 0.47 0.47 0.0 0 0 11.78 343.40
  C 12.53 364.05 16.25 383.39 28.60 400.63
  Z
  M 493.11 337.54
  C 502.02 341.52 505.02 338.71 506.83 329.72
  Q 508.38 321.98 509.65 314.18
  Q 510.12 311.26 509.27 309.34
  A 2.59 2.59 0.0 0 0 505.92 307.98
  Q 493.69 312.94 483.87 321.85
  Q 483.51 322.18 483.53 322.66
  C 483.87 329.23 487.05 334.83 493.11 337.54
  Z
  M 397.63 346.05
  C 384.28 363.80 375.74 385.39 380.41 406.88
  C 388.10 442.22 428.00 448.89 456.50 436.46
  Q 482.10 425.29 499.46 404.77
  Q 508.62 393.74 513.65 378.46
  Q 514.06 377.21 514.02 376.29
  A 1.12 1.11 17.5 0 0 513.57 375.44
  C 508.69 371.76 506.53 367.08 506.68 360.83
  C 506.76 357.80 507.14 352.24 509.26 349.90
  C 510.88 348.11 514.29 348.37 516.48 348.53
  Q 517.58 348.62 517.30 347.54
  Q 514.67 337.50 508.90 328.83
  Q 508.50 328.22 508.32 328.93
  C 506.99 334.10 505.90 341.21 499.71 340.55
  Q 483.72 338.86 481.97 322.24
  Q 481.92 321.69 482.35 321.34
  L 488.54 316.40
  Q 489.12 315.94 488.45 315.62
  Q 479.88 311.50 470.31 311.66
  Q 469.89 311.67 469.93 312.09
  C 470.23 315.34 470.57 318.60 468.11 321.09
  C 464.99 324.26 461.22 324.93 456.69 325.42
  Q 446.27 326.55 441.93 316.51
  Q 441.71 316.01 441.20 316.17
  Q 413.60 324.72 397.63 346.05
  Z
  M 23.31 325.19
  C 16.60 322.58 9.90 319.24 2.81 318.93
  A 1.36 1.36 0.0 0 0 1.40 320.43
  C 2.11 327.44 7.38 335.58 11.60 340.92
  Q 12.28 341.78 13.37 341.78
  C 19.60 341.82 23.35 338.52 24.33 332.66
  C 24.68 330.61 25.82 326.16 23.31 325.19
  Z
  M 513.39 373.85
  A 1.91 1.90 53.4 0 0 515.66 374.19
  C 523.64 369.81 531.37 361.85 537.77 354.77
  A 1.12 1.11 -58.7 0 0 537.34 352.98
  C 530.42 350.37 522.40 349.96 511.63 350.06
  Q 511.14 350.07 510.77 350.39
  C 508.68 352.20 508.81 354.37 508.27 356.53
  Q 505.81 366.19 513.39 373.85
  Z"
/>
<path fill="#42635c" d="
  M 195.37 2.00
  C 199.14 8.34 207.35 13.01 212.94 17.89
  Q 212.96 17.91 212.93 17.92
  Q 212.76 17.95 212.66 18.01
  Q 212.46 18.12 212.64 18.27
  Q 213.11 18.68 213.73 18.75
  Q 214.20 18.80 214.57 19.11
  Q 223.99 26.98 233.54 34.73
  C 241.64 41.29 252.16 32.48 255.47 23.47
  C 278.45 20.29 300.17 23.55 321.25 32.94
  A 0.69 0.68 41.9 0 1 321.32 34.16
  Q 318.23 35.94 315.54 37.49
  Q 314.64 38.02 314.55 38.87
  Q 314.47 39.66 315.13 39.22
  C 332.86 27.17 349.77 17.39 368.30 13.05
  Q 375.68 11.32 380.99 13.67
  C 380.82 16.39 379.99 18.44 380.08 20.80
  C 381.45 55.16 376.01 86.67 362.31 119.07
  C 361.67 120.59 360.93 120.86 359.42 121.22
  Q 350.15 103.66 331.78 90.72
  C 322.73 84.35 315.37 82.63 304.08 84.69
  C 289.89 87.28 275.55 94.56 262.81 101.29
  A 2.74 2.73 47.6 0 1 260.04 101.16
  Q 244.20 90.78 227.24 80.72
  Q 222.54 77.94 217.37 76.22
  Q 216.88 76.06 216.41 76.27
  C 197.10 84.97 180.30 99.11 175.31 120.63
  C 170.17 142.77 178.76 161.22 195.46 176.36
  Q 195.88 176.74 195.38 177.01
  C 150.88 200.46 111.65 236.79 97.40 286.50
  A 0.38 0.38 0.0 0 1 96.74 286.64
  L 94.07 283.46
  A 0.75 0.74 53.6 0 0 93.11 283.31
  Q 87.44 286.79 82.83 294.15
  Q 77.92 283.46 73.76 273.20
  Q 73.59 272.76 72.72 269.10
  Q 72.07 266.39 69.81 264.64
  C 72.58 253.06 77.17 241.89 81.79 230.94
  C 82.08 230.25 82.03 229.36 83.00 228.99
  C 111.70 218.23 133.09 208.19 156.16 193.64
  Q 157.16 193.01 156.75 192.19
  Q 156.51 191.69 156.11 192.08
  Q 155.65 192.52 155.15 192.85
  C 145.93 198.85 135.57 205.85 125.42 210.06
  C 112.79 215.30 100.39 220.97 87.70 226.06
  C 81.36 228.59 74.60 229.85 67.90 231.60
  Q 67.39 231.74 67.12 231.28
  C 64.19 226.50 56.47 230.33 54.79 233.71
  A 2.53 2.53 0.0 0 1 51.09 234.66
  Q 45.59 230.86 38.89 232.42
  Q 38.39 232.53 37.94 232.28
  C 31.62 228.66 26.35 224.90 25.70 217.67
  C 25.48 215.17 26.09 210.49 27.05 208.00
  C 38.89 177.21 61.51 154.14 87.47 134.46
  Q 120.47 109.46 159.29 92.82
  Q 161.88 91.72 161.09 94.42
  C 154.79 116.06 157.45 143.15 175.34 159.55
  Q 175.56 159.75 175.75 159.78
  Q 175.90 159.80 176.02 159.75
  Q 176.30 159.63 176.10 159.39
  C 173.63 156.39 170.59 153.27 168.63 150.29
  Q 160.72 138.24 159.50 122.25
  C 158.12 104.02 163.14 82.28 175.35 67.88
  Q 175.94 67.18 175.97 68.09
  L 176.03 69.93
  A 0.59 0.58 -24.2 0 0 177.04 70.31
  C 177.93 69.38 177.20 68.20 177.23 67.24
  C 177.48 59.81 177.49 51.77 178.30 44.95
  Q 180.75 24.24 189.16 5.41
  Q 189.97 3.60 191.52 1.78
  A 0.89 0.88 -64.7 0 1 192.35 1.48
  L 195.37 2.00
  Z"
/>
<path fill="#2b535b" d="
  M 195.37 2.00
  C 202.39 2.78 210.36 6.77 216.49 10.17
  C 226.74 15.83 235.50 21.95 242.87 30.72
  Q 243.12 31.01 243.38 30.74
  Q 243.51 30.61 243.65 30.48
  Q 243.88 30.27 243.70 30.01
  L 241.17 26.26
  Q 240.78 25.68 241.45 25.52
  Q 248.52 23.75 255.47 23.47
  C 252.16 32.48 241.64 41.29 233.54 34.73
  Q 223.99 26.98 214.57 19.11
  Q 214.20 18.80 213.73 18.75
  Q 213.11 18.68 212.64 18.27
  Q 212.46 18.12 212.66 18.01
  Q 212.76 17.95 212.93 17.92
  Q 212.96 17.91 212.94 17.89
  C 207.35 13.01 199.14 8.34 195.37 2.00
  Z"
/>
<path fill="#2b535b" d="
  M 380.99 13.67
  Q 383.80 21.12 384.01 23.51
  Q 384.70 31.73 386.27 35.87
  Q 387.13 48.45 385.87 60.28
  Q 383.78 70.27 381.97 79.82
  C 381.73 81.07 380.95 82.15 380.58 83.39
  A 0.64 0.64 0.0 0 0 381.73 83.92
  Q 383.22 81.57 382.99 78.84
  A 0.35 0.35 0.0 0 1 383.66 78.69
  C 388.80 91.89 391.03 106.39 391.40 120.19
  C 391.83 135.72 386.53 148.78 376.16 160.96
  A 0.27 0.27 0.0 0 0 376.43 161.40
  Q 377.02 161.24 377.58 160.56
  C 389.91 145.87 393.82 130.68 392.03 111.51
  Q 390.93 99.70 388.65 88.01
  Q 388.55 87.49 389.06 87.63
  Q 394.64 89.20 397.55 90.46
  Q 417.02 98.90 433.91 109.94
  C 427.74 143.22 413.39 171.59 385.34 191.36
  C 384.36 192.05 383.77 193.16 383.25 194.18
  Q 369.09 182.58 352.43 174.63
  A 0.50 0.50 0.0 0 1 352.30 173.82
  C 368.31 158.64 368.36 140.31 359.42 121.22
  C 360.93 120.86 361.67 120.59 362.31 119.07
  C 376.01 86.67 381.45 55.16 380.08 20.80
  C 379.99 18.44 380.82 16.39 380.99 13.67
  Z"
/>
<path fill="#010001" d="
  M 385.87 60.28
  Q 386.23 68.06 384.02 75.04
  A 0.41 0.37 47.9 0 0 384.02 75.31
  L 387.04 84.65
  A 1.55 1.54 -89.7 0 0 387.99 85.62
  C 418.01 96.41 446.81 115.24 471.40 135.33
  C 502.46 160.71 529.95 190.81 546.84 227.63
  C 547.89 229.92 547.28 232.78 551.11 233.33
  A 0.76 0.75 87.8 0 1 551.75 233.93
  Q 552.20 236.04 553.23 236.15
  Q 554.91 238.95 557.04 240.22
  Q 556.90 241.70 556.20 241.64
  Q 555.48 240.49 553.23 241.28
  Q 552.79 241.43 552.86 241.89
  Q 552.99 242.80 553.96 242.76
  Q 554.06 244.24 555.32 245.03
  A 1.45 1.44 -84.0 0 1 555.93 245.79
  Q 556.24 246.66 555.45 247.10
  L 550.88 241.63
  Q 550.54 241.22 550.45 241.74
  L 549.32 248.05
  Q 549.24 248.46 549.67 248.43
  L 554.20 248.07
  Q 554.57 248.29 554.73 248.55
  Q 554.99 248.98 554.49 249.02
  L 549.97 249.43
  A 0.72 0.70 -85.4 0 0 549.34 249.98
  Q 549.00 251.47 550.27 252.44
  A 0.88 0.86 -61.1 0 1 550.55 253.44
  Q 550.16 254.45 551.03 254.92
  Q 551.55 255.20 551.68 255.77
  L 552.83 260.96
  Q 553.05 261.94 552.06 261.77
  L 550.55 261.52
  Q 548.88 261.24 550.19 260.17
  L 551.09 259.44
  Q 550.32 255.54 548.02 252.08
  Q 547.73 251.64 547.40 252.06
  L 544.07 256.44
  Q 543.76 256.85 544.22 257.06
  L 546.12 257.95
  Q 544.02 258.76 542.41 258.37
  A 1.85 1.85 0.0 0 0 541.21 261.85
  Q 542.76 262.55 543.18 264.35
  Q 543.28 264.78 543.60 265.08
  Q 545.09 266.52 543.67 268.20
  A 1.42 1.42 0.0 0 1 542.22 268.66
  Q 535.77 266.96 530.64 262.64
  A 1.35 1.32 -26.1 0 0 529.74 262.34
  L 519.38 262.85
  A 2.50 2.47 -76.9 0 0 517.33 264.14
  L 514.02 270.17
  A 1.82 1.82 0.0 0 1 510.70 269.88
  L 508.28 262.78
  A 1.42 1.36 -82.1 0 0 507.81 262.13
  Q 505.97 260.76 503.75 260.21
  Q 496.76 258.49 490.02 255.97
  A 1.30 1.29 -89.1 0 0 488.34 257.60
  C 491.09 265.60 492.31 273.82 493.99 282.13
  C 494.68 285.52 494.67 288.80 495.27 292.24
  Q 496.14 297.29 495.36 302.29
  C 493.82 288.31 492.53 273.09 487.60 259.92
  L 486.80 255.61
  Q 486.69 255.04 486.16 254.82
  L 476.31 250.64
  Q 453.01 239.95 430.48 226.45
  L 428.46 224.26
  Q 428.45 224.09 428.60 224.05
  Q 428.69 224.03 428.76 224.08
  C 445.55 234.73 463.26 244.16 481.70 251.60
  C 486.49 253.53 490.99 256.22 496.36 256.13
  L 507.47 259.99
  Q 508.13 260.22 508.10 259.52
  Q 507.94 256.04 510.02 255.52
  Q 514.62 254.38 518.78 256.31
  A 1.46 1.46 0.0 0 1 519.57 258.02
  L 518.61 261.42
  Q 518.39 262.22 519.22 262.14
  L 528.08 261.24
  A 0.52 0.52 0.0 0 0 528.50 260.50
  L 528.18 259.83
  Q 527.95 259.35 528.24 258.91
  Q 531.26 254.40 536.90 255.15
  Q 537.43 255.22 537.77 255.63
  L 539.62 257.82
  A 0.63 0.63 0.0 0 0 540.47 257.92
  Q 548.84 251.91 549.06 241.71
  C 549.11 239.48 547.94 233.69 547.19 231.76
  Q 542.70 220.09 536.78 210.21
  C 513.69 171.63 480.02 140.99 443.08 115.67
  Q 439.06 112.91 433.91 109.94
  Q 417.02 98.90 397.55 90.46
  Q 394.64 89.20 389.06 87.63
  Q 388.55 87.49 388.65 88.01
  Q 390.93 99.70 392.03 111.51
  C 393.82 130.68 389.91 145.87 377.58 160.56
  Q 377.02 161.24 376.43 161.40
  A 0.27 0.27 0.0 0 1 376.16 160.96
  C 386.53 148.78 391.83 135.72 391.40 120.19
  C 391.03 106.39 388.80 91.89 383.66 78.69
  A 0.35 0.35 0.0 0 0 382.99 78.84
  Q 383.22 81.57 381.73 83.92
  A 0.64 0.64 0.0 0 1 380.58 83.39
  C 380.95 82.15 381.73 81.07 381.97 79.82
  Q 383.78 70.27 385.87 60.28
  Z
  M 553.91 240.00
  A 0.52 0.52 0.0 0 0 554.28 239.12
  L 549.79 234.53
  A 0.52 0.52 0.0 0 0 548.91 235.02
  L 549.98 239.60
  A 0.52 0.52 0.0 0 0 550.48 240.00
  L 553.91 240.00
  Z
  M 518.39 257.29
  Q 514.30 255.20 510.03 256.55
  Q 509.37 256.75 509.39 257.44
  Q 509.55 263.87 512.19 269.66
  A 0.51 0.51 0.0 0 0 513.11 269.67
  L 518.70 258.23
  A 0.71 0.70 26.9 0 0 518.39 257.29
  Z
  M 540.22 266.92
  Q 540.56 267.63 542.12 267.04
  Q 542.47 267.09 542.39 266.16
  C 542.19 263.74 538.50 258.44 536.99 256.41
  A 1.03 1.01 -16.4 0 0 536.24 256.01
  Q 532.01 255.73 529.45 258.99
  A 0.73 0.73 0.0 0 0 529.52 259.96
  Q 534.15 264.47 540.22 266.92
  Z"
/>
<path fill="#f1dfb9" d="
  M 359.87 125.92
  Q 351.02 141.67 346.64 147.66
  C 318.93 185.57 264.98 201.77 220.83 185.40
  Q 208.07 180.67 200.51 178.29
  Q 188.31 169.80 180.85 156.42
  C 168.92 135.02 175.61 108.81 193.32 92.82
  Q 201.06 85.83 210.99 80.37
  C 215.42 77.94 216.28 76.64 220.72 78.76
  C 234.48 85.36 247.98 94.74 260.77 103.10
  Q 261.20 103.38 261.66 103.14
  C 276.84 95.42 297.53 84.00 314.66 85.01
  C 324.63 85.60 334.77 93.60 342.01 100.49
  Q 354.44 112.32 359.87 125.92
  Z
  M 238.45 147.88
  Q 227.05 146.52 215.97 145.18
  C 210.95 144.58 206.26 143.09 201.42 141.74
  C 199.05 141.07 196.71 139.46 194.24 138.82
  A 0.69 0.69 0.0 0 0 193.79 140.12
  Q 205.26 145.18 216.68 146.53
  C 224.16 147.41 230.98 148.85 238.21 149.08
  Q 238.52 149.09 238.72 148.94
  Q 239.14 148.64 238.89 148.18
  A 0.61 0.60 78.4 0 0 238.45 147.88
  Z
  M 311.33 149.77
  C 303.67 150.28 295.99 149.97 288.32 149.01
  A 0.39 0.39 0.0 0 0 288.06 149.73
  Q 288.20 149.81 288.77 149.89
  Q 305.84 152.23 322.72 149.46
  C 327.36 148.70 334.30 145.87 339.37 145.76
  Q 339.93 145.75 340.07 145.38
  A 0.68 0.68 0.0 0 0 339.28 144.47
  C 330.13 146.59 320.36 149.16 311.33 149.77
  Z
  M 293.23 178.04
  A 1.19 1.17 77.8 0 1 292.45 179.27
  C 278.97 183.94 263.24 184.82 249.18 181.61
  Q 243.45 180.30 237.78 178.80
  A 1.97 1.96 1.5 0 1 236.36 177.31
  L 234.65 169.04
  A 0.97 0.97 0.0 0 0 232.87 168.73
  Q 231.32 171.27 228.78 172.77
  A 1.23 1.23 0.0 0 0 228.68 174.82
  C 235.11 179.51 242.75 182.19 250.62 183.32
  C 264.46 185.30 287.51 186.43 299.72 176.78
  A 0.92 0.91 61.2 0 0 300.01 175.77
  Q 298.94 172.77 296.72 170.30
  Q 294.87 168.24 293.99 170.87
  Q 292.84 174.30 293.23 178.04
  Z"
/>
<path fill="#42635c" d="
  M 433.91 109.94
  Q 439.06 112.91 443.08 115.67
  C 480.02 140.99 513.69 171.63 536.78 210.21
  Q 542.70 220.09 547.19 231.76
  C 547.94 233.69 549.11 239.48 549.06 241.71
  Q 548.84 251.91 540.47 257.92
  A 0.63 0.63 0.0 0 1 539.62 257.82
  L 537.77 255.63
  Q 537.43 255.22 536.90 255.15
  Q 531.26 254.40 528.24 258.91
  Q 527.95 259.35 528.18 259.83
  L 528.50 260.50
  A 0.52 0.52 0.0 0 1 528.08 261.24
  L 519.22 262.14
  Q 518.39 262.22 518.61 261.42
  L 519.57 258.02
  A 1.46 1.46 0.0 0 0 518.78 256.31
  Q 514.62 254.38 510.02 255.52
  Q 507.94 256.04 508.10 259.52
  Q 508.13 260.22 507.47 259.99
  L 496.36 256.13
  Q 487.11 249.88 477.64 244.55
  C 459.52 234.33 442.43 221.89 425.03 210.36
  Q 423.18 209.12 423.42 211.34
  Q 424.13 217.91 428.46 224.26
  L 430.48 226.45
  C 432.67 241.71 460.66 249.30 473.80 251.36
  Q 474.26 251.44 474.63 251.16
  Q 475.31 250.65 476.31 250.64
  L 486.16 254.82
  Q 486.69 255.04 486.80 255.61
  L 487.60 259.92
  Q 485.69 263.48 484.01 270.50
  Q 480.20 286.45 470.75 302.77
  A 1.21 1.18 4.5 0 1 470.10 303.31
  L 467.91 304.07
  C 466.74 300.08 464.97 293.37 462.13 290.32
  Q 460.45 288.51 458.88 290.42
  Q 451.40 299.55 445.01 309.56
  A 0.58 0.58 0.0 0 1 443.94 309.32
  C 440.14 280.38 431.26 252.33 414.96 229.05
  Q 402.63 211.44 383.25 194.18
  C 383.77 193.16 384.36 192.05 385.34 191.36
  C 413.39 171.59 427.74 143.22 433.91 109.94
  Z
  M 423.7716 226.3344
  A 5.36 0.56 48.5 0 0 420.6394 221.9489
  A 5.36 0.56 48.5 0 0 416.6684 218.3056
  A 5.36 0.56 48.5 0 0 419.8006 222.6911
  A 5.36 0.56 48.5 0 0 423.7716 226.3344
  Z"
/>
<path fill="#ccb098" d="
  M 359.87 125.92
  Q 371.47 150.67 353.99 170.25
  C 321.26 206.92 259.67 206.43 218.59 189.41
  Q 209.29 185.56 200.51 178.29
  Q 208.07 180.67 220.83 185.40
  C 264.98 201.77 318.93 185.57 346.64 147.66
  Q 351.02 141.67 359.87 125.92
  Z"
/>
<path fill="#010001" d="
  M 238.45 147.88
  A 0.61 0.60 78.4 0 1 238.89 148.18
  Q 239.14 148.64 238.72 148.94
  Q 238.52 149.09 238.21 149.08
  C 230.98 148.85 224.16 147.41 216.68 146.53
  Q 205.26 145.18 193.79 140.12
  A 0.69 0.69 0.0 0 1 194.24 138.82
  C 196.71 139.46 199.05 141.07 201.42 141.74
  C 206.26 143.09 210.95 144.58 215.97 145.18
  Q 227.05 146.52 238.45 147.88
  Z"
/>
<path fill="#010001" d="
  M 288.32 149.01
  C 295.99 149.97 303.67 150.28 311.33 149.77
  C 320.36 149.16 330.13 146.59 339.28 144.47
  A 0.68 0.68 0.0 0 1 340.07 145.38
  Q 339.93 145.75 339.37 145.76
  C 334.30 145.87 327.36 148.70 322.72 149.46
  Q 305.84 152.23 288.77 149.89
  Q 288.20 149.81 288.06 149.73
  A 0.39 0.39 0.0 0 1 288.32 149.01
  Z"
/>
<path fill="#010001" d="
  M 293.23 178.04
  Q 292.84 174.30 293.99 170.87
  Q 294.87 168.24 296.72 170.30
  Q 298.94 172.77 300.01 175.77
  A 0.92 0.91 61.2 0 1 299.72 176.78
  C 287.51 186.43 264.46 185.30 250.62 183.32
  C 242.75 182.19 235.11 179.51 228.68 174.82
  A 1.23 1.23 0.0 0 1 228.78 172.77
  Q 231.32 171.27 232.87 168.73
  A 0.97 0.97 0.0 0 1 234.65 169.04
  L 236.36 177.31
  A 1.97 1.96 1.5 0 0 237.78 178.80
  Q 243.45 180.30 249.18 181.61
  C 263.24 184.82 278.97 183.94 292.45 179.27
  A 1.19 1.17 77.8 0 0 293.23 178.04
  Z
  M 233.61 171.67
  A 0.69 0.69 0.0 0 0 232.54 171.36
  L 230.16 173.20
  A 0.69 0.69 0.0 0 0 230.20 174.31
  L 234.16 176.98
  A 0.69 0.69 0.0 0 0 235.19 176.18
  L 233.61 171.67
  Z
  M 295.07 171.45
  L 294.54 177.95
  Q 294.50 178.47 294.96 178.23
  L 298.32 176.43
  Q 298.89 176.12 298.55 175.58
  L 295.83 171.27
  A 0.41 0.41 0.0 0 0 295.07 171.45
  Z"
/>
<path fill="#dbf0eb" d="
  M 233.61 171.67
  L 235.19 176.18
  A 0.69 0.69 0.0 0 1 234.16 176.98
  L 230.20 174.31
  A 0.69 0.69 0.0 0 1 230.16 173.20
  L 232.54 171.36
  A 0.69 0.69 0.0 0 1 233.61 171.67
  Z"
/>
<path fill="#dbf0eb" d="
  M 295.07 171.45
  A 0.41 0.41 0.0 0 1 295.83 171.27
  L 298.55 175.58
  Q 298.89 176.12 298.32 176.43
  L 294.96 178.23
  Q 294.50 178.47 294.54 177.95
  L 295.07 171.45
  Z"
/>
<path fill="#ccb098" d="
  M 380.75 193.95
  Q 351.07 212.78 317.25 216.96
  C 276.85 221.96 225.13 214.00 197.65 180.38
  Q 197.36 180.03 197.57 179.63
  Q 197.84 179.09 197.77 178.53
  Q 209.46 187.49 223.21 192.67
  C 228.57 194.69 235.98 197.01 242.08 198.17
  C 260.56 201.70 277.28 203.92 296.31 200.59
  C 317.17 196.93 334.61 190.13 350.76 175.91
  A 0.87 0.87 0.0 0 1 351.69 175.77
  Q 367.79 182.97 380.75 193.95
  Z"
/>
<path fill="#f1dfb9" d="
  M 197.77 178.53
  Q 197.84 179.09 197.57 179.63
  Q 197.36 180.03 197.65 180.38
  C 225.13 214.00 276.85 221.96 317.25 216.96
  Q 351.07 212.78 380.75 193.95
  C 410.27 219.25 430.65 249.92 438.95 288.26
  Q 442.56 304.91 443.21 311.00
  Q 443.36 312.32 441.84 314.43
  Q 441.56 314.82 441.09 314.96
  C 415.99 322.16 399.45 337.71 387.00 360.26
  Q 386.30 360.35 385.74 359.99
  Q 385.34 359.73 384.91 359.96
  Q 343.98 381.74 299.74 381.97
  Q 272.97 382.12 265.56 381.94
  Q 226.40 381.00 183.58 368.64
  Q 161.47 362.26 140.90 351.95
  Q 140.42 351.72 139.36 352.14
  Q 126.29 328.17 104.61 311.86
  A 1.00 0.98 -78.5 0 1 104.23 311.27
  Q 101.96 300.71 98.30 290.51
  Q 98.11 289.96 98.22 289.39
  C 101.71 271.72 111.33 254.02 122.24 239.43
  Q 151.56 200.24 195.47 178.51
  C 196.33 178.09 196.94 178.20 197.77 178.53
  Z
  M 187.9226 215.6854
  A 0.55 0.55 0.0 0 0 187.1449 215.6758
  L 178.2989 224.3083
  A 0.55 0.55 0.0 0 0 178.2894 225.0860
  L 178.3174 225.1146
  A 0.55 0.55 0.0 0 0 179.0951 225.1242
  L 187.9411 216.4917
  A 0.55 0.55 0.0 0 0 187.9506 215.7140
  L 187.9226 215.6854
  Z
  M 195.7840 223.0971
  A 0.38 0.38 0.0 0 0 195.6631 222.5735
  L 195.1713 222.2661
  A 0.38 0.38 0.0 0 0 194.6476 222.3870
  L 191.0760 228.1029
  A 0.38 0.38 0.0 0 0 191.1969 228.6265
  L 191.6887 228.9339
  A 0.38 0.38 0.0 0 0 192.2124 228.8130
  L 195.7840 223.0971
  Z
  M 204.5185 233.0223
  A 2.45 0.59 114.9 0 0 206.0852 231.0484
  A 2.45 0.59 114.9 0 0 206.5815 228.5777
  A 2.45 0.59 114.9 0 0 205.0148 230.5516
  A 2.45 0.59 114.9 0 0 204.5185 233.0223
  Z
  M 212.2261 233.9047
  A 1.87 0.65 123.2 0 0 213.7939 232.6959
  A 1.87 0.65 123.2 0 0 214.2739 230.7753
  A 1.87 0.65 123.2 0 0 212.7061 231.9841
  A 1.87 0.65 123.2 0 0 212.2261 233.9047
  Z"
/>
<path fill="#2b535b" d="
  M 496.36 256.13
  C 490.99 256.22 486.49 253.53 481.70 251.60
  C 463.26 244.16 445.55 234.73 428.76 224.08
  Q 428.69 224.03 428.60 224.05
  Q 428.45 224.09 428.46 224.26
  Q 424.13 217.91 423.42 211.34
  Q 423.18 209.12 425.03 210.36
  C 442.43 221.89 459.52 234.33 477.64 244.55
  Q 487.11 249.88 496.36 256.13
  Z"
/>
<path fill="#dbf0eb" d="
  M 22.07 218.20
  Q 21.37 218.23 20.19 217.70
  L 24.66 210.37
  A 0.40 0.40 0.0 0 1 25.37 210.73
  Q 23.94 214.25 24.43 218.02
  Q 24.50 218.54 23.97 218.47
  L 22.07 218.20
  Z"
/>
<rect fill="#010001" x="-6.73" y="-0.57" transform="translate(183.12,220.40) rotate(-44.3)" width="13.46" height="1.14" rx="0.55"/>
<ellipse fill="#010001" cx="0.00" cy="0.00" transform="translate(420.22,222.32) rotate(48.5)" rx="5.36" ry="0.56"/>
<path fill="#dbf0eb" d="
  M 26.26 227.45
  Q 25.20 227.93 25.35 228.27
  L 22.29 229.73
  A 0.45 0.45 0.0 0 1 21.67 229.21
  L 24.19 219.97
  A 0.38 0.38 0.0 0 1 24.93 220.00
  Q 25.53 223.38 27.77 225.98
  Q 28.12 226.38 27.66 226.64
  L 26.26 227.45
  Z"
/>
<rect fill="#010001" x="-0.67" y="-3.75" transform="translate(193.43,225.60) rotate(32.0)" width="1.34" height="7.50" rx="0.38"/>
<path fill="#ccb098" d="
  M 21.37 224.83
  Q 21.45 227.93 20.20 228.90
  Q 19.49 226.84 21.37 224.83
  Z"
/>
<path fill="#2b535b" d="
  M 430.48 226.45
  Q 453.01 239.95 476.31 250.64
  Q 475.31 250.65 474.63 251.16
  Q 474.26 251.44 473.80 251.36
  C 460.66 249.30 432.67 241.71 430.48 226.45
  Z"
/>
<path fill="#dbf0eb" d="
  M 29.39 237.09
  L 29.39 228.29
  A 0.30 0.30 0.0 0 1 29.87 228.05
  L 37.00 233.19
  A 0.30 0.30 0.0 0 1 36.96 233.70
  L 29.83 237.35
  A 0.30 0.30 0.0 0 1 29.39 237.09
  Z"
/>
<ellipse fill="#010001" cx="0.00" cy="0.00" transform="translate(205.55,230.80) rotate(114.9)" rx="2.45" ry="0.59"/>
<path fill="#dbf0eb" d="
  M 65.61 231.29
  C 67.57 233.44 65.53 239.98 64.65 242.39
  A 0.61 0.61 0.0 0 1 63.63 242.60
  L 55.98 234.54
  A 0.76 0.76 0.0 0 1 55.97 233.51
  C 57.89 231.39 63.13 228.57 65.61 231.29
  Z"
/>
<ellipse fill="#010001" cx="0.00" cy="0.00" transform="translate(213.25,232.34) rotate(123.2)" rx="1.87" ry="0.65"/>
<path fill="#dbf0eb" d="
  M 49.46 235.00
  Q 49.83 235.26 49.59 235.63
  Q 46.51 240.47 42.82 244.92
  Q 40.57 247.63 40.16 244.13
  Q 39.54 238.87 39.73 233.60
  Q 39.75 233.20 40.15 233.12
  Q 45.28 232.13 49.46 235.00
  Z"
/>
<path fill="#dbf0eb" d="
  M 553.91 240.00
  L 550.48 240.00
  A 0.52 0.52 0.0 0 1 549.98 239.60
  L 548.91 235.02
  A 0.52 0.52 0.0 0 1 549.79 234.53
  L 554.28 239.12
  A 0.52 0.52 0.0 0 1 553.91 240.00
  Z"
/>
<path fill="#ccb098" d="
  M 553.23 236.15
  Q 556.19 237.32 557.04 240.22
  Q 554.91 238.95 553.23 236.15
  Z"
/>
<path fill="#dbf0eb" d="
  M 556.20 241.64
  Q 554.13 241.91 553.96 242.76
  Q 552.99 242.80 552.86 241.89
  Q 552.79 241.43 553.23 241.28
  Q 555.48 240.49 556.20 241.64
  Z"
/>
<path fill="#dbf0eb" d="
  M 555.45 247.10
  L 555.51 247.44
  Q 555.59 247.92 555.10 247.97
  L 554.20 248.07
  L 549.67 248.43
  Q 549.24 248.46 549.32 248.05
  L 550.45 241.74
  Q 550.54 241.22 550.88 241.63
  L 555.45 247.10
  Z"
/>
<path fill="#010001" d="
  M 556.06 248.77
  Q 555.93 248.73 555.84 248.63
  Q 555.75 248.54 555.85 248.45
  L 556.86 247.54
  Q 557.26 247.18 557.45 247.68
  Q 557.68 248.28 557.29 248.83
  Q 557.20 248.96 557.05 249.00
  Q 556.90 249.04 556.76 249.01
  A 1.53 0.10 22.7 0 1 556.06 248.77
  Z"
/>
<path fill="#dbf0eb" d="
  M 551.09 259.44
  Q 547.67 259.21 546.12 257.95
  L 544.22 257.06
  Q 543.76 256.85 544.07 256.44
  L 547.40 252.06
  Q 547.73 251.64 548.02 252.08
  Q 550.32 255.54 551.09 259.44
  Z"
/>
<path fill="#dbf0eb" d="
  M 518.39 257.29
  A 0.71 0.70 26.9 0 1 518.70 258.23
  L 513.11 269.67
  A 0.51 0.51 0.0 0 1 512.19 269.66
  Q 509.55 263.87 509.39 257.44
  Q 509.37 256.75 510.03 256.55
  Q 514.30 255.20 518.39 257.29
  Z"
/>
<path fill="#dbf0eb" d="
  M 542.12 267.04
  Q 541.21 266.08 540.22 266.92
  Q 534.15 264.47 529.52 259.96
  A 0.73 0.73 0.0 0 1 529.45 258.99
  Q 532.01 255.73 536.24 256.01
  A 1.03 1.01 -16.4 0 1 536.99 256.41
  C 538.50 258.44 542.19 263.74 542.39 266.16
  Q 542.47 267.09 542.12 267.04
  Z"
/>
<path fill="#2b535b" d="
  M 487.60 259.92
  C 492.53 273.09 493.82 288.31 495.36 302.29
  L 495.33 306.48
  L 495.33 311.36
  A 0.74 0.74 0.0 0 1 495.02 311.96
  L 490.31 315.29
  A 0.61 0.60 56.8 0 1 489.44 315.10
  L 489.17 314.64
  Q 489.03 314.41 488.78 314.30
  Q 479.97 310.56 470.36 310.21
  Q 469.78 310.19 469.61 309.64
  L 467.91 304.07
  L 470.10 303.31
  A 1.21 1.18 4.5 0 0 470.75 302.77
  Q 480.20 286.45 484.01 270.50
  Q 485.69 263.48 487.60 259.92
  Z"
/>
<path fill="#2b535b" d="
  M 69.81 264.64
  Q 72.07 266.39 72.72 269.10
  Q 73.59 272.76 73.76 273.20
  Q 77.92 283.46 82.83 294.15
  L 79.79 299.78
  Q 79.51 300.31 78.92 300.17
  Q 70.67 298.15 62.22 297.39
  A 1.13 1.12 -81.4 0 1 61.22 296.03
  Q 64.65 279.96 69.81 264.64
  Z"
/>
<path fill="#dbf0eb" d="
  M 100.71 314.73
  C 92.28 318.28 82.47 316.36 79.60 306.52
  C 78.18 301.65 87.87 287.49 92.28 285.34
  A 2.08 2.07 -23.9 0 1 95.12 286.43
  Q 100.09 298.82 102.98 311.27
  Q 103.51 313.56 100.71 314.73
  Z"
/>
<path fill="#dbf0eb" d="
  M 52.31 296.44
  C 56.55 300.46 62.32 305.29 57.38 310.83
  Q 49.47 319.70 38.48 315.63
  C 32.71 313.49 36.09 291.47 37.47 286.78
  Q 37.64 286.19 38.25 286.26
  C 42.70 286.75 48.00 292.35 52.31 296.44
  Z"
/>
<path fill="#dbf0eb" d="
  M 462.29 323.09
  C 454.62 325.79 445.28 324.34 442.98 315.25
  A 1.33 1.32 53.9 0 1 443.14 314.22
  Q 450.84 302.20 459.80 291.10
  A 1.08 1.07 51.2 0 1 461.60 291.30
  Q 466.45 301.11 468.56 312.19
  C 469.66 318.03 467.81 321.14 462.29 323.09
  Z"
/>
<path fill="#f1dfb9" d="
  M 127.58 336.73
  C 127.09 353.24 124.02 368.09 111.22 379.11
  C 99.14 366.32 79.64 355.39 62.15 361.22
  C 43.15 367.55 41.71 386.34 49.39 402.01
  L 28.60 400.63
  C 16.25 383.39 12.53 364.05 11.78 343.40
  A 0.47 0.47 0.0 0 1 12.30 342.92
  C 18.26 343.52 23.26 341.01 24.99 335.19
  C 25.78 332.51 27.02 328.55 25.72 325.97
  C 24.58 323.71 20.53 322.76 18.20 321.84
  A 0.35 0.34 32.3 0 1 18.07 321.28
  Q 24.88 313.92 32.90 307.94
  A 0.84 0.83 -24.1 0 1 34.22 308.44
  L 35.63 315.41
  A 0.77 0.75 9.3 0 0 36.00 315.91
  C 40.34 318.34 44.92 319.34 49.71 317.53
  C 57.02 314.77 65.48 307.81 57.40 299.63
  Q 56.11 298.31 57.95 298.43
  Q 67.65 299.02 77.16 300.86
  Q 78.88 301.19 78.11 302.76
  L 77.51 303.98
  Q 77.26 304.48 77.44 305.00
  C 79.59 311.35 82.77 316.40 90.02 317.25
  C 94.14 317.73 101.12 317.50 103.91 313.78
  Q 104.24 313.34 104.68 313.66
  Q 118.39 323.53 127.58 336.73
  Z"
/>
<path fill="#dbf0eb" d="
  M 493.11 337.54
  C 487.05 334.83 483.87 329.23 483.53 322.66
  Q 483.51 322.18 483.87 321.85
  Q 493.69 312.94 505.92 307.98
  A 2.59 2.59 0.0 0 1 509.27 309.34
  Q 510.12 311.26 509.65 314.18
  Q 508.38 321.98 506.83 329.72
  C 505.02 338.71 502.02 341.52 493.11 337.54
  Z"
/>
<path fill="#f1dfb9" d="
  M 499.46 404.77
  Q 490.90 402.03 481.47 403.37
  Q 485.77 385.11 471.52 374.01
  C 456.24 362.10 436.11 368.04 422.43 379.74
  Q 406.37 366.52 397.63 346.05
  Q 413.60 324.72 441.20 316.17
  Q 441.71 316.01 441.93 316.51
  Q 446.27 326.55 456.69 325.42
  C 461.22 324.93 464.99 324.26 468.11 321.09
  C 470.57 318.60 470.23 315.34 469.93 312.09
  Q 469.89 311.67 470.31 311.66
  Q 479.88 311.50 488.45 315.62
  Q 489.12 315.94 488.54 316.40
  L 482.35 321.34
  Q 481.92 321.69 481.97 322.24
  Q 483.72 338.86 499.71 340.55
  C 505.90 341.21 506.99 334.10 508.32 328.93
  Q 508.50 328.22 508.90 328.83
  Q 514.67 337.50 517.30 347.54
  Q 517.58 348.62 516.48 348.53
  C 514.29 348.37 510.88 348.11 509.26 349.90
  C 507.14 352.24 506.76 357.80 506.68 360.83
  C 506.53 367.08 508.69 371.76 513.57 375.44
  A 1.12 1.11 17.5 0 1 514.02 376.29
  Q 514.06 377.21 513.65 378.46
  Q 508.62 393.74 499.46 404.77
  Z"
/>
<path fill="#dbf0eb" d="
  M 23.31 325.19
  C 25.82 326.16 24.68 330.61 24.33 332.66
  C 23.35 338.52 19.60 341.82 13.37 341.78
  Q 12.28 341.78 11.60 340.92
  C 7.38 335.58 2.11 327.44 1.40 320.43
  A 1.36 1.36 0.0 0 1 2.81 318.93
  C 9.90 319.24 16.60 322.58 23.31 325.19
  Z"
/>
<path fill="#ccb098" d="
  M 127.58 336.73
  C 143.14 356.00 155.23 384.70 146.29 409.13
  Q 143.22 417.52 137.84 423.37
  Q 115.23 447.96 81.99 439.34
  C 59.32 433.46 41.89 419.66 28.60 400.63
  L 49.39 402.01
  Q 59.77 422.55 82.51 428.44
  C 100.82 433.18 117.17 425.54 119.78 405.80
  Q 121.76 390.78 111.22 379.11
  C 124.02 368.09 127.09 353.24 127.58 336.73
  Z"
/>
<path fill="#ccb098" d="
  M 397.63 346.05
  Q 406.37 366.52 422.43 379.74
  C 412.56 388.53 401.94 404.67 407.99 418.19
  C 411.76 426.61 421.45 432.25 430.51 432.97
  C 451.15 434.63 473.83 423.09 481.47 403.37
  Q 490.90 402.03 499.46 404.77
  Q 482.10 425.29 456.50 436.46
  C 428.00 448.89 388.10 442.22 380.41 406.88
  C 375.74 385.39 384.28 363.80 397.63 346.05
  Z"
/>
<path fill="#dbf0eb" d="
  M 513.39 373.85
  Q 505.81 366.19 508.27 356.53
  C 508.81 354.37 508.68 352.20 510.77 350.39
  Q 511.14 350.07 511.63 350.06
  C 522.40 349.96 530.42 350.37 537.34 352.98
  A 1.12 1.11 -58.7 0 1 537.77 354.77
  C 531.37 361.85 523.64 369.81 515.66 374.19
  A 1.91 1.90 53.4 0 1 513.39 373.85
  Z"
/>
<path fill="#ccb098" d="
  M 387.00 360.26
  C 378.62 377.56 375.51 394.12 380.50 413.06
  A 0.89 0.88 67.4 0 1 380.09 414.06
  Q 371.27 419.27 361.43 422.56
  C 329.80 433.15 296.83 436.40 265.75 435.20
  C 248.14 434.52 226.76 432.47 208.32 427.61
  Q 177.41 419.46 149.99 403.37
  Q 149.35 402.99 149.44 402.26
  Q 152.92 375.23 139.36 352.14
  Q 140.42 351.72 140.90 351.95
  Q 161.47 362.26 183.58 368.64
  Q 226.40 381.00 265.56 381.94
  Q 272.97 382.12 299.74 381.97
  Q 343.98 381.74 384.91 359.96
  Q 385.34 359.73 385.74 359.99
  Q 386.30 360.35 387.00 360.26
  Z"
/>
<path fill="#010001" d="
  M 111.22 379.11
  Q 121.76 390.78 119.78 405.80
  C 117.17 425.54 100.82 433.18 82.51 428.44
  Q 59.77 422.55 49.39 402.01
  C 41.71 386.34 43.15 367.55 62.15 361.22
  C 79.64 355.39 99.14 366.32 111.22 379.11
  Z
  M 50.99 402.42
  Q 64.64 426.76 91.01 428.49
  C 119.25 430.35 126.68 398.31 110.36 380.02
  C 100.25 369.28 87.70 361.69 72.75 361.06
  C 57.19 360.41 44.37 371.47 46.43 387.56
  Q 47.54 396.26 50.99 402.42
  Z"
/>
<path fill="#c09270" d="
  M 110.36 380.02
  Q 100.00 388.97 87.98 393.70
  Q 71.08 400.35 50.99 402.42
  Q 47.54 396.26 46.43 387.56
  C 44.37 371.47 57.19 360.41 72.75 361.06
  C 87.70 361.69 100.25 369.28 110.36 380.02
  Z"
/>
<path fill="#010001" d="
  M 481.47 403.37
  C 473.83 423.09 451.15 434.63 430.51 432.97
  C 421.45 432.25 411.76 426.61 407.99 418.19
  C 401.94 404.67 412.56 388.53 422.43 379.74
  C 436.11 368.04 456.24 362.10 471.52 374.01
  Q 485.77 385.11 481.47 403.37
  Z
  M 424.50 379.69
  C 412.70 389.25 399.09 411.34 414.31 424.67
  Q 420.29 429.90 426.25 431.00
  C 447.32 434.88 472.04 424.29 480.06 403.24
  Q 484.31 388.68 474.83 378.41
  C 460.69 363.09 439.78 367.97 424.50 379.69
  Z"
/>
<path fill="#c09270" d="
  M 480.06 403.24
  Q 475.20 401.81 470.38 400.64
  C 455.33 396.99 436.01 390.07 424.50 379.69
  C 439.78 367.97 460.69 363.09 474.83 378.41
  Q 484.31 388.68 480.06 403.24
  Z"
/>
<path fill="#aa7556" d="
  M 424.50 379.69
  C 436.01 390.07 455.33 396.99 470.38 400.64
  Q 475.20 401.81 480.06 403.24
  C 472.04 424.29 447.32 434.88 426.25 431.00
  Q 420.29 429.90 414.31 424.67
  C 399.09 411.34 412.70 389.25 424.50 379.69
  Z"
/>
<path fill="#aa7556" d="
  M 110.36 380.02
  C 126.68 398.31 119.25 430.35 91.01 428.49
  Q 64.64 426.76 50.99 402.42
  Q 71.08 400.35 87.98 393.70
  Q 100.00 388.97 110.36 380.02
  Z"
/>
<path fill="#2b535b" d="
  M 387.96 441.34
  L 384.29 441.79
  Q 375.67 441.80 367.17 443.59
  Q 366.96 443.79 366.27 443.82
  L 357.49 444.43
  Q 343.85 444.75 330.19 445.38
  Q 312.05 446.23 242.01 445.49
  C 237.28 445.44 232.07 444.64 227.02 444.51
  Q 219.24 442.33 211.11 442.05
  C 208.10 441.94 204.92 441.16 201.68 441.18
  C 197.89 441.20 195.07 439.66 191.02 440.36
  Q 191.05 440.05 191.08 439.75
  Q 167.59 435.80 145.50 428.75
  Q 141.75 427.55 138.27 425.73
  A 0.55 0.55 0.0 0 1 138.10 424.90
  Q 145.42 415.96 148.98 404.95
  Q 149.17 404.36 149.71 404.65
  Q 160.99 410.81 169.08 414.66
  Q 202.55 430.61 239.53 434.06
  C 250.27 435.07 261.04 436.45 271.61 436.52
  C 281.92 436.58 292.21 436.77 302.52 435.63
  C 328.57 432.75 358.04 429.07 380.83 414.99
  Q 381.32 414.68 381.54 415.22
  C 385.24 424.40 391.55 430.65 399.75 436.34
  Q 400.26 436.69 399.76 437.06
  Q 395.58 440.19 390.50 439.97
  Q 389.56 439.93 387.96 441.34
  Z"
/>
<path fill="#010001" d="
  M 227.02 444.51
  Q 219.04 443.78 211.12 443.16
  C 207.93 442.90 204.46 441.84 201.01 441.59
  C 197.03 441.30 194.39 440.90 191.02 440.36
  C 195.07 439.66 197.89 441.20 201.68 441.18
  C 204.92 441.16 208.10 441.94 211.11 442.05
  Q 219.24 442.33 227.02 444.51
  Z"
/>
<path fill="#010001" d="
  M 384.29 441.79
  Q 379.25 443.51 373.94 443.35
  C 371.68 443.28 369.50 443.80 367.17 443.59
  Q 375.67 441.80 384.29 441.79
  Z"
/>
<path fill="#010001" d="
  M 366.27 443.82
  L 357.49 444.43
  L 366.27 443.82
  Z"
/>
</svg>
