<?xml version="1.0" encoding="UTF-8" standalone="no"?>
<!DOCTYPE svg PUBLIC "-//W3C//DTD SVG 1.1//EN" "http://www.w3.org/Graphics/SVG/1.1/DTD/svg11.dtd">
<svg xmlns="http://www.w3.org/2000/svg" version="1.1" viewBox="0.00 0.00 360.00 360.00">
<g stroke-width="2.00" fill="none" stroke-linecap="butt">
<path stroke="#bababa" vector-effect="non-scaling-stroke" d="
  M 317.51 218.78
  Q 317.75 216.18 318.58 214.17
  Q 318.79 213.66 318.68 213.33
  Q 318.52 212.82 318.03 212.65"
/>
<path stroke="#eaeaea" vector-effect="non-scaling-stroke" d="
  M 318.03 212.65
  Q 319.69 204.66 315.25 198.23
  C 306.23 185.14 293.26 174.73 280.62 164.20
  C 272.14 157.13 264.93 149.91 262.79 138.73
  C 260.14 124.96 256.93 112.22 254.39 102.82
  C 249.87 86.07 242.24 71.00 228.80 60.49
  C 194.39 33.60 145.59 39.44 119.31 74.30
  Q 112.67 83.11 107.38 94.68
  C 103.30 103.60 101.78 112.92 100.83 122.60
  C 100.38 127.14 100.70 134.25 99.64 139.18
  C 96.88 152.03 84.65 161.47 74.94 169.68
  C 68.11 175.46 61.23 181.04 55.09 187.80
  C 48.27 195.30 38.32 206.03 45.56 216.60"
/>
<path stroke="#bababa" vector-effect="non-scaling-stroke" d="
  M 45.56 216.60
  Q 44.43 216.95 44.76 217.88
  Q 44.92 218.30 45.58 218.81
  Q 47.55 220.30 46.59 221.14"
/>
<path stroke="#bababa" vector-effect="non-scaling-stroke" d="
  M 97.89 259.03
  Q 96.52 257.52 96.90 257.37"
/>
<path stroke="#d0d0d0" vector-effect="non-scaling-stroke" d="
  M 318.03 212.65
  C 315.30 219.85 307.99 221.24 301.30 219.89
  Q 298.69 219.36 295.34 216.99
  Q 287.57 211.50 279.18 207.07
  Q 278.66 206.79 278.63 207.38
  L 278.48 210.25"
/>
<path stroke="#d8d7d8" vector-effect="non-scaling-stroke" d="
  M 278.48 210.25
  C 276.33 227.89 273.38 241.65 263.42 256.69
  A 0.74 0.74 0.0 0 0 263.45 257.55
  Q 263.86 258.09 264.70 258.37"
/>
<path stroke="#eaeaea" vector-effect="non-scaling-stroke" d="
  M 264.70 258.37
  C 277.37 265.28 286.96 276.44 286.99 291.62
  Q 286.99 292.09 287.43 292.25
  C 295.78 295.38 298.36 301.70 290.24 307.43"
/>
<path stroke="#d8d7d8" vector-effect="non-scaling-stroke" d="
  M 101.04 312.81
  L 94.54 312.15"
/>
<path stroke="#d0d0d0" vector-effect="non-scaling-stroke" d="
  M 94.54 312.15
  C 85.80 311.06 67.78 309.82 66.02 300.35"
/>
<path stroke="#eaeaea" vector-effect="non-scaling-stroke" d="
  M 66.02 300.35
  C 66.81 294.70 71.77 293.61 76.19 291.80
  Q 76.69 291.59 76.71 291.06
  C 77.24 275.60 85.30 266.71 97.89 259.03"
/>
<path stroke="#d0d0d0" vector-effect="non-scaling-stroke" d="
  M 97.89 259.03
  Q 99.05 258.62 99.61 257.94
  Q 99.98 257.49 99.66 256.99
  Q 85.08 234.61 84.11 207.80
  A 0.53 0.53 0.0 0 0 83.34 207.35
  Q 75.08 211.59 67.09 216.49
  C 59.74 220.99 52.57 222.14 45.56 216.60"
/>
<path stroke="#a8a8a8" vector-effect="non-scaling-stroke" d="
  M 280.17 210.28
  L 278.48 210.25"
/>
<path stroke="#bababa" vector-effect="non-scaling-stroke" d="
  M 66.02 300.35
  C 64.05 303.33 67.17 303.82 67.28 306.03
  Q 67.29 306.30 67.15 306.48
  Q 66.83 306.91 66.54 306.46
  Q 66.07 305.75 65.53 306.13"
/>
<path stroke="#c2c2c2" vector-effect="non-scaling-stroke" d="
  M 266.04 257.15
  Q 266.04 257.45 265.68 256.78
  Q 265.47 256.39 265.17 256.72
  Q 264.67 257.28 264.70 258.37"
/>
<path stroke="#a8a8a8" vector-effect="non-scaling-stroke" d="
  M 94.54 312.15
  Q 94.52 312.34 94.50 312.54"
/>
<path stroke="#efd692" vector-effect="non-scaling-stroke" d="
  M 107.12 260.52
  C 93.05 266.86 78.18 278.21 82.90 295.87"
/>
<path stroke="#d8d7d8" vector-effect="non-scaling-stroke" d="
  M 82.90 295.87
  C 79.37 296.64 74.57 297.56 71.63 299.64
  A 0.67 0.67 0.0 0 0 71.52 300.63
  C 75.90 305.54 97.63 307.20 104.42 307.74
  C 149.43 311.31 195.12 311.00 240.19 308.94
  Q 258.51 308.10 280.47 304.57
  C 283.60 304.07 286.40 303.12 289.06 301.80
  A 1.51 1.51 0.0 0 0 288.87 299.02
  L 280.61 296.25"
/>
<path stroke="#efd692" vector-effect="non-scaling-stroke" d="
  M 280.61 296.25
  C 285.40 278.31 270.59 266.45 255.93 260.45"
/>
<path stroke="#828383" vector-effect="non-scaling-stroke" d="
  M 255.93 260.45
  Q 274.51 236.53 274.32 206.63
  C 274.31 204.95 273.71 202.97 273.55 201.24
  Q 273.48 200.44 274.22 200.76
  Q 286.95 206.23 298.21 214.22
  C 303.90 218.25 314.47 217.64 314.59 208.45
  C 314.75 196.42 290.60 177.03 281.11 169.63
  C 271.22 161.92 261.99 153.39 259.48 141.76
  Q 254.60 119.16 249.76 101.01
  C 245.91 86.59 237.92 72.49 226.07 63.08
  C 199.38 41.90 160.58 42.47 134.44 64.13
  C 124.61 72.28 117.12 83.22 111.68 94.88
  C 106.58 105.83 104.15 119.68 104.05 131.51
  C 103.91 147.07 96.10 157.52 84.05 167.31
  C 75.58 174.20 42.56 199.05 47.37 211.92
  C 49.35 217.21 58.80 217.36 62.44 214.95
  Q 74.57 206.89 87.90 201.34
  A 0.42 0.42 0.0 0 1 88.48 201.80
  Q 88.01 204.72 88.11 207.75
  Q 89.08 237.18 107.12 260.52"
/>
<path stroke="#715a16" vector-effect="non-scaling-stroke" d="
  M 255.93 260.45
  L 251.55 259.04"
/>
<path stroke="#2b2b2b" vector-effect="non-scaling-stroke" d="
  M 251.55 259.04
  Q 259.95 248.61 264.32 235.71
  A 0.38 0.38 0.0 0 0 263.73 235.29
  L 253.72 243.12"
/>
<path stroke="#6c6d6e" vector-effect="non-scaling-stroke" d="
  M 253.72 243.12
  Q 258.12 217.22 250.30 194.50"
/>
<path stroke="#828383" vector-effect="non-scaling-stroke" d="
  M 250.30 194.50
  Q 241.00 165.54 216.17 149.46
  Q 215.75 149.19 215.27 149.32
  L 213.64 149.73"
/>
<path stroke="#525354" vector-effect="non-scaling-stroke" d="
  M 213.64 149.73
  L 205.20 150.16"
/>
<path stroke="#715a16" vector-effect="non-scaling-stroke" d="
  M 205.20 150.16
  Q 204.59 149.43 204.22 148.09"
/>
<path stroke="#525354" vector-effect="non-scaling-stroke" d="
  M 204.22 148.09
  C 214.32 148.85 224.82 145.02 230.50 136.53
  C 236.07 128.20 235.32 116.76 228.13 109.60
  Q 216.97 98.47 200.01 101.85
  C 191.46 103.56 182.58 109.61 180.23 118.49"
/>
<path stroke="#2b2b2b" vector-effect="non-scaling-stroke" d="
  M 180.23 118.49
  Q 179.63 119.42 179.46 120.38
  A 0.28 0.28 0.0 0 0 179.94 120.63
  Q 180.35 120.23 180.53 118.58"
/>
<path stroke="#525354" vector-effect="non-scaling-stroke" d="
  M 180.53 118.58
  Q 181.68 115.67 184.06 114.56
  Q 184.47 114.37 184.90 115.03"
/>
<path stroke="#828383" vector-effect="non-scaling-stroke" d="
  M 184.90 115.03
  L 185.84 118.38"
/>
<path stroke="#2b2b2b" vector-effect="non-scaling-stroke" d="
  M 185.84 118.38
  L 186.30 122.13
  A 1.67 1.67 0.0 0 0 189.10 123.15
  Q 189.94 122.37 190.99 122.14
  Q 191.57 122.02 191.68 121.43
  Q 192.24 118.49 190.20 116.98"
/>
<path stroke="#828383" vector-effect="non-scaling-stroke" d="
  M 190.20 116.98
  Q 188.35 114.91 185.73 114.75"
/>
<path stroke="#525354" vector-effect="non-scaling-stroke" d="
  M 185.73 114.75
  Q 185.62 114.42 186.32 114.00"
/>
<path stroke="#6c6d6e" vector-effect="non-scaling-stroke" d="
  M 186.32 114.00
  C 200.12 114.13 192.93 145.14 181.77 133.20"
/>
<path stroke="#4a4a4a" vector-effect="non-scaling-stroke" d="
  M 181.77 133.20
  Q 181.06 132.28 180.75 131.04"
/>
<path stroke="#181919" vector-effect="non-scaling-stroke" d="
  M 180.75 131.04
  Q 181.27 130.50 181.74 130.99
  Q 182.77 132.06 184.08 131.99
  Q 184.65 131.95 184.48 131.41
  Q 183.59 128.50 181.58 126.30"
/>
<path stroke="#2b2b2b" vector-effect="non-scaling-stroke" d="
  M 181.58 126.30
  L 181.39 121.88
  A 0.53 0.53 0.0 0 0 180.36 121.75
  Q 179.54 124.52 180.37 127.07"
/>
<path stroke="#181919" vector-effect="non-scaling-stroke" d="
  M 180.37 127.07
  Q 179.32 129.65 180.28 130.90"
/>
<path stroke="#4a4a4a" vector-effect="non-scaling-stroke" d="
  M 180.28 130.90
  Q 180.34 132.27 181.24 133.28"
/>
<path stroke="#6c6d6e" vector-effect="non-scaling-stroke" d="
  M 181.24 133.28
  Q 182.53 136.85 184.92 138.64"
/>
<path stroke="#715a16" vector-effect="non-scaling-stroke" d="
  M 184.92 138.64
  Q 184.90 139.54 184.22 139.58"
/>
<path stroke="#7a6f4f" vector-effect="non-scaling-stroke" d="
  M 184.22 139.58
  L 175.31 139.47"
/>
<path stroke="#715a16" vector-effect="non-scaling-stroke" d="
  M 175.31 139.47
  Q 175.22 139.61 174.65 139.13"
/>
<path stroke="#5a5b5c" vector-effect="non-scaling-stroke" d="
  M 174.65 139.13
  L 176.04 135.97
  Q 176.35 135.25 175.65 135.61
  L 173.26 136.83"
/>
<path stroke="#6c6d6e" vector-effect="non-scaling-stroke" d="
  M 173.26 136.83
  Q 167.30 138.33 164.16 133.32
  Q 158.78 124.72 164.39 115.63
  Q 167.89 109.98 175.20 113.37"
/>
<path stroke="#626263" vector-effect="non-scaling-stroke" d="
  M 175.20 113.37
  L 177.75 116.16
  Q 178.26 116.71 178.15 115.97
  Q 176.53 105.63 169.86 97.74"
/>
<path stroke="#828383" vector-effect="non-scaling-stroke" d="
  M 169.86 97.74
  L 166.39 94.50"
/>
<path stroke="#4a4a4a" vector-effect="non-scaling-stroke" d="
  M 166.39 94.50
  Q 159.33 88.38 148.88 90.05"
/>
<path stroke="#525354" vector-effect="non-scaling-stroke" d="
  M 148.88 90.05
  Q 137.93 92.73 132.23 103.24
  Q 125.94 114.83 128.27 128.50
  C 130.67 142.63 140.36 155.03 155.75 153.98"
/>
<path stroke="#715a16" vector-effect="non-scaling-stroke" d="
  M 155.75 153.98
  Q 156.94 154.93 157.10 156.33"
/>
<path stroke="#525354" vector-effect="non-scaling-stroke" d="
  M 157.10 156.33
  Q 149.62 157.08 142.08 154.09"
/>
<path stroke="#828383" vector-effect="non-scaling-stroke" d="
  M 142.08 154.09
  L 141.30 153.66
  Q 140.85 153.40 140.44 153.73
  C 114.26 174.89 103.76 208.46 108.96 241.26"
/>
<path stroke="#6c6d6e" vector-effect="non-scaling-stroke" d="
  M 108.96 241.26
  L 109.07 242.44"
/>
<path stroke="#2b2b2b" vector-effect="non-scaling-stroke" d="
  M 109.07 242.44
  L 98.76 233.94
  Q 97.99 233.31 98.32 234.25
  C 101.35 242.97 105.77 252.34 112.51 258.70"
/>
<path stroke="#715a16" vector-effect="non-scaling-stroke" d="
  M 112.51 258.70
  L 107.12 260.52"
/>
<path stroke="#987e3a" vector-effect="non-scaling-stroke" d="
  M 251.55 259.04
  L 249.52 258.54"
/>
<path stroke="#dfdfdf" vector-effect="non-scaling-stroke" d="
  M 169.86 97.74
  C 168.31 100.35 170.65 102.57 172.12 104.83"
/>
<path stroke="#eaeaea" vector-effect="non-scaling-stroke" d="
  M 172.12 104.83
  L 164.17 109.30
  Q 163.72 109.55 163.23 109.65
  L 162.10 109.86
  Q 161.62 109.96 161.38 110.38
  L 160.76 111.47
  Q 160.34 112.22 159.82 111.54
  C 158.01 109.20 156.71 106.70 154.21 105.13
  Q 146.42 100.25 136.92 100.46"
/>
<path stroke="#c7c7c6" vector-effect="non-scaling-stroke" d="
  M 166.39 94.50
  Q 158.31 91.07 151.78 90.15"
/>
<path stroke="#989797" vector-effect="non-scaling-stroke" d="
  M 151.78 90.15
  Q 150.33 90.47 148.88 90.05"
/>
<path stroke="#5d5d5c" vector-effect="non-scaling-stroke" d="
  M 180.75 131.04
  Q 180.44 131.08 180.28 130.90"
/>
<path stroke="#c2c2c2" vector-effect="non-scaling-stroke" d="
  M 173.26 136.83
  Q 173.24 138.06 171.62 139.80"
/>
<path stroke="#d9c17c" vector-effect="non-scaling-stroke" d="
  M 171.62 139.80
  C 163.87 142.59 156.93 143.97 155.69 152.13"
/>
<path stroke="#bababa" vector-effect="non-scaling-stroke" d="
  M 188.94 181.67
  Q 187.44 182.73 185.16 185.31
  C 181.52 189.41 178.22 186.61 174.46 183.95"
/>
<path stroke="#d0d0d0" vector-effect="non-scaling-stroke" d="
  M 174.46 183.95
  Q 164.85 176.04 156.68 165.02
  A 1.18 1.12 -12.1 0 0 155.94 164.57
  C 153.03 164.07 151.47 161.98 149.24 161.00
  C 145.81 159.49 143.18 158.51 142.08 154.09"
/>
<path stroke="#d0d0d0" vector-effect="non-scaling-stroke" d="
  M 151.78 90.15
  Q 141.68 91.96 136.92 100.46"
/>
<path stroke="#bababa" vector-effect="non-scaling-stroke" d="
  M 136.92 100.46
  L 131.89 109.31
  Q 131.65 109.74 131.54 110.21
  Q 130.87 113.27 130.48 116.37
  Q 130.42 116.84 130.08 117.17
  Q 129.23 117.98 129.44 119.77
  C 130.16 125.94 130.12 133.47 134.14 138.70
  C 135.20 140.07 135.44 141.76 136.31 142.92
  Q 138.34 145.64 141.08 147.74
  A 1.33 1.31 -29.3 0 0 142.03 148.00
  Q 142.91 147.91 143.15 148.75
  Q 143.31 149.34 143.89 149.55
  L 150.04 151.75
  A 0.59 0.59 0.0 0 0 150.46 151.75
  Q 153.12 150.80 155.69 152.13"
/>
<path stroke="#bfa762" vector-effect="non-scaling-stroke" d="
  M 155.69 152.13
  Q 156.32 153.04 155.75 153.98"
/>
<path stroke="#eaeaea" vector-effect="non-scaling-stroke" d="
  M 174.46 183.95
  Q 149.61 184.67 124.03 183.61
  C 121.17 183.49 118.83 181.89 117.40 185.74
  C 115.97 189.57 113.74 193.15 112.96 197.20
  Q 111.96 202.45 110.69 207.67
  C 110.04 210.33 110.06 213.28 109.39 216.08
  C 108.41 220.24 108.39 229.61 109.39 233.77
  Q 110.21 237.22 109.87 240.83
  Q 109.82 241.37 108.96 241.26"
/>
<path stroke="#c7ae6a" vector-effect="non-scaling-stroke" d="
  M 174.65 139.13
  Q 173.30 140.53 171.62 139.80"
/>
<path stroke="#987e3a" vector-effect="non-scaling-stroke" d="
  M 174.32 293.92
  L 173.16 296.42"
/>
<path stroke="#b79e59" vector-effect="non-scaling-stroke" d="
  M 173.16 296.42
  L 171.43 299.80"
/>
<path stroke="#c7ae6a" vector-effect="non-scaling-stroke" d="
  M 171.43 299.80
  C 170.92 300.21 170.51 300.48 169.79 300.49
  Q 127.87 301.01 85.92 300.41
  Q 85.39 300.40 85.14 299.94
  L 82.90 295.87"
/>
<path stroke="#a8a7a7" vector-effect="non-scaling-stroke" d="
  M 190.20 116.98
  L 185.84 118.38"
/>
<path stroke="#cac9c9" vector-effect="non-scaling-stroke" d="
  M 175.20 113.37
  Q 174.78 111.77 174.59 110.37
  Q 174.35 108.71 173.69 107.53
  Q 172.75 105.87 172.12 104.83"
/>
<path stroke="#eaeaea" vector-effect="non-scaling-stroke" d="
  M 250.30 194.50
  L 243.00 181.41
  Q 242.70 180.87 242.10 180.99
  Q 237.46 181.91 235.50 181.96
  Q 212.83 182.56 188.94 181.67"
/>
<path stroke="#d0d0d0" vector-effect="non-scaling-stroke" d="
  M 188.94 181.67
  C 194.84 175.42 204.35 166.53 204.28 158.06
  Q 204.28 157.46 204.86 157.29
  L 212.86 154.98
  A 0.61 0.61 0.0 0 0 213.30 154.44
  L 213.64 149.73"
/>
<path stroke="#c7ae6a" vector-effect="non-scaling-stroke" d="
  M 280.61 296.25
  Q 279.16 299.26 277.77 300.20
  Q 277.41 300.44 273.62 300.48
  Q 220.30 301.05 194.00 300.59
  Q 192.53 300.57 191.48 299.00"
/>
<path stroke="#b79e59" vector-effect="non-scaling-stroke" d="
  M 191.48 299.00
  L 190.34 296.48"
/>
<path stroke="#987e3a" vector-effect="non-scaling-stroke" d="
  M 190.34 296.48
  Q 190.24 294.87 189.44 293.93"
/>
<path stroke="#939292" vector-effect="non-scaling-stroke" d="
  M 253.72 243.12
  L 249.52 258.54"
/>
<path stroke="#d9c17c" vector-effect="non-scaling-stroke" d="
  M 249.52 258.54
  L 243.27 257.28"
/>
<path stroke="#bababa" vector-effect="non-scaling-stroke" d="
  M 243.27 257.28
  Q 243.26 256.96 242.74 256.95"
/>
<path stroke="#cac9c9" vector-effect="non-scaling-stroke" d="
  M 242.74 256.95
  C 246.69 241.69 250.82 228.24 250.26 211.20
  C 250.20 209.50 249.60 207.32 249.79 205.27
  Q 249.84 204.70 249.33 204.46
  Q 248.31 204.00 248.29 203.00
  Q 248.28 202.38 247.85 202.81
  Q 247.06 203.58 246.57 203.58
  C 240.29 203.65 233.32 202.97 227.80 202.91
  Q 177.80 202.42 127.81 202.94
  Q 125.62 202.96 123.63 203.75
  Q 123.21 203.92 122.76 203.85
  Q 121.37 203.62 119.92 203.75
  Q 119.26 203.82 118.86 203.14
  Q 118.46 202.45 118.14 203.18
  L 117.76 204.06
  Q 117.67 204.27 117.46 204.19
  L 116.30 203.77
  A 0.31 0.31 0.0 0 0 115.88 204.06
  L 115.87 204.51
  Q 115.87 205.23 115.39 204.68
  L 113.95 202.99
  A 0.59 0.59 0.0 0 0 112.92 203.31
  Q 111.51 217.03 113.73 229.26
  Q 115.90 241.22 120.47 257.33"
/>
<path stroke="#d9c17c" vector-effect="non-scaling-stroke" d="
  M 120.47 257.33
  L 113.67 258.55"
/>
<path stroke="#939292" vector-effect="non-scaling-stroke" d="
  M 113.67 258.55
  L 109.07 242.44"
/>
<path stroke="#bfa762" vector-effect="non-scaling-stroke" d="
  M 204.22 148.09
  Q 203.66 147.59 203.48 146.52"
/>
<path stroke="#bababa" vector-effect="non-scaling-stroke" d="
  M 203.48 146.52
  C 206.83 146.08 210.43 146.41 213.39 145.68
  C 223.80 143.13 231.14 136.06 231.74 124.95
  Q 232.03 119.47 229.10 114.59
  Q 225.08 107.92 217.93 104.71"
/>
<path stroke="#d0d0d0" vector-effect="non-scaling-stroke" d="
  M 217.93 104.71
  Q 210.17 101.74 203.31 103.30"
/>
<path stroke="#bababa" vector-effect="non-scaling-stroke" d="
  M 203.31 103.30
  Q 192.48 104.52 185.77 113.04
  Q 185.49 113.41 185.55 113.65
  Q 185.65 114.01 186.32 114.00"
/>
<path stroke="#d0d0d0" vector-effect="non-scaling-stroke" d="
  M 185.73 114.75
  Q 185.12 114.64 184.90 115.03"
/>
<path stroke="#797878" vector-effect="non-scaling-stroke" d="
  M 180.53 118.58
  Q 180.38 118.54 180.23 118.49"
/>
<path stroke="#f8eccb" vector-effect="non-scaling-stroke" d="
  M 187.47 140.18
  L 192.09 144.00
  Q 192.63 144.44 193.01 143.86
  Q 193.47 143.16 194.36 143.24
  A 0.39 0.38 29.0 0 1 194.56 143.93
  Q 193.83 144.47 194.05 145.47
  A 0.34 0.34 0.0 0 0 194.68 145.57
  L 195.45 144.23
  Q 195.62 143.94 195.92 144.08
  L 196.42 144.32
  Q 196.46 144.34 196.44 144.38
  Q 195.69 146.30 197.14 147.51
  Q 197.44 147.76 197.79 147.59
  L 198.14 147.42
  Q 198.59 147.21 198.99 147.50
  L 201.34 149.16
  Q 201.73 149.45 201.88 149.91
  Q 202.21 150.94 203.81 150.91"
/>
<path stroke="#eed388" vector-effect="non-scaling-stroke" d="
  M 179.90 147.15
  Q 180.28 145.15 178.47 145.12
  Q 177.91 145.10 177.64 144.61
  Q 176.52 142.53 174.21 142.53
  A 0.64 0.64 0.0 0 1 173.57 141.93
  L 173.50 140.96"
/>
<path stroke="#d9c17c" vector-effect="non-scaling-stroke" d="
  M 203.48 146.52
  C 199.24 141.34 191.33 139.40 184.92 138.64"
/>
<path stroke="#b2b1b1" vector-effect="non-scaling-stroke" d="
  M 181.24 133.28
  L 181.77 133.20"
/>
<path stroke="#987e3a" vector-effect="non-scaling-stroke" d="
  M 113.67 258.55
  L 112.51 258.70"
/>
<path stroke="#bfa762" vector-effect="non-scaling-stroke" d="
  M 205.20 150.16
  L 204.79 153.98
  A 1.56 1.54 68.3 0 1 204.44 154.81
  C 202.96 156.61 202.12 158.79 200.75 160.43
  Q 192.70 170.06 184.29 178.00
  A 3.43 3.42 -52.0 0 1 180.25 178.50
  C 171.02 173.30 163.39 164.67 157.10 156.33"
/>
<path stroke="#e7c35e" vector-effect="non-scaling-stroke" d="
  M 175.31 139.47
  Q 174.78 140.63 173.50 140.96"
/>
<path stroke="#e5be4e" vector-effect="non-scaling-stroke" d="
  M 173.50 140.96
  L 166.28 143.19
  Q 165.58 143.41 166.23 143.76
  Q 168.52 144.98 171.06 144.63
  A 0.74 0.67 -38.3 0 1 171.35 144.65
  L 179.90 147.15"
/>
<path stroke="#e7c35e" vector-effect="non-scaling-stroke" d="
  M 179.90 147.15
  Q 190.70 151.08 196.41 160.32
  A 1.26 1.25 -38.9 0 0 198.39 160.53
  Q 202.71 155.98 203.81 150.91"
/>
<path stroke="#efd692" vector-effect="non-scaling-stroke" d="
  M 203.81 150.91
  C 201.15 143.85 195.03 140.93 187.47 140.18"
/>
<path stroke="#e7c35e" vector-effect="non-scaling-stroke" d="
  M 187.47 140.18
  L 184.22 139.58"
/>
<path stroke="#3e3d3d" vector-effect="non-scaling-stroke" d="
  M 181.58 126.30
  Q 180.92 127.09 180.37 127.07"
/>
<path stroke="#a09f9f" vector-effect="non-scaling-stroke" d="
  M 171.43 299.80
  Q 171.84 300.07 172.69 299.75
  C 177.85 297.82 186.08 298.17 191.48 299.00"
/>
<path stroke="#b0afaf" vector-effect="non-scaling-stroke" d="
  M 242.74 256.95
  C 227.38 253.56 210.28 256.34 197.14 265.12
  C 187.87 271.31 181.14 282.85 184.29 294.21"
/>
<path stroke="#888787" vector-effect="non-scaling-stroke" d="
  M 184.29 294.21
  Q 181.77 294.70 179.66 294.19"
/>
<path stroke="#b0afaf" vector-effect="non-scaling-stroke" d="
  M 179.66 294.19
  C 182.41 280.46 173.63 269.07 162.13 262.90
  Q 147.37 254.98 130.63 256.63"
/>
<path stroke="#cfb671" vector-effect="non-scaling-stroke" d="
  M 130.63 256.63
  L 120.47 257.33"
/>
<path stroke="#797878" vector-effect="non-scaling-stroke" d="
  M 179.66 294.19
  L 174.32 293.92"
/>
<path stroke="#bfa762" vector-effect="non-scaling-stroke" d="
  M 174.32 293.92
  C 176.35 275.30 159.71 262.55 143.19 258.87
  Q 138.93 257.91 130.63 256.63"
/>
<path stroke="#706f6e" vector-effect="non-scaling-stroke" d="
  M 190.34 296.48
  L 173.16 296.42"
/>
<path stroke="#bfa762" vector-effect="non-scaling-stroke" d="
  M 243.27 257.28
  Q 232.50 256.36 222.01 258.46
  C 205.21 261.83 187.06 274.30 189.44 293.93"
/>
<path stroke="#797878" vector-effect="non-scaling-stroke" d="
  M 189.44 293.93
  L 184.29 294.21"
/>
<path stroke="#eaeaea" vector-effect="non-scaling-stroke" d="
  M 217.93 104.71
  L 212.30 107.65
  Q 211.97 107.82 211.76 107.51
  Q 211.30 106.84 211.94 106.20
  A 0.27 0.26 22.3 0 0 211.75 105.75
  L 211.39 105.75
  Q 210.91 105.75 210.83 106.22
  Q 210.61 107.43 211.15 108.20
  A 0.65 0.65 0.0 0 1 210.20 109.07
  L 203.31 103.30"
/>
<path stroke="#6c6d6e" vector-effect="non-scaling-stroke" d="
  M 145.98 61.25
  L 138.74 67.53"
/>
<path stroke="#626263" vector-effect="non-scaling-stroke" d="
  M 138.74 67.53
  L 135.93 70.74"
/>
<path stroke="#5a5b5c" vector-effect="non-scaling-stroke" d="
  M 135.93 70.74
  L 132.17 75.99"
/>
<path stroke="#525354" vector-effect="non-scaling-stroke" d="
  M 132.17 75.99
  Q 129.07 80.87 127.17 86.52"
/>
<path stroke="#4a4a4a" vector-effect="non-scaling-stroke" d="
  M 127.17 86.52
  Q 125.49 91.59 125.20 96.98
  Q 125.18 97.44 124.97 97.84
  Q 124.60 98.54 124.65 99.27
  Q 124.72 100.35 125.14 99.36
  Q 128.70 91.18 135.42 85.60"
/>
<path stroke="#525354" vector-effect="non-scaling-stroke" d="
  M 135.42 85.60
  Q 151.21 73.06 168.73 83.23"
/>
<path stroke="#4a4a4a" vector-effect="non-scaling-stroke" d="
  M 168.73 83.23
  Q 177.85 89.89 182.31 100.03
  A 0.41 0.40 56.9 0 0 182.95 100.17
  C 198.12 86.17 224.86 87.48 235.94 106.35
  Q 236.20 106.80 236.26 106.28
  Q 237.65 93.90 232.92 82.70"
/>
<path stroke="#525354" vector-effect="non-scaling-stroke" d="
  M 232.92 82.70
  L 228.34 74.29"
/>
<path stroke="#626263" vector-effect="non-scaling-stroke" d="
  M 228.34 74.29
  Q 225.40 69.82 221.92 66.96"
/>
<path stroke="#6c6d6e" vector-effect="non-scaling-stroke" d="
  M 221.92 66.96
  Q 217.91 62.52 212.97 59.50"
/>
<path stroke="#828383" vector-effect="non-scaling-stroke" d="
  M 212.97 59.50
  C 192.33 46.58 165.92 47.13 145.98 61.25"
/>
<path stroke="#eaeaea" vector-effect="non-scaling-stroke" d="
  M 212.97 59.50
  L 212.68 60.37
  A 0.57 0.57 0.0 0 1 211.86 60.68
  Q 201.19 54.65 194.29 53.46
  Q 191.03 52.90 179.23 52.74
  C 176.59 52.70 174.17 53.69 171.29 53.60
  Q 168.36 53.50 166.71 53.94
  C 160.40 55.60 153.26 57.55 147.94 61.44
  C 147.23 61.96 146.53 61.86 145.98 61.25"
/>
<path stroke="#cac9c9" vector-effect="non-scaling-stroke" d="
  M 221.92 66.96
  L 214.16 62.68
  Q 213.75 62.45 213.33 62.65
  Q 211.56 63.50 209.25 63.49
  Q 191.53 63.45 153.57 63.74
  Q 151.61 63.75 147.36 62.84
  Q 146.89 62.74 146.47 62.97
  C 143.72 64.53 140.98 67.98 139.72 68.22
  Q 138.77 68.41 138.74 67.53"
/>
<path stroke="#b0afaf" vector-effect="non-scaling-stroke" d="
  M 228.34 74.29
  Q 227.53 74.44 226.33 74.07"
/>
<path stroke="#b8b7b7" vector-effect="non-scaling-stroke" d="
  M 226.33 74.07
  Q 224.80 71.53 222.35 69.92
  Q 221.92 69.63 221.41 69.64
  Q 196.58 69.77 171.75 69.87
  Q 157.70 69.92 149.45 69.42
  C 146.62 69.24 143.66 70.35 140.27 68.83
  A 0.62 0.61 29.3 0 0 139.51 69.04
  Q 138.00 71.22 135.93 70.74"
/>
<path stroke="#989797" vector-effect="non-scaling-stroke" d="
  M 232.92 82.70
  Q 230.59 83.08 229.89 80.94
  Q 229.72 80.43 229.23 80.63
  C 224.23 82.66 217.15 80.95 212.23 81.23
  Q 208.05 81.47 203.89 81.17
  C 193.41 80.43 182.86 80.70 172.37 80.95
  C 170.58 80.99 169.66 81.88 168.73 83.23"
/>
<path stroke="#989797" vector-effect="non-scaling-stroke" d="
  M 135.42 85.60
  Q 132.48 84.94 136.40 82.87
  Q 136.98 82.57 136.42 82.24
  Q 134.31 81.00 131.89 82.66
  Q 131.08 83.21 130.93 82.19
  Q 130.80 81.30 130.47 82.14
  L 128.76 86.42
  Q 128.64 86.73 128.30 86.76
  Q 127.65 86.82 127.17 86.52"
/>
<path stroke="#a8a8a8" vector-effect="non-scaling-stroke" d="
  M 226.33 74.07
  C 221.57 73.85 216.42 73.39 211.59 74.13
  C 208.48 74.61 204.94 74.02 202.79 73.99
  Q 188.24 73.78 173.69 73.64
  Q 170.82 73.61 168.53 73.90
  C 158.23 75.22 147.42 74.62 140.69 74.61
  Q 138.61 74.60 136.67 73.59
  Q 136.25 73.37 135.93 73.73
  Q 134.88 74.92 133.93 76.17
  Q 133.22 77.11 132.17 75.99"
/>
<path stroke="#4a4a4a" vector-effect="non-scaling-stroke" d="
  M 167.96 90.88
  Q 174.89 95.88 177.72 102.46
  Q 179.26 106.03 179.95 107.29
  Q 180.05 107.49 180.19 107.53
  Q 180.35 107.58 180.52 107.50
  Q 180.96 107.30 180.70 106.89
  Q 180.11 105.92 179.44 103.51
  Q 177.29 95.81 170.35 89.25"
/>
<path stroke="#525354" vector-effect="non-scaling-stroke" d="
  M 170.35 89.25
  C 152.43 74.27 132.84 86.21 127.06 105.65
  Q 127.05 105.69 127.08 105.71
  Q 127.21 105.78 127.33 105.73
  Q 127.43 105.68 127.48 105.54
  C 133.92 88.73 151.90 80.23 167.96 90.88"
/>
<path stroke="#989797" vector-effect="non-scaling-stroke" d="
  M 170.35 89.25
  Q 169.67 90.30 167.96 90.88"
/>
<path stroke="#4a4a4a" vector-effect="non-scaling-stroke" d="
  M 230.39 104.85
  C 218.65 90.63 196.07 91.32 184.27 104.51
  Q 184.02 104.79 184.03 105.11
  A 0.18 0.18 0.0 0 0 184.32 105.25
  Q 201.83 93.00 222.23 100.50
  Q 226.62 102.11 230.16 105.20
  Q 230.26 105.28 230.35 105.24
  Q 230.42 105.22 230.45 105.17
  Q 230.55 105.04 230.39 104.85"
/>
<path stroke="#4a4a4a" vector-effect="non-scaling-stroke" d="
  M 170.78 119.20
  L 170.99 120.75"
/>
<path stroke="#2b2b2b" vector-effect="non-scaling-stroke" d="
  M 170.99 120.75
  L 171.48 122.94
  Q 171.53 123.13 171.72 123.09
  Q 172.80 122.84 175.31 122.14
  Q 177.45 121.55 176.57 119.48"
/>
<path stroke="#4a4a4a" vector-effect="non-scaling-stroke" d="
  M 176.57 119.48
  L 176.09 118.47"
/>
<path stroke="#828383" vector-effect="non-scaling-stroke" d="
  M 176.09 118.47
  Q 174.08 114.59 170.12 114.39
  Q 169.44 114.36 169.62 115.01
  L 170.78 119.20"
/>
<path stroke="#c7c7c6" vector-effect="non-scaling-stroke" d="
  M 176.09 118.47
  Q 175.21 118.61 174.87 117.94
  Q 174.64 117.50 174.15 117.38
  Q 172.02 116.85 170.78 119.20"
/>
<path stroke="#706f6e" vector-effect="non-scaling-stroke" d="
  M 176.57 119.48
  L 173.37 119.51
  Q 172.90 119.52 172.69 119.94
  Q 172.30 120.77 170.99 120.75"
/>
<path stroke="#181919" vector-effect="non-scaling-stroke" d="
  M 164.13 126.78
  C 164.27 128.11 163.94 131.29 166.41 130.75
  A 1.78 1.78 0.0 0 0 167.77 128.59
  Q 167.34 126.80 165.58 125.62"
/>
<path stroke="#2b2b2b" vector-effect="non-scaling-stroke" d="
  M 165.58 125.62
  L 164.60 119.98
  Q 164.43 119.01 164.39 119.99
  L 164.13 126.78"
/>
<path stroke="#3e3d3d" vector-effect="non-scaling-stroke" d="
  M 165.58 125.62
  Q 165.12 126.99 164.13 126.78"
/>
<path stroke="#2b2b2b" vector-effect="non-scaling-stroke" d="
  M 274.96 184.01
  Q 275.03 184.23 275.23 184.29"
/>
<path stroke="#181919" vector-effect="non-scaling-stroke" d="
  M 275.23 184.29
  L 276.21 185.31"
/>
<path stroke="#2b2b2b" vector-effect="non-scaling-stroke" d="
  M 276.21 185.31
  Q 276.76 185.89 277.47 185.43"
/>
<path stroke="#181919" vector-effect="non-scaling-stroke" d="
  M 277.47 185.43
  L 278.36 185.81"
/>
<path stroke="#2b2b2b" vector-effect="non-scaling-stroke" d="
  M 278.36 185.81
  L 280.91 188.03"
/>
<path stroke="#181919" vector-effect="non-scaling-stroke" d="
  M 280.91 188.03
  Q 281.10 188.28 281.75 188.42"
/>
<path stroke="#2b2b2b" vector-effect="non-scaling-stroke" d="
  M 281.75 188.42
  L 294.45 197.02"
/>
<path stroke="#4a4a4a" vector-effect="non-scaling-stroke" d="
  M 294.45 197.02
  L 309.33 206.80
  A 0.39 0.38 13.6 0 0 309.93 206.44
  C 309.36 201.18 303.94 194.81 300.23 191.20"
/>
<path stroke="#2b2b2b" vector-effect="non-scaling-stroke" d="
  M 300.23 191.20
  L 285.02 178.68"
/>
<path stroke="#181919" vector-effect="non-scaling-stroke" d="
  M 285.02 178.68
  L 273.81 169.44
  Q 273.41 169.11 272.90 169.23
  Q 271.79 169.51 271.08 168.74
  Q 270.79 168.42 270.64 168.01
  L 270.19 166.81
  A 0.31 0.26 -69.8 0 0 269.70 167.09
  Q 270.48 169.28 272.75 170.80
  Q 273.63 171.39 273.58 172.62
  Q 273.56 173.19 273.16 172.79
  L 271.92 171.54
  Q 271.55 171.18 271.18 171.54
  Q 268.73 173.92 267.71 177.15
  A 1.15 1.15 0.0 0 1 265.90 177.70
  Q 264.78 176.82 264.72 175.59
  Q 264.70 175.22 264.35 175.32
  Q 264.02 175.41 264.08 175.69
  Q 264.52 177.85 266.69 178.66
  Q 267.26 178.88 267.62 178.39
  L 267.98 177.89
  Q 268.60 177.05 268.74 178.09
  Q 268.82 178.67 268.43 178.97
  Q 267.99 179.32 268.48 179.59
  C 270.55 180.71 272.84 184.04 274.96 184.01"
/>
<path stroke="#3e3d3d" vector-effect="non-scaling-stroke" d="
  M 285.02 178.68
  L 284.87 181.11
  Q 284.68 180.99 284.42 181.13
  Q 283.92 181.40 284.32 181.81
  L 286.75 184.26
  Q 286.81 184.32 286.78 184.41
  Q 286.71 184.61 286.68 184.77
  Q 286.60 185.19 286.31 184.89
  L 283.74 182.26
  Q 283.47 181.99 283.22 182.28
  Q 283.08 182.45 283.32 182.69
  Q 284.98 184.32 286.48 186.11
  Q 286.85 186.56 286.43 186.96
  L 285.31 188.02
  Q 284.98 188.33 285.29 188.66
  Q 285.64 189.05 285.70 189.56
  Q 285.79 190.39 285.17 189.82
  Q 282.73 187.59 281.81 184.40
  A 0.27 0.27 0.0 0 0 281.29 184.42
  Q 281.04 185.55 281.79 186.46
  A 1.06 1.04 -58.4 0 1 282.00 187.37
  L 281.75 188.42"
/>
<path stroke="#3e3d3d" vector-effect="non-scaling-stroke" d="
  M 280.91 188.03
  Q 280.94 184.45 278.36 185.81"
/>
<path stroke="#3e3d3d" vector-effect="non-scaling-stroke" d="
  M 277.47 185.43
  Q 278.32 184.76 277.94 184.31
  Q 277.35 183.63 276.21 185.31"
/>
<path stroke="#3e3d3d" vector-effect="non-scaling-stroke" d="
  M 275.23 184.29
  Q 276.22 184.33 275.98 183.39
  A 0.47 0.46 -29.0 0 0 275.20 183.17
  L 274.95 183.42
  Q 274.82 183.55 274.88 183.72
  L 274.96 184.01"
/>
<path stroke="#706f6e" vector-effect="non-scaling-stroke" d="
  M 300.23 191.20
  Q 299.47 191.32 299.07 192.06
  A 0.72 0.72 0.0 0 0 299.84 193.12
  L 300.51 192.99
  A 0.34 0.34 0.0 0 1 300.84 193.53
  Q 300.37 194.15 299.65 194.02
  Q 299.30 193.96 299.13 193.65
  Q 298.36 192.31 297.11 192.18
  A 0.22 0.21 -20.8 0 0 296.94 192.55
  L 299.27 194.73
  Q 299.64 195.07 300.13 195.04
  Q 301.77 194.91 302.51 196.23
  Q 302.67 196.52 302.47 196.76
  Q 302.19 197.09 302.02 196.70
  Q 301.62 195.78 300.58 196.00
  Q 300.11 196.10 299.69 195.85
  L 298.91 195.39
  Q 298.55 195.17 298.21 195.44
  L 296.65 196.68
  Q 296.09 197.11 296.04 196.41
  L 295.98 195.68
  Q 295.94 195.14 295.43 195.32
  Q 294.44 195.66 294.45 197.02"
/>
<path stroke="#3e3d3d" vector-effect="non-scaling-stroke" d="
  M 284.87 181.11
  L 289.29 185.69
  A 0.20 0.20 0.0 0 0 289.58 185.42
  L 287.23 182.94
  A 0.62 0.60 -72.6 0 1 287.06 182.60
  Q 286.70 180.70 284.87 181.11"
/>
<path stroke="#181919" vector-effect="non-scaling-stroke" d="
  M 267.69 168.06
  Q 267.89 169.11 268.71 169.75
  A 0.21 0.21 0.0 0 0 269.03 169.48
  L 267.85 167.45
  A 0.28 0.28 0.0 0 0 267.33 167.63
  Q 267.37 167.93 267.69 168.06"
/>
<path stroke="#181919" vector-effect="non-scaling-stroke" d="
  M 95.51 172.27
  C 94.91 170.82 93.65 169.04 92.31 168.20
  Q 91.99 167.99 92.04 168.37
  Q 92.07 168.61 92.26 168.76
  C 93.52 169.77 94.39 172.13 95.19 172.56
  Q 95.75 172.85 95.51 172.27"
/>
<path stroke="#181919" vector-effect="non-scaling-stroke" d="
  M 90.74 168.92
  Q 90.83 168.05 90.21 168.67
  L 89.62 169.26
  Q 89.15 169.73 89.81 169.76
  Q 90.66 169.79 90.74 168.92"
/>
<path stroke="#2b2b2b" vector-effect="non-scaling-stroke" d="
  M 75.57 179.89
  L 61.49 191.43"
/>
<path stroke="#4a4a4a" vector-effect="non-scaling-stroke" d="
  M 61.49 191.43
  C 57.58 195.37 52.22 201.58 51.43 207.22
  A 0.29 0.29 0.0 0 0 51.87 207.50
  L 69.57 195.90"
/>
<path stroke="#2b2b2b" vector-effect="non-scaling-stroke" d="
  M 69.57 195.90
  L 81.41 187.71"
/>
<path stroke="#181919" vector-effect="non-scaling-stroke" d="
  M 81.41 187.71
  Q 82.64 187.92 83.50 186.56"
/>
<path stroke="#2b2b2b" vector-effect="non-scaling-stroke" d="
  M 83.50 186.56
  Q 84.20 185.44 84.34 185.88"
/>
<path stroke="#181919" vector-effect="non-scaling-stroke" d="
  M 84.34 185.88
  C 86.65 184.74 90.66 182.72 92.17 180.60
  Q 92.76 179.75 93.56 179.78
  A 1.37 1.36 -16.3 0 0 94.73 177.65
  C 93.13 175.28 94.63 171.98 92.11 170.77
  A 0.28 0.28 0.0 0 0 91.84 171.25
  Q 94.12 172.70 92.71 174.90
  Q 92.34 175.49 92.68 176.09
  L 94.06 178.56
  A 0.25 0.25 0.0 0 1 94.01 178.86
  L 93.80 179.07
  A 0.37 0.37 0.0 0 1 93.21 178.99
  L 91.13 175.41
  Q 90.96 175.13 91.24 174.94
  Q 91.39 174.84 91.51 174.72
  Q 91.71 174.53 91.77 174.20
  Q 92.20 171.70 89.80 171.07
  A 0.39 0.39 0.0 0 0 89.45 171.74
  L 90.69 172.81
  Q 91.21 173.26 90.78 173.80
  L 90.27 174.42
  A 0.45 0.45 0.0 0 1 89.48 174.02
  Q 89.83 172.70 88.24 172.04
  Q 87.60 171.77 88.09 171.29
  L 88.49 170.88
  Q 88.94 170.43 88.34 170.24
  Q 87.86 170.08 87.42 170.41
  Q 81.26 175.05 75.57 179.89"
/>
<path stroke="#3e3d3d" vector-effect="non-scaling-stroke" d="
  M 84.34 185.88
  Q 84.23 185.33 84.00 185.11
  Q 83.54 184.65 83.19 185.20
  Q 82.62 186.08 83.50 186.56"
/>
<path stroke="#3e3d3d" vector-effect="non-scaling-stroke" d="
  M 81.41 187.71
  L 82.01 185.35
  Q 82.10 185.00 81.74 185.00
  Q 81.59 185.00 81.45 185.00
  Q 81.04 185.01 81.04 185.42
  Q 81.03 186.98 80.72 187.18
  A 2.54 2.46 77.9 0 1 76.94 184.65
  Q 77.17 182.96 75.35 181.89
  Q 74.95 181.66 75.23 181.29
  Q 76.23 179.96 75.57 179.89"
/>
<path stroke="#706f6e" vector-effect="non-scaling-stroke" d="
  M 69.57 195.90
  Q 68.95 194.39 66.90 196.71
  A 0.46 0.45 42.5 0 1 66.24 196.73
  L 65.47 195.95
  A 0.48 0.47 -82.8 0 0 64.73 196.53
  Q 65.03 197.05 64.85 197.56
  Q 64.69 197.98 64.36 197.67
  L 62.96 196.32
  A 0.97 0.97 0.0 0 1 62.93 194.95
  L 64.80 193.05
  A 0.48 0.48 0.0 0 0 64.13 192.37
  L 61.28 195.01
  A 0.21 0.20 82.7 0 1 60.96 194.76
  Q 62.42 192.00 61.49 191.43"
/>
<path stroke="#181919" vector-effect="non-scaling-stroke" d="
  M 267.90 171.25
  Q 267.22 171.19 267.60 171.76
  L 268.09 172.50
  Q 268.60 173.25 268.74 172.36
  Q 268.90 171.35 267.90 171.25"
/>
<path stroke="#181919" vector-effect="non-scaling-stroke" d="
  M 265.88 172.81
  A 0.28 0.27 -28.5 0 0 265.36 172.66
  Q 265.00 173.41 265.34 174.31
  A 0.19 0.19 0.0 0 0 265.70 174.26
  L 265.88 172.81"
/>
<path stroke="#181919" vector-effect="non-scaling-stroke" d="
  M 95.93 174.96
  Q 96.04 174.73 96.00 174.46
  A 0.34 0.34 0.0 0 0 95.33 174.49
  L 95.22 176.23
  A 0.25 0.25 0.0 0 0 95.72 176.29
  Q 95.81 175.81 95.82 175.38
  Q 95.83 175.16 95.93 174.96"
/>
<path stroke="#2b2b2b" vector-effect="non-scaling-stroke" d="
  M 270.99 196.47
  A 0.76 0.76 0.0 0 0 271.78 197.51
  C 277.80 196.88 290.23 205.97 295.44 209.32
  C 297.79 210.83 300.76 211.37 303.16 213.18
  A 0.66 0.65 39.5 0 0 304.04 213.10
  Q 304.60 212.47 303.97 212.04
  Q 291.17 203.21 277.05 196.72
  C 275.57 196.03 274.33 195.82 272.76 195.46
  Q 271.51 195.18 270.99 196.47"
/>
<path stroke="#2b2b2b" vector-effect="non-scaling-stroke" d="
  M 89.85 196.09
  Q 86.74 196.10 84.48 197.27
  C 79.20 199.99 73.53 202.36 68.73 205.30
  Q 62.62 209.05 56.62 213.21
  A 0.30 0.30 0.0 0 0 56.74 213.75
  Q 57.12 213.82 57.65 213.59
  Q 66.96 209.57 75.41 204.00
  C 78.98 201.63 82.76 199.96 86.49 197.85
  Q 86.95 197.59 87.44 197.79
  Q 89.23 198.54 90.31 196.95
  A 0.55 0.55 0.0 0 0 89.85 196.09"
/>
<path stroke="#e7c35e" vector-effect="non-scaling-stroke" d="
  M 178.45 172.84
  Q 167.95 162.39 160.55 154.45
  Q 159.60 153.42 160.47 152.39
  A 0.84 0.84 0.0 0 0 160.58 151.48
  L 159.50 149.32
  A 0.38 0.38 0.0 0 0 158.81 149.34
  Q 157.00 153.40 159.18 156.31
  C 164.08 162.84 172.78 172.32 181.34 176.88
  A 0.43 0.43 0.0 0 0 181.91 176.28
  C 181.06 174.82 179.32 173.69 178.45 172.84"
/>
<path stroke="#3e3d3d" vector-effect="non-scaling-stroke" d="
  M 286.00 186.34
  L 279.44 180.06
  A 0.11 0.01 41.4 0 0 279.34 179.99
  Q 279.28 180.15 279.23 180.30
  Q 279.16 180.53 279.33 180.70
  L 283.56 184.94
  A 1.50 1.45 -68.5 0 1 284.00 186.00
  L 284.00 187.34
  A 0.52 0.52 0.0 0 0 284.89 187.71
  L 286.00 186.60
  A 0.18 0.18 0.0 0 0 286.00 186.34"
/>
<path stroke="#3e3d3d" vector-effect="non-scaling-stroke" d="
  M 78.99 182.90
  Q 80.08 183.93 80.72 183.99
  A 0.23 0.22 -15.1 0 0 80.93 183.63
  Q 79.72 182.08 78.99 182.90"
/>
<path stroke="#3e3d3d" vector-effect="non-scaling-stroke" d="
  M 78.99 182.90
  Q 78.13 182.96 77.43 182.04
  A 0.26 0.26 0.0 0 0 76.97 182.28
  Q 77.33 183.40 78.45 183.77
  Q 79.03 183.95 79.00 183.35
  L 78.99 182.90"
/>
<path stroke="#3e3d3d" vector-effect="non-scaling-stroke" d="
  M 79.06 186.61
  Q 79.16 186.72 79.36 186.75
  Q 80.00 186.87 80.00 186.22
  L 80.00 185.65
  A 0.82 0.82 0.0 0 0 78.54 185.13
  Q 77.97 185.84 78.64 186.19
  Q 78.67 186.21 79.06 186.61"
/>
<path stroke="#3e3d3d" vector-effect="non-scaling-stroke" d="
  M 287.57 187.99
  Q 287.34 188.00 287.17 188.17
  A 0.40 0.31 -82.8 0 0 287.54 188.79
  L 288.79 187.60
  A 0.36 0.36 0.0 0 0 288.33 187.04
  Q 288.01 187.28 287.94 187.68
  Q 287.89 187.99 287.57 187.99"
/>
<path stroke="#3e3d3d" vector-effect="non-scaling-stroke" d="
  M 77.92 187.31
  Q 75.80 185.90 75.85 183.32
  A 0.40 0.40 0.0 0 0 75.06 183.21
  Q 74.55 185.09 75.83 186.37
  Q 76.33 186.86 75.63 186.96
  L 75.21 187.02
  A 0.24 0.24 0.0 0 0 75.00 187.30
  L 75.03 187.55
  A 0.29 0.28 71.0 0 0 75.45 187.76
  L 76.30 187.27
  Q 76.88 186.93 76.98 187.60
  Q 77.15 188.80 76.13 189.20
  A 0.16 0.16 0.0 0 0 76.08 189.46
  L 76.27 189.65
  Q 76.67 190.04 77.00 189.59
  L 78.07 188.18
  A 0.61 0.60 35.5 0 0 77.92 187.31"
/>
<path stroke="#3e3d3d" vector-effect="non-scaling-stroke" d="
  M 73.30 185.17
  Q 73.63 184.94 73.62 184.59
  Q 73.62 184.14 73.24 184.38
  Q 72.90 184.60 72.68 184.93
  Q 72.47 185.24 72.53 185.61
  Q 72.71 186.59 73.56 187.03
  A 0.30 0.30 0.0 0 0 73.92 186.56
  L 73.23 185.80
  Q 72.92 185.45 73.30 185.17"
/>
<path stroke="#3e3d3d" vector-effect="non-scaling-stroke" d="
  M 73.41 188.68
  Q 73.73 189.51 74.48 189.66
  Q 75.18 189.80 74.68 189.30
  L 73.80 188.42
  A 0.24 0.24 0.0 0 0 73.41 188.68"
/>
<path stroke="#706f6e" vector-effect="non-scaling-stroke" d="
  M 298.14 196.20
  C 297.77 197.12 298.28 198.27 299.11 198.69
  Q 299.61 198.94 299.46 198.40
  L 298.86 196.24
  A 0.38 0.38 0.0 0 0 298.14 196.20"
/>
<path stroke="#706f6e" vector-effect="non-scaling-stroke" d="
  M 61.98 197.68
  Q 61.88 198.27 62.29 198.67
  Q 62.71 199.08 62.82 198.51
  Q 63.09 196.99 61.61 196.24
  Q 61.22 196.05 61.25 196.48
  Q 61.27 196.78 61.65 197.00
  Q 62.05 197.23 61.98 197.68"
/>
<path stroke="#706f6e" vector-effect="non-scaling-stroke" d="
  M 59.20 199.55
  Q 60.06 199.71 60.56 198.81
  Q 60.94 198.11 60.25 198.50
  L 59.13 199.12
  A 0.23 0.23 0.0 0 0 59.20 199.55"
/>
<path stroke="#e5be4e" vector-effect="non-scaling-stroke" d="
  M 93.29 274.85
  Q 90.59 284.26 97.34 290.12
  Q 97.72 290.45 98.23 290.47
  C 112.88 291.16 130.02 292.79 144.38 290.06
  Q 144.89 289.97 145.21 289.57
  Q 150.79 282.71 148.02 274.92"
/>
<path stroke="#e7c35e" vector-effect="non-scaling-stroke" d="
  M 148.02 274.92
  C 138.62 256.01 103.45 257.22 93.29 274.85"
/>
<path stroke="#eed388" vector-effect="non-scaling-stroke" d="
  M 148.02 274.92
  Q 122.90 275.60 98.38 274.64
  A 1.43 1.43 0.0 0 0 97.58 274.84
  Q 95.00 276.29 93.29 274.85"
/>
<path stroke="#e7c35e" vector-effect="non-scaling-stroke" d="
  M 229.37 263.51
  Q 219.89 266.08 215.11 274.78"
/>
<path stroke="#e5be4e" vector-effect="non-scaling-stroke" d="
  M 215.11 274.78
  Q 211.97 283.45 218.64 290.07
  Q 218.99 290.42 219.49 290.45
  C 237.27 291.45 250.54 290.93 265.91 289.69
  A 1.32 1.31 18.0 0 0 266.76 289.26
  Q 272.49 282.78 269.82 275.15"
/>
<path stroke="#e7c35e" vector-effect="non-scaling-stroke" d="
  M 269.82 275.15
  Q 265.15 266.59 256.95 263.97"
/>
<path stroke="#efd692" vector-effect="non-scaling-stroke" d="
  M 256.95 263.97
  Q 243.08 258.90 229.37 263.51"
/>
<path stroke="#f8eccb" vector-effect="non-scaling-stroke" d="
  M 256.95 263.97
  Q 254.86 264.60 251.67 263.91
  Q 251.22 263.81 249.77 263.09
  Q 248.75 262.58 247.63 262.73
  C 243.97 263.20 240.25 262.98 236.56 263.01
  C 234.19 263.02 231.46 265.06 229.37 263.51"
/>
<path stroke="#eed388" vector-effect="non-scaling-stroke" d="
  M 269.82 275.15
  Q 267.07 275.07 264.48 274.86
  Q 261.58 274.63 259.14 274.74
  C 248.34 275.20 238.05 275.07 226.71 275.11
  Q 221.02 275.13 215.11 274.78"
/>
</g>
<path fill="#d4d4d4" d="
  M 317.51 218.78
  Q 317.75 216.18 318.58 214.17
  Q 318.79 213.66 318.68 213.33
  Q 318.52 212.82 318.03 212.65
  Q 319.69 204.66 315.25 198.23
  C 306.23 185.14 293.26 174.73 280.62 164.20
  C 272.14 157.13 264.93 149.91 262.79 138.73
  C 260.14 124.96 256.93 112.22 254.39 102.82
  C 249.87 86.07 242.24 71.00 228.80 60.49
  C 194.39 33.60 145.59 39.44 119.31 74.30
  Q 112.67 83.11 107.38 94.68
  C 103.30 103.60 101.78 112.92 100.83 122.60
  C 100.38 127.14 100.70 134.25 99.64 139.18
  C 96.88 152.03 84.65 161.47 74.94 169.68
  C 68.11 175.46 61.23 181.04 55.09 187.80
  C 48.27 195.30 38.32 206.03 45.56 216.60
  Q 44.43 216.95 44.76 217.88
  Q 44.92 218.30 45.58 218.81
  Q 47.55 220.30 46.59 221.14
  Q 42.07 217.88 41.07 214.42
  C 37.29 201.21 48.85 189.23 58.52 180.52
  Q 70.05 170.15 81.95 160.20
  C 94.86 149.41 98.51 140.06 98.84 123.58
  C 99.43 93.74 118.33 63.06 144.53 49.61
  C 181.34 30.71 232.82 43.81 249.87 83.84
  C 256.95 100.46 260.03 117.19 264.66 136.82
  C 266.33 143.91 268.46 148.89 273.72 154.34
  C 287.02 168.15 304.28 178.85 315.42 193.57
  C 320.45 200.22 323.60 211.39 317.51 218.78
  Z"
/>
<path fill="#ffffff" d="
  M 318.03 212.65
  C 315.30 219.85 307.99 221.24 301.30 219.89
  Q 298.69 219.36 295.34 216.99
  Q 287.57 211.50 279.18 207.07
  Q 278.66 206.79 278.63 207.38
  L 278.48 210.25
  C 276.33 227.89 273.38 241.65 263.42 256.69
  A 0.74 0.74 0.0 0 0 263.45 257.55
  Q 263.86 258.09 264.70 258.37
  C 277.37 265.28 286.96 276.44 286.99 291.62
  Q 286.99 292.09 287.43 292.25
  C 295.78 295.38 298.36 301.70 290.24 307.43
  Q 284.21 309.84 277.75 310.73
  Q 257.94 313.44 238.00 314.38
  C 189.14 316.71 145.88 316.21 101.04 312.81
  L 94.54 312.15
  C 85.80 311.06 67.78 309.82 66.02 300.35
  C 66.81 294.70 71.77 293.61 76.19 291.80
  Q 76.69 291.59 76.71 291.06
  C 77.24 275.60 85.30 266.71 97.89 259.03
  Q 99.05 258.62 99.61 257.94
  Q 99.98 257.49 99.66 256.99
  Q 85.08 234.61 84.11 207.80
  A 0.53 0.53 0.0 0 0 83.34 207.35
  Q 75.08 211.59 67.09 216.49
  C 59.74 220.99 52.57 222.14 45.56 216.60
  C 38.32 206.03 48.27 195.30 55.09 187.80
  C 61.23 181.04 68.11 175.46 74.94 169.68
  C 84.65 161.47 96.88 152.03 99.64 139.18
  C 100.70 134.25 100.38 127.14 100.83 122.60
  C 101.78 112.92 103.30 103.60 107.38 94.68
  Q 112.67 83.11 119.31 74.30
  C 145.59 39.44 194.39 33.60 228.80 60.49
  C 242.24 71.00 249.87 86.07 254.39 102.82
  C 256.93 112.22 260.14 124.96 262.79 138.73
  C 264.93 149.91 272.14 157.13 280.62 164.20
  C 293.26 174.73 306.23 185.14 315.25 198.23
  Q 319.69 204.66 318.03 212.65
  Z
  M 107.12 260.52
  C 93.05 266.86 78.18 278.21 82.90 295.87
  C 79.37 296.64 74.57 297.56 71.63 299.64
  A 0.67 0.67 0.0 0 0 71.52 300.63
  C 75.90 305.54 97.63 307.20 104.42 307.74
  C 149.43 311.31 195.12 311.00 240.19 308.94
  Q 258.51 308.10 280.47 304.57
  C 283.60 304.07 286.40 303.12 289.06 301.80
  A 1.51 1.51 0.0 0 0 288.87 299.02
  L 280.61 296.25
  C 285.40 278.31 270.59 266.45 255.93 260.45
  Q 274.51 236.53 274.32 206.63
  C 274.31 204.95 273.71 202.97 273.55 201.24
  Q 273.48 200.44 274.22 200.76
  Q 286.95 206.23 298.21 214.22
  C 303.90 218.25 314.47 217.64 314.59 208.45
  C 314.75 196.42 290.60 177.03 281.11 169.63
  C 271.22 161.92 261.99 153.39 259.48 141.76
  Q 254.60 119.16 249.76 101.01
  C 245.91 86.59 237.92 72.49 226.07 63.08
  C 199.38 41.90 160.58 42.47 134.44 64.13
  C 124.61 72.28 117.12 83.22 111.68 94.88
  C 106.58 105.83 104.15 119.68 104.05 131.51
  C 103.91 147.07 96.10 157.52 84.05 167.31
  C 75.58 174.20 42.56 199.05 47.37 211.92
  C 49.35 217.21 58.80 217.36 62.44 214.95
  Q 74.57 206.89 87.90 201.34
  A 0.42 0.42 0.0 0 1 88.48 201.80
  Q 88.01 204.72 88.11 207.75
  Q 89.08 237.18 107.12 260.52
  Z"
/>
<path fill="#040607" d="
  M 255.93 260.45
  L 251.55 259.04
  Q 259.95 248.61 264.32 235.71
  A 0.38 0.38 0.0 0 0 263.73 235.29
  L 253.72 243.12
  Q 258.12 217.22 250.30 194.50
  Q 241.00 165.54 216.17 149.46
  Q 215.75 149.19 215.27 149.32
  L 213.64 149.73
  L 205.20 150.16
  Q 204.59 149.43 204.22 148.09
  C 214.32 148.85 224.82 145.02 230.50 136.53
  C 236.07 128.20 235.32 116.76 228.13 109.60
  Q 216.97 98.47 200.01 101.85
  C 191.46 103.56 182.58 109.61 180.23 118.49
  Q 179.63 119.42 179.46 120.38
  A 0.28 0.28 0.0 0 0 179.94 120.63
  Q 180.35 120.23 180.53 118.58
  Q 181.68 115.67 184.06 114.56
  Q 184.47 114.37 184.90 115.03
  L 185.84 118.38
  L 186.30 122.13
  A 1.67 1.67 0.0 0 0 189.10 123.15
  Q 189.94 122.37 190.99 122.14
  Q 191.57 122.02 191.68 121.43
  Q 192.24 118.49 190.20 116.98
  Q 188.35 114.91 185.73 114.75
  Q 185.62 114.42 186.32 114.00
  C 200.12 114.13 192.93 145.14 181.77 133.20
  Q 181.06 132.28 180.75 131.04
  Q 181.27 130.50 181.74 130.99
  Q 182.77 132.06 184.08 131.99
  Q 184.65 131.95 184.48 131.41
  Q 183.59 128.50 181.58 126.30
  L 181.39 121.88
  A 0.53 0.53 0.0 0 0 180.36 121.75
  Q 179.54 124.52 180.37 127.07
  Q 179.32 129.65 180.28 130.90
  Q 180.34 132.27 181.24 133.28
  Q 182.53 136.85 184.92 138.64
  Q 184.90 139.54 184.22 139.58
  L 175.31 139.47
  Q 175.22 139.61 174.65 139.13
  L 176.04 135.97
  Q 176.35 135.25 175.65 135.61
  L 173.26 136.83
  Q 167.30 138.33 164.16 133.32
  Q 158.78 124.72 164.39 115.63
  Q 167.89 109.98 175.20 113.37
  L 177.75 116.16
  Q 178.26 116.71 178.15 115.97
  Q 176.53 105.63 169.86 97.74
  L 166.39 94.50
  Q 159.33 88.38 148.88 90.05
  Q 137.93 92.73 132.23 103.24
  Q 125.94 114.83 128.27 128.50
  C 130.67 142.63 140.36 155.03 155.75 153.98
  Q 156.94 154.93 157.10 156.33
  Q 149.62 157.08 142.08 154.09
  L 141.30 153.66
  Q 140.85 153.40 140.44 153.73
  C 114.26 174.89 103.76 208.46 108.96 241.26
  L 109.07 242.44
  L 98.76 233.94
  Q 97.99 233.31 98.32 234.25
  C 101.35 242.97 105.77 252.34 112.51 258.70
  L 107.12 260.52
  Q 89.08 237.18 88.11 207.75
  Q 88.01 204.72 88.48 201.80
  A 0.42 0.42 0.0 0 0 87.90 201.34
  Q 74.57 206.89 62.44 214.95
  C 58.80 217.36 49.35 217.21 47.37 211.92
  C 42.56 199.05 75.58 174.20 84.05 167.31
  C 96.10 157.52 103.91 147.07 104.05 131.51
  C 104.15 119.68 106.58 105.83 111.68 94.88
  C 117.12 83.22 124.61 72.28 134.44 64.13
  C 160.58 42.47 199.38 41.90 226.07 63.08
  C 237.92 72.49 245.91 86.59 249.76 101.01
  Q 254.60 119.16 259.48 141.76
  C 261.99 153.39 271.22 161.92 281.11 169.63
  C 290.60 177.03 314.75 196.42 314.59 208.45
  C 314.47 217.64 303.90 218.25 298.21 214.22
  Q 286.95 206.23 274.22 200.76
  Q 273.48 200.44 273.55 201.24
  C 273.71 202.97 274.31 204.95 274.32 206.63
  Q 274.51 236.53 255.93 260.45
  Z
  M 145.98 61.25
  L 138.74 67.53
  L 135.93 70.74
  L 132.17 75.99
  Q 129.07 80.87 127.17 86.52
  Q 125.49 91.59 125.20 96.98
  Q 125.18 97.44 124.97 97.84
  Q 124.60 98.54 124.65 99.27
  Q 124.72 100.35 125.14 99.36
  Q 128.70 91.18 135.42 85.60
  Q 151.21 73.06 168.73 83.23
  Q 177.85 89.89 182.31 100.03
  A 0.41 0.40 56.9 0 0 182.95 100.17
  C 198.12 86.17 224.86 87.48 235.94 106.35
  Q 236.20 106.80 236.26 106.28
  Q 237.65 93.90 232.92 82.70
  L 228.34 74.29
  Q 225.40 69.82 221.92 66.96
  Q 217.91 62.52 212.97 59.50
  C 192.33 46.58 165.92 47.13 145.98 61.25
  Z
  M 167.96 90.88
  Q 174.89 95.88 177.72 102.46
  Q 179.26 106.03 179.95 107.29
  Q 180.05 107.49 180.19 107.53
  Q 180.35 107.58 180.52 107.50
  Q 180.96 107.30 180.70 106.89
  Q 180.11 105.92 179.44 103.51
  Q 177.29 95.81 170.35 89.25
  C 152.43 74.27 132.84 86.21 127.06 105.65
  Q 127.05 105.69 127.08 105.71
  Q 127.21 105.78 127.33 105.73
  Q 127.43 105.68 127.48 105.54
  C 133.92 88.73 151.90 80.23 167.96 90.88
  Z
  M 230.39 104.85
  C 218.65 90.63 196.07 91.32 184.27 104.51
  Q 184.02 104.79 184.03 105.11
  A 0.18 0.18 0.0 0 0 184.32 105.25
  Q 201.83 93.00 222.23 100.50
  Q 226.62 102.11 230.16 105.20
  Q 230.26 105.28 230.35 105.24
  Q 230.42 105.22 230.45 105.17
  Q 230.55 105.04 230.39 104.85
  Z
  M 170.78 119.20
  L 170.99 120.75
  L 171.48 122.94
  Q 171.53 123.13 171.72 123.09
  Q 172.80 122.84 175.31 122.14
  Q 177.45 121.55 176.57 119.48
  L 176.09 118.47
  Q 174.08 114.59 170.12 114.39
  Q 169.44 114.36 169.62 115.01
  L 170.78 119.20
  Z
  M 164.13 126.78
  C 164.27 128.11 163.94 131.29 166.41 130.75
  A 1.78 1.78 0.0 0 0 167.77 128.59
  Q 167.34 126.80 165.58 125.62
  L 164.60 119.98
  Q 164.43 119.01 164.39 119.99
  L 164.13 126.78
  Z
  M 274.96 184.01
  Q 275.03 184.23 275.23 184.29
  L 276.21 185.31
  Q 276.76 185.89 277.47 185.43
  L 278.36 185.81
  L 280.91 188.03
  Q 281.10 188.28 281.75 188.42
  L 294.45 197.02
  L 309.33 206.80
  A 0.39 0.38 13.6 0 0 309.93 206.44
  C 309.36 201.18 303.94 194.81 300.23 191.20
  L 285.02 178.68
  L 273.81 169.44
  Q 273.41 169.11 272.90 169.23
  Q 271.79 169.51 271.08 168.74
  Q 270.79 168.42 270.64 168.01
  L 270.19 166.81
  A 0.31 0.26 -69.8 0 0 269.70 167.09
  Q 270.48 169.28 272.75 170.80
  Q 273.63 171.39 273.58 172.62
  Q 273.56 173.19 273.16 172.79
  L 271.92 171.54
  Q 271.55 171.18 271.18 171.54
  Q 268.73 173.92 267.71 177.15
  A 1.15 1.15 0.0 0 1 265.90 177.70
  Q 264.78 176.82 264.72 175.59
  Q 264.70 175.22 264.35 175.32
  Q 264.02 175.41 264.08 175.69
  Q 264.52 177.85 266.69 178.66
  Q 267.26 178.88 267.62 178.39
  L 267.98 177.89
  Q 268.60 177.05 268.74 178.09
  Q 268.82 178.67 268.43 178.97
  Q 267.99 179.32 268.48 179.59
  C 270.55 180.71 272.84 184.04 274.96 184.01
  Z
  M 267.69 168.06
  Q 267.89 169.11 268.71 169.75
  A 0.21 0.21 0.0 0 0 269.03 169.48
  L 267.85 167.45
  A 0.28 0.28 0.0 0 0 267.33 167.63
  Q 267.37 167.93 267.69 168.06
  Z
  M 95.51 172.27
  C 94.91 170.82 93.65 169.04 92.31 168.20
  Q 91.99 167.99 92.04 168.37
  Q 92.07 168.61 92.26 168.76
  C 93.52 169.77 94.39 172.13 95.19 172.56
  Q 95.75 172.85 95.51 172.27
  Z
  M 90.74 168.92
  Q 90.83 168.05 90.21 168.67
  L 89.62 169.26
  Q 89.15 169.73 89.81 169.76
  Q 90.66 169.79 90.74 168.92
  Z
  M 75.57 179.89
  L 61.49 191.43
  C 57.58 195.37 52.22 201.58 51.43 207.22
  A 0.29 0.29 0.0 0 0 51.87 207.50
  L 69.57 195.90
  L 81.41 187.71
  Q 82.64 187.92 83.50 186.56
  Q 84.20 185.44 84.34 185.88
  C 86.65 184.74 90.66 182.72 92.17 180.60
  Q 92.76 179.75 93.56 179.78
  A 1.37 1.36 -16.3 0 0 94.73 177.65
  C 93.13 175.28 94.63 171.98 92.11 170.77
  A 0.28 0.28 0.0 0 0 91.84 171.25
  Q 94.12 172.70 92.71 174.90
  Q 92.34 175.49 92.68 176.09
  L 94.06 178.56
  A 0.25 0.25 0.0 0 1 94.01 178.86
  L 93.80 179.07
  A 0.37 0.37 0.0 0 1 93.21 178.99
  L 91.13 175.41
  Q 90.96 175.13 91.24 174.94
  Q 91.39 174.84 91.51 174.72
  Q 91.71 174.53 91.77 174.20
  Q 92.20 171.70 89.80 171.07
  A 0.39 0.39 0.0 0 0 89.45 171.74
  L 90.69 172.81
  Q 91.21 173.26 90.78 173.80
  L 90.27 174.42
  A 0.45 0.45 0.0 0 1 89.48 174.02
  Q 89.83 172.70 88.24 172.04
  Q 87.60 171.77 88.09 171.29
  L 88.49 170.88
  Q 88.94 170.43 88.34 170.24
  Q 87.86 170.08 87.42 170.41
  Q 81.26 175.05 75.57 179.89
  Z
  M 267.90 171.25
  Q 267.22 171.19 267.60 171.76
  L 268.09 172.50
  Q 268.60 173.25 268.74 172.36
  Q 268.90 171.35 267.90 171.25
  Z
  M 265.88 172.81
  A 0.28 0.27 -28.5 0 0 265.36 172.66
  Q 265.00 173.41 265.34 174.31
  A 0.19 0.19 0.0 0 0 265.70 174.26
  L 265.88 172.81
  Z
  M 95.93 174.96
  Q 96.04 174.73 96.00 174.46
  A 0.34 0.34 0.0 0 0 95.33 174.49
  L 95.22 176.23
  A 0.25 0.25 0.0 0 0 95.72 176.29
  Q 95.81 175.81 95.82 175.38
  Q 95.83 175.16 95.93 174.96
  Z
  M 270.99 196.47
  A 0.76 0.76 0.0 0 0 271.78 197.51
  C 277.80 196.88 290.23 205.97 295.44 209.32
  C 297.79 210.83 300.76 211.37 303.16 213.18
  A 0.66 0.65 39.5 0 0 304.04 213.10
  Q 304.60 212.47 303.97 212.04
  Q 291.17 203.21 277.05 196.72
  C 275.57 196.03 274.33 195.82 272.76 195.46
  Q 271.51 195.18 270.99 196.47
  Z
  M 89.85 196.09
  Q 86.74 196.10 84.48 197.27
  C 79.20 199.99 73.53 202.36 68.73 205.30
  Q 62.62 209.05 56.62 213.21
  A 0.30 0.30 0.0 0 0 56.74 213.75
  Q 57.12 213.82 57.65 213.59
  Q 66.96 209.57 75.41 204.00
  C 78.98 201.63 82.76 199.96 86.49 197.85
  Q 86.95 197.59 87.44 197.79
  Q 89.23 198.54 90.31 196.95
  A 0.55 0.55 0.0 0 0 89.85 196.09
  Z"
/>
<path fill="#ffffff" d="
  M 212.97 59.50
  L 212.68 60.37
  A 0.57 0.57 0.0 0 1 211.86 60.68
  Q 201.19 54.65 194.29 53.46
  Q 191.03 52.90 179.23 52.74
  C 176.59 52.70 174.17 53.69 171.29 53.60
  Q 168.36 53.50 166.71 53.94
  C 160.40 55.60 153.26 57.55 147.94 61.44
  C 147.23 61.96 146.53 61.86 145.98 61.25
  C 165.92 47.13 192.33 46.58 212.97 59.50
  Z"
/>
<path fill="#d4d4d4" d="
  M 212.97 59.50
  Q 217.91 62.52 221.92 66.96
  L 214.16 62.68
  Q 213.75 62.45 213.33 62.65
  Q 211.56 63.50 209.25 63.49
  Q 191.53 63.45 153.57 63.74
  Q 151.61 63.75 147.36 62.84
  Q 146.89 62.74 146.47 62.97
  C 143.72 64.53 140.98 67.98 139.72 68.22
  Q 138.77 68.41 138.74 67.53
  L 145.98 61.25
  C 146.53 61.86 147.23 61.96 147.94 61.44
  C 153.26 57.55 160.40 55.60 166.71 53.94
  Q 168.36 53.50 171.29 53.60
  C 174.17 53.69 176.59 52.70 179.23 52.74
  Q 191.03 52.90 194.29 53.46
  Q 201.19 54.65 211.86 60.68
  A 0.57 0.57 0.0 0 0 212.68 60.37
  L 212.97 59.50
  Z"
/>
<path fill="#bfbebe" d="
  M 221.92 66.96
  Q 225.40 69.82 228.34 74.29
  Q 227.53 74.44 226.33 74.07
  Q 224.80 71.53 222.35 69.92
  Q 221.92 69.63 221.41 69.64
  Q 196.58 69.77 171.75 69.87
  Q 157.70 69.92 149.45 69.42
  C 146.62 69.24 143.66 70.35 140.27 68.83
  A 0.62 0.61 29.3 0 0 139.51 69.04
  Q 138.00 71.22 135.93 70.74
  L 138.74 67.53
  Q 138.77 68.41 139.72 68.22
  C 140.98 67.98 143.72 64.53 146.47 62.97
  Q 146.89 62.74 147.36 62.84
  Q 151.61 63.75 153.57 63.74
  Q 191.53 63.45 209.25 63.49
  Q 211.56 63.50 213.33 62.65
  Q 213.75 62.45 214.16 62.68
  L 221.92 66.96
  Z"
/>
<path fill="#b0afb0" d="
  M 226.33 74.07
  C 221.57 73.85 216.42 73.39 211.59 74.13
  C 208.48 74.61 204.94 74.02 202.79 73.99
  Q 188.24 73.78 173.69 73.64
  Q 170.82 73.61 168.53 73.90
  C 158.23 75.22 147.42 74.62 140.69 74.61
  Q 138.61 74.60 136.67 73.59
  Q 136.25 73.37 135.93 73.73
  Q 134.88 74.92 133.93 76.17
  Q 133.22 77.11 132.17 75.99
  L 135.93 70.74
  Q 138.00 71.22 139.51 69.04
  A 0.62 0.61 29.3 0 1 140.27 68.83
  C 143.66 70.35 146.62 69.24 149.45 69.42
  Q 157.70 69.92 171.75 69.87
  Q 196.58 69.77 221.41 69.64
  Q 221.92 69.63 222.35 69.92
  Q 224.80 71.53 226.33 74.07
  Z"
/>
<path fill="#a0a0a0" d="
  M 226.33 74.07
  Q 227.53 74.44 228.34 74.29
  L 232.92 82.70
  Q 230.59 83.08 229.89 80.94
  Q 229.72 80.43 229.23 80.63
  C 224.23 82.66 217.15 80.95 212.23 81.23
  Q 208.05 81.47 203.89 81.17
  C 193.41 80.43 182.86 80.70 172.37 80.95
  C 170.58 80.99 169.66 81.88 168.73 83.23
  Q 151.21 73.06 135.42 85.60
  Q 132.48 84.94 136.40 82.87
  Q 136.98 82.57 136.42 82.24
  Q 134.31 81.00 131.89 82.66
  Q 131.08 83.21 130.93 82.19
  Q 130.80 81.30 130.47 82.14
  L 128.76 86.42
  Q 128.64 86.73 128.30 86.76
  Q 127.65 86.82 127.17 86.52
  Q 129.07 80.87 132.17 75.99
  Q 133.22 77.11 133.93 76.17
  Q 134.88 74.92 135.93 73.73
  Q 136.25 73.37 136.67 73.59
  Q 138.61 74.60 140.69 74.61
  C 147.42 74.62 158.23 75.22 168.53 73.90
  Q 170.82 73.61 173.69 73.64
  Q 188.24 73.78 202.79 73.99
  C 204.94 74.02 208.48 74.61 211.59 74.13
  C 216.42 73.39 221.57 73.85 226.33 74.07
  Z"
/>
<path fill="#8f8e8d" d="
  M 232.92 82.70
  Q 237.65 93.90 236.26 106.28
  Q 236.20 106.80 235.94 106.35
  C 224.86 87.48 198.12 86.17 182.95 100.17
  A 0.41 0.40 56.9 0 1 182.31 100.03
  Q 177.85 89.89 168.73 83.23
  C 169.66 81.88 170.58 80.99 172.37 80.95
  C 182.86 80.70 193.41 80.43 203.89 81.17
  Q 208.05 81.47 212.23 81.23
  C 217.15 80.95 224.23 82.66 229.23 80.63
  Q 229.72 80.43 229.89 80.94
  Q 230.59 83.08 232.92 82.70
  Z"
/>
<path fill="#8f8e8d" d="
  M 135.42 85.60
  Q 128.70 91.18 125.14 99.36
  Q 124.72 100.35 124.65 99.27
  Q 124.60 98.54 124.97 97.84
  Q 125.18 97.44 125.20 96.98
  Q 125.49 91.59 127.17 86.52
  Q 127.65 86.82 128.30 86.76
  Q 128.64 86.73 128.76 86.42
  L 130.47 82.14
  Q 130.80 81.30 130.93 82.19
  Q 131.08 83.21 131.89 82.66
  Q 134.31 81.00 136.42 82.24
  Q 136.98 82.57 136.40 82.87
  Q 132.48 84.94 135.42 85.60
  Z"
/>
<path fill="#a0a0a0" d="
  M 170.35 89.25
  Q 169.67 90.30 167.96 90.88
  C 151.90 80.23 133.92 88.73 127.48 105.54
  Q 127.43 105.68 127.33 105.73
  Q 127.21 105.78 127.08 105.71
  Q 127.05 105.69 127.06 105.65
  C 132.84 86.21 152.43 74.27 170.35 89.25
  Z"
/>
<path fill="#8f8e8d" d="
  M 170.35 89.25
  Q 177.29 95.81 179.44 103.51
  Q 180.11 105.92 180.70 106.89
  Q 180.96 107.30 180.52 107.50
  Q 180.35 107.58 180.19 107.53
  Q 180.05 107.49 179.95 107.29
  Q 179.26 106.03 177.72 102.46
  Q 174.89 95.88 167.96 90.88
  Q 169.67 90.30 170.35 89.25
  Z"
/>
<path fill="#8f8e8d" d="
  M 166.39 94.50
  Q 158.31 91.07 151.78 90.15
  Q 150.33 90.47 148.88 90.05
  Q 159.33 88.38 166.39 94.50
  Z"
/>
<path fill="#a0a0a0" d="
  M 148.88 90.05
  Q 150.33 90.47 151.78 90.15
  Q 141.68 91.96 136.92 100.46
  L 131.89 109.31
  Q 131.65 109.74 131.54 110.21
  Q 130.87 113.27 130.48 116.37
  Q 130.42 116.84 130.08 117.17
  Q 129.23 117.98 129.44 119.77
  C 130.16 125.94 130.12 133.47 134.14 138.70
  C 135.20 140.07 135.44 141.76 136.31 142.92
  Q 138.34 145.64 141.08 147.74
  A 1.33 1.31 -29.3 0 0 142.03 148.00
  Q 142.91 147.91 143.15 148.75
  Q 143.31 149.34 143.89 149.55
  L 150.04 151.75
  A 0.59 0.59 0.0 0 0 150.46 151.75
  Q 153.12 150.80 155.69 152.13
  Q 156.32 153.04 155.75 153.98
  C 140.36 155.03 130.67 142.63 128.27 128.50
  Q 125.94 114.83 132.23 103.24
  Q 137.93 92.73 148.88 90.05
  Z"
/>
<path fill="#ffffff" d="
  M 151.78 90.15
  Q 158.31 91.07 166.39 94.50
  L 169.86 97.74
  C 168.31 100.35 170.65 102.57 172.12 104.83
  L 164.17 109.30
  Q 163.72 109.55 163.23 109.65
  L 162.10 109.86
  Q 161.62 109.96 161.38 110.38
  L 160.76 111.47
  Q 160.34 112.22 159.82 111.54
  C 158.01 109.20 156.71 106.70 154.21 105.13
  Q 146.42 100.25 136.92 100.46
  Q 141.68 91.96 151.78 90.15
  Z"
/>
<path fill="#8f8e8d" d="
  M 184.27 104.51
  C 196.07 91.32 218.65 90.63 230.39 104.85
  Q 230.55 105.04 230.45 105.17
  Q 230.42 105.22 230.35 105.24
  Q 230.26 105.28 230.16 105.20
  Q 226.62 102.11 222.23 100.50
  Q 201.83 93.00 184.32 105.25
  A 0.18 0.18 0.0 0 1 184.03 105.11
  Q 184.02 104.79 184.27 104.51
  Z"
/>
<path fill="#bfbebe" d="
  M 169.86 97.74
  Q 176.53 105.63 178.15 115.97
  Q 178.26 116.71 177.75 116.16
  L 175.20 113.37
  Q 174.78 111.77 174.59 110.37
  Q 174.35 108.71 173.69 107.53
  Q 172.75 105.87 172.12 104.83
  C 170.65 102.57 168.31 100.35 169.86 97.74
  Z"
/>
<path fill="#d4d4d4" d="
  M 136.92 100.46
  Q 146.42 100.25 154.21 105.13
  C 156.71 106.70 158.01 109.20 159.82 111.54
  Q 160.34 112.22 160.76 111.47
  L 161.38 110.38
  Q 161.62 109.96 162.10 109.86
  L 163.23 109.65
  Q 163.72 109.55 164.17 109.30
  L 172.12 104.83
  Q 172.75 105.87 173.69 107.53
  Q 174.35 108.71 174.59 110.37
  Q 174.78 111.77 175.20 113.37
  Q 167.89 109.98 164.39 115.63
  Q 158.78 124.72 164.16 133.32
  Q 167.30 138.33 173.26 136.83
  Q 173.24 138.06 171.62 139.80
  C 163.87 142.59 156.93 143.97 155.69 152.13
  Q 153.12 150.80 150.46 151.75
  A 0.59 0.59 0.0 0 1 150.04 151.75
  L 143.89 149.55
  Q 143.31 149.34 143.15 148.75
  Q 142.91 147.91 142.03 148.00
  A 1.33 1.31 -29.3 0 1 141.08 147.74
  Q 138.34 145.64 136.31 142.92
  C 135.44 141.76 135.20 140.07 134.14 138.70
  C 130.12 133.47 130.16 125.94 129.44 119.77
  Q 129.23 117.98 130.08 117.17
  Q 130.42 116.84 130.48 116.37
  Q 130.87 113.27 131.54 110.21
  Q 131.65 109.74 131.89 109.31
  L 136.92 100.46
  Z"
/>
<path fill="#a0a0a0" d="
  M 204.22 148.09
  Q 203.66 147.59 203.48 146.52
  C 206.83 146.08 210.43 146.41 213.39 145.68
  C 223.80 143.13 231.14 136.06 231.74 124.95
  Q 232.03 119.47 229.10 114.59
  Q 225.08 107.92 217.93 104.71
  Q 210.17 101.74 203.31 103.30
  Q 192.48 104.52 185.77 113.04
  Q 185.49 113.41 185.55 113.65
  Q 185.65 114.01 186.32 114.00
  Q 185.62 114.42 185.73 114.75
  Q 185.12 114.64 184.90 115.03
  Q 184.47 114.37 184.06 114.56
  Q 181.68 115.67 180.53 118.58
  Q 180.38 118.54 180.23 118.49
  C 182.58 109.61 191.46 103.56 200.01 101.85
  Q 216.97 98.47 228.13 109.60
  C 235.32 116.76 236.07 128.20 230.50 136.53
  C 224.82 145.02 214.32 148.85 204.22 148.09
  Z"
/>
<path fill="#ffffff" d="
  M 217.93 104.71
  L 212.30 107.65
  Q 211.97 107.82 211.76 107.51
  Q 211.30 106.84 211.94 106.20
  A 0.27 0.26 22.3 0 0 211.75 105.75
  L 211.39 105.75
  Q 210.91 105.75 210.83 106.22
  Q 210.61 107.43 211.15 108.20
  A 0.65 0.65 0.0 0 1 210.20 109.07
  L 203.31 103.30
  Q 210.17 101.74 217.93 104.71
  Z"
/>
<path fill="#d4d4d4" d="
  M 203.31 103.30
  L 210.20 109.07
  A 0.65 0.65 0.0 0 0 211.15 108.20
  Q 210.61 107.43 210.83 106.22
  Q 210.91 105.75 211.39 105.75
  L 211.75 105.75
  A 0.27 0.26 22.3 0 1 211.94 106.20
  Q 211.30 106.84 211.76 107.51
  Q 211.97 107.82 212.30 107.65
  L 217.93 104.71
  Q 225.08 107.92 229.10 114.59
  Q 232.03 119.47 231.74 124.95
  C 231.14 136.06 223.80 143.13 213.39 145.68
  C 210.43 146.41 206.83 146.08 203.48 146.52
  C 199.24 141.34 191.33 139.40 184.92 138.64
  Q 182.53 136.85 181.24 133.28
  L 181.77 133.20
  C 192.93 145.14 200.12 114.13 186.32 114.00
  Q 185.65 114.01 185.55 113.65
  Q 185.49 113.41 185.77 113.04
  Q 192.48 104.52 203.31 103.30
  Z"
/>
<path fill="#ffffff" d="
  M 176.09 118.47
  Q 175.21 118.61 174.87 117.94
  Q 174.64 117.50 174.15 117.38
  Q 172.02 116.85 170.78 119.20
  L 169.62 115.01
  Q 169.44 114.36 170.12 114.39
  Q 174.08 114.59 176.09 118.47
  Z"
/>
<path fill="#ffffff" d="
  M 185.73 114.75
  Q 188.35 114.91 190.20 116.98
  L 185.84 118.38
  L 184.90 115.03
  Q 185.12 114.64 185.73 114.75
  Z"
/>
<path fill="#514f4f" d="
  M 190.20 116.98
  Q 192.24 118.49 191.68 121.43
  Q 191.57 122.02 190.99 122.14
  Q 189.94 122.37 189.10 123.15
  A 1.67 1.67 0.0 0 1 186.30 122.13
  L 185.84 118.38
  L 190.20 116.98
  Z"
/>
<path fill="#8f8e8d" d="
  M 176.09 118.47
  L 176.57 119.48
  L 173.37 119.51
  Q 172.90 119.52 172.69 119.94
  Q 172.30 120.77 170.99 120.75
  L 170.78 119.20
  Q 172.02 116.85 174.15 117.38
  Q 174.64 117.50 174.87 117.94
  Q 175.21 118.61 176.09 118.47
  Z"
/>
<path fill="#514f4f" d="
  M 180.23 118.49
  Q 180.38 118.54 180.53 118.58
  Q 180.35 120.23 179.94 120.63
  A 0.28 0.28 0.0 0 1 179.46 120.38
  Q 179.63 119.42 180.23 118.49
  Z"
/>
<path fill="#514f4f" d="
  M 165.58 125.62
  Q 165.12 126.99 164.13 126.78
  L 164.39 119.99
  Q 164.43 119.01 164.60 119.98
  L 165.58 125.62
  Z"
/>
<path fill="#514f4f" d="
  M 176.57 119.48
  Q 177.45 121.55 175.31 122.14
  Q 172.80 122.84 171.72 123.09
  Q 171.53 123.13 171.48 122.94
  L 170.99 120.75
  Q 172.30 120.77 172.69 119.94
  Q 172.90 119.52 173.37 119.51
  L 176.57 119.48
  Z"
/>
<path fill="#514f4f" d="
  M 181.58 126.30
  Q 180.92 127.09 180.37 127.07
  Q 179.54 124.52 180.36 121.75
  A 0.53 0.53 0.0 0 1 181.39 121.88
  L 181.58 126.30
  Z"
/>
<path fill="#2b2b2b" d="
  M 165.58 125.62
  Q 167.34 126.80 167.77 128.59
  A 1.78 1.78 0.0 0 1 166.41 130.75
  C 163.94 131.29 164.27 128.11 164.13 126.78
  Q 165.12 126.99 165.58 125.62
  Z"
/>
<path fill="#2b2b2b" d="
  M 181.58 126.30
  Q 183.59 128.50 184.48 131.41
  Q 184.65 131.95 184.08 131.99
  Q 182.77 132.06 181.74 130.99
  Q 181.27 130.50 180.75 131.04
  Q 180.44 131.08 180.28 130.90
  Q 179.32 129.65 180.37 127.07
  Q 180.92 127.09 181.58 126.30
  Z"
/>
<path fill="#8f8e8d" d="
  M 180.28 130.90
  Q 180.44 131.08 180.75 131.04
  Q 181.06 132.28 181.77 133.20
  L 181.24 133.28
  Q 180.34 132.27 180.28 130.90
  Z"
/>
<path fill="#b0afb0" d="
  M 174.65 139.13
  Q 173.30 140.53 171.62 139.80
  Q 173.24 138.06 173.26 136.83
  L 175.65 135.61
  Q 176.35 135.25 176.04 135.97
  L 174.65 139.13
  Z"
/>
<path fill="#dead24" d="
  M 184.92 138.64
  C 191.33 139.40 199.24 141.34 203.48 146.52
  Q 203.66 147.59 204.22 148.09
  Q 204.59 149.43 205.20 150.16
  L 204.79 153.98
  A 1.56 1.54 68.3 0 1 204.44 154.81
  C 202.96 156.61 202.12 158.79 200.75 160.43
  Q 192.70 170.06 184.29 178.00
  A 3.43 3.42 -52.0 0 1 180.25 178.50
  C 171.02 173.30 163.39 164.67 157.10 156.33
  Q 156.94 154.93 155.75 153.98
  Q 156.32 153.04 155.69 152.13
  C 156.93 143.97 163.87 142.59 171.62 139.80
  Q 173.30 140.53 174.65 139.13
  Q 175.22 139.61 175.31 139.47
  Q 174.78 140.63 173.50 140.96
  L 166.28 143.19
  Q 165.58 143.41 166.23 143.76
  Q 168.52 144.98 171.06 144.63
  A 0.74 0.67 -38.3 0 1 171.35 144.65
  L 179.90 147.15
  Q 190.70 151.08 196.41 160.32
  A 1.26 1.25 -38.9 0 0 198.39 160.53
  Q 202.71 155.98 203.81 150.91
  C 201.15 143.85 195.03 140.93 187.47 140.18
  L 184.22 139.58
  Q 184.90 139.54 184.92 138.64
  Z
  M 178.45 172.84
  Q 167.95 162.39 160.55 154.45
  Q 159.60 153.42 160.47 152.39
  A 0.84 0.84 0.0 0 0 160.58 151.48
  L 159.50 149.32
  A 0.38 0.38 0.0 0 0 158.81 149.34
  Q 157.00 153.40 159.18 156.31
  C 164.08 162.84 172.78 172.32 181.34 176.88
  A 0.43 0.43 0.0 0 0 181.91 176.28
  C 181.06 174.82 179.32 173.69 178.45 172.84
  Z"
/>
<path fill="#f0d897" d="
  M 184.22 139.58
  L 187.47 140.18
  L 192.09 144.00
  Q 192.63 144.44 193.01 143.86
  Q 193.47 143.16 194.36 143.24
  A 0.39 0.38 29.0 0 1 194.56 143.93
  Q 193.83 144.47 194.05 145.47
  A 0.34 0.34 0.0 0 0 194.68 145.57
  L 195.45 144.23
  Q 195.62 143.94 195.92 144.08
  L 196.42 144.32
  Q 196.46 144.34 196.44 144.38
  Q 195.69 146.30 197.14 147.51
  Q 197.44 147.76 197.79 147.59
  L 198.14 147.42
  Q 198.59 147.21 198.99 147.50
  L 201.34 149.16
  Q 201.73 149.45 201.88 149.91
  Q 202.21 150.94 203.81 150.91
  Q 202.71 155.98 198.39 160.53
  A 1.26 1.25 -38.9 0 1 196.41 160.32
  Q 190.70 151.08 179.90 147.15
  Q 180.28 145.15 178.47 145.12
  Q 177.91 145.10 177.64 144.61
  Q 176.52 142.53 174.21 142.53
  A 0.64 0.64 0.0 0 1 173.57 141.93
  L 173.50 140.96
  Q 174.78 140.63 175.31 139.47
  L 184.22 139.58
  Z"
/>
<path fill="#ffffff" d="
  M 187.47 140.18
  C 195.03 140.93 201.15 143.85 203.81 150.91
  Q 202.21 150.94 201.88 149.91
  Q 201.73 149.45 201.34 149.16
  L 198.99 147.50
  Q 198.59 147.21 198.14 147.42
  L 197.79 147.59
  Q 197.44 147.76 197.14 147.51
  Q 195.69 146.30 196.44 144.38
  Q 196.46 144.34 196.42 144.32
  L 195.92 144.08
  Q 195.62 143.94 195.45 144.23
  L 194.68 145.57
  A 0.34 0.34 0.0 0 1 194.05 145.47
  Q 193.83 144.47 194.56 143.93
  A 0.39 0.38 29.0 0 0 194.36 143.24
  Q 193.47 143.16 193.01 143.86
  Q 192.63 144.44 192.09 144.00
  L 187.47 140.18
  Z"
/>
<path fill="#ebce78" d="
  M 173.50 140.96
  L 173.57 141.93
  A 0.64 0.64 0.0 0 0 174.21 142.53
  Q 176.52 142.53 177.64 144.61
  Q 177.91 145.10 178.47 145.12
  Q 180.28 145.15 179.90 147.15
  L 171.35 144.65
  A 0.74 0.67 -38.3 0 0 171.06 144.63
  Q 168.52 144.98 166.23 143.76
  Q 165.58 143.41 166.28 143.19
  L 173.50 140.96
  Z"
/>
<path fill="#f0d897" d="
  M 178.45 172.84
  C 179.32 173.69 181.06 174.82 181.91 176.28
  A 0.43 0.43 0.0 0 1 181.34 176.88
  C 172.78 172.32 164.08 162.84 159.18 156.31
  Q 157.00 153.40 158.81 149.34
  A 0.38 0.38 0.0 0 1 159.50 149.32
  L 160.58 151.48
  A 0.84 0.84 0.0 0 1 160.47 152.39
  Q 159.60 153.42 160.55 154.45
  Q 167.95 162.39 178.45 172.84
  Z"
/>
<path fill="#ffffff" d="
  M 250.30 194.50
  L 243.00 181.41
  Q 242.70 180.87 242.10 180.99
  Q 237.46 181.91 235.50 181.96
  Q 212.83 182.56 188.94 181.67
  C 194.84 175.42 204.35 166.53 204.28 158.06
  Q 204.28 157.46 204.86 157.29
  L 212.86 154.98
  A 0.61 0.61 0.0 0 0 213.30 154.44
  L 213.64 149.73
  L 215.27 149.32
  Q 215.75 149.19 216.17 149.46
  Q 241.00 165.54 250.30 194.50
  Z"
/>
<path fill="#a0a0a0" d="
  M 213.64 149.73
  L 213.30 154.44
  A 0.61 0.61 0.0 0 1 212.86 154.98
  L 204.86 157.29
  Q 204.28 157.46 204.28 158.06
  C 204.35 166.53 194.84 175.42 188.94 181.67
  Q 187.44 182.73 185.16 185.31
  C 181.52 189.41 178.22 186.61 174.46 183.95
  Q 164.85 176.04 156.68 165.02
  A 1.18 1.12 -12.1 0 0 155.94 164.57
  C 153.03 164.07 151.47 161.98 149.24 161.00
  C 145.81 159.49 143.18 158.51 142.08 154.09
  Q 149.62 157.08 157.10 156.33
  C 163.39 164.67 171.02 173.30 180.25 178.50
  A 3.43 3.42 -52.0 0 0 184.29 178.00
  Q 192.70 170.06 200.75 160.43
  C 202.12 158.79 202.96 156.61 204.44 154.81
  A 1.56 1.54 68.3 0 0 204.79 153.98
  L 205.20 150.16
  L 213.64 149.73
  Z"
/>
<path fill="#ffffff" d="
  M 142.08 154.09
  C 143.18 158.51 145.81 159.49 149.24 161.00
  C 151.47 161.98 153.03 164.07 155.94 164.57
  A 1.18 1.12 -12.1 0 1 156.68 165.02
  Q 164.85 176.04 174.46 183.95
  Q 149.61 184.67 124.03 183.61
  C 121.17 183.49 118.83 181.89 117.40 185.74
  C 115.97 189.57 113.74 193.15 112.96 197.20
  Q 111.96 202.45 110.69 207.67
  C 110.04 210.33 110.06 213.28 109.39 216.08
  C 108.41 220.24 108.39 229.61 109.39 233.77
  Q 110.21 237.22 109.87 240.83
  Q 109.82 241.37 108.96 241.26
  C 103.76 208.46 114.26 174.89 140.44 153.73
  Q 140.85 153.40 141.30 153.66
  L 142.08 154.09
  Z"
/>
<path fill="#2b2b2b" d="
  M 285.02 178.68
  L 284.87 181.11
  Q 284.68 180.99 284.42 181.13
  Q 283.92 181.40 284.32 181.81
  L 286.75 184.26
  Q 286.81 184.32 286.78 184.41
  Q 286.71 184.61 286.68 184.77
  Q 286.60 185.19 286.31 184.89
  L 283.74 182.26
  Q 283.47 181.99 283.22 182.28
  Q 283.08 182.45 283.32 182.69
  Q 284.98 184.32 286.48 186.11
  Q 286.85 186.56 286.43 186.96
  L 285.31 188.02
  Q 284.98 188.33 285.29 188.66
  Q 285.64 189.05 285.70 189.56
  Q 285.79 190.39 285.17 189.82
  Q 282.73 187.59 281.81 184.40
  A 0.27 0.27 0.0 0 0 281.29 184.42
  Q 281.04 185.55 281.79 186.46
  A 1.06 1.04 -58.4 0 1 282.00 187.37
  L 281.75 188.42
  Q 281.10 188.28 280.91 188.03
  Q 280.94 184.45 278.36 185.81
  L 277.47 185.43
  Q 278.32 184.76 277.94 184.31
  Q 277.35 183.63 276.21 185.31
  L 275.23 184.29
  Q 276.22 184.33 275.98 183.39
  A 0.47 0.46 -29.0 0 0 275.20 183.17
  L 274.95 183.42
  Q 274.82 183.55 274.88 183.72
  L 274.96 184.01
  C 272.84 184.04 270.55 180.71 268.48 179.59
  Q 267.99 179.32 268.43 178.97
  Q 268.82 178.67 268.74 178.09
  Q 268.60 177.05 267.98 177.89
  L 267.62 178.39
  Q 267.26 178.88 266.69 178.66
  Q 264.52 177.85 264.08 175.69
  Q 264.02 175.41 264.35 175.32
  Q 264.70 175.22 264.72 175.59
  Q 264.78 176.82 265.90 177.70
  A 1.15 1.15 0.0 0 0 267.71 177.15
  Q 268.73 173.92 271.18 171.54
  Q 271.55 171.18 271.92 171.54
  L 273.16 172.79
  Q 273.56 173.19 273.58 172.62
  Q 273.63 171.39 272.75 170.80
  Q 270.48 169.28 269.70 167.09
  A 0.31 0.26 -69.8 0 1 270.19 166.81
  L 270.64 168.01
  Q 270.79 168.42 271.08 168.74
  Q 271.79 169.51 272.90 169.23
  Q 273.41 169.11 273.81 169.44
  L 285.02 178.68
  Z
  M 286.00 186.34
  L 279.44 180.06
  A 0.11 0.01 41.4 0 0 279.34 179.99
  Q 279.28 180.15 279.23 180.30
  Q 279.16 180.53 279.33 180.70
  L 283.56 184.94
  A 1.50 1.45 -68.5 0 1 284.00 186.00
  L 284.00 187.34
  A 0.52 0.52 0.0 0 0 284.89 187.71
  L 286.00 186.60
  A 0.18 0.18 0.0 0 0 286.00 186.34
  Z"
/>
<path fill="#2b2b2b" d="
  M 267.69 168.06
  Q 267.37 167.93 267.33 167.63
  A 0.28 0.28 0.0 0 1 267.85 167.45
  L 269.03 169.48
  A 0.21 0.21 0.0 0 1 268.71 169.75
  Q 267.89 169.11 267.69 168.06
  Z"
/>
<path fill="#2b2b2b" d="
  M 92.31 168.20
  C 93.65 169.04 94.91 170.82 95.51 172.27
  Q 95.75 172.85 95.19 172.56
  C 94.39 172.13 93.52 169.77 92.26 168.76
  Q 92.07 168.61 92.04 168.37
  Q 91.99 167.99 92.31 168.20
  Z"
/>
<path fill="#2b2b2b" d="
  M 90.74 168.92
  Q 90.66 169.79 89.81 169.76
  Q 89.15 169.73 89.62 169.26
  L 90.21 168.67
  Q 90.83 168.05 90.74 168.92
  Z"
/>
<path fill="#2b2b2b" d="
  M 84.34 185.88
  Q 84.23 185.33 84.00 185.11
  Q 83.54 184.65 83.19 185.20
  Q 82.62 186.08 83.50 186.56
  Q 82.64 187.92 81.41 187.71
  L 82.01 185.35
  Q 82.10 185.00 81.74 185.00
  Q 81.59 185.00 81.45 185.00
  Q 81.04 185.01 81.04 185.42
  Q 81.03 186.98 80.72 187.18
  A 2.54 2.46 77.9 0 1 76.94 184.65
  Q 77.17 182.96 75.35 181.89
  Q 74.95 181.66 75.23 181.29
  Q 76.23 179.96 75.57 179.89
  Q 81.26 175.05 87.42 170.41
  Q 87.86 170.08 88.34 170.24
  Q 88.94 170.43 88.49 170.88
  L 88.09 171.29
  Q 87.60 171.77 88.24 172.04
  Q 89.83 172.70 89.48 174.02
  A 0.45 0.45 0.0 0 0 90.27 174.42
  L 90.78 173.80
  Q 91.21 173.26 90.69 172.81
  L 89.45 171.74
  A 0.39 0.39 0.0 0 1 89.80 171.07
  Q 92.20 171.70 91.77 174.20
  Q 91.71 174.53 91.51 174.72
  Q 91.39 174.84 91.24 174.94
  Q 90.96 175.13 91.13 175.41
  L 93.21 178.99
  A 0.37 0.37 0.0 0 0 93.80 179.07
  L 94.01 178.86
  A 0.25 0.25 0.0 0 0 94.06 178.56
  L 92.68 176.09
  Q 92.34 175.49 92.71 174.90
  Q 94.12 172.70 91.84 171.25
  A 0.28 0.28 0.0 0 1 92.11 170.77
  C 94.63 171.98 93.13 175.28 94.73 177.65
  A 1.37 1.36 -16.3 0 1 93.56 179.78
  Q 92.76 179.75 92.17 180.60
  C 90.66 182.72 86.65 184.74 84.34 185.88
  Z
  M 78.99 182.90
  Q 80.08 183.93 80.72 183.99
  A 0.23 0.22 -15.1 0 0 80.93 183.63
  Q 79.72 182.08 78.99 182.90
  Q 78.13 182.96 77.43 182.04
  A 0.26 0.26 0.0 0 0 76.97 182.28
  Q 77.33 183.40 78.45 183.77
  Q 79.03 183.95 79.00 183.35
  L 78.99 182.90
  Z
  M 79.06 186.61
  Q 79.16 186.72 79.36 186.75
  Q 80.00 186.87 80.00 186.22
  L 80.00 185.65
  A 0.82 0.82 0.0 0 0 78.54 185.13
  Q 77.97 185.84 78.64 186.19
  Q 78.67 186.21 79.06 186.61
  Z"
/>
<path fill="#2b2b2b" d="
  M 267.90 171.25
  Q 268.90 171.35 268.74 172.36
  Q 268.60 173.25 268.09 172.50
  L 267.60 171.76
  Q 267.22 171.19 267.90 171.25
  Z"
/>
<path fill="#2b2b2b" d="
  M 265.88 172.81
  L 265.70 174.26
  A 0.19 0.19 0.0 0 1 265.34 174.31
  Q 265.00 173.41 265.36 172.66
  A 0.28 0.27 -28.5 0 1 265.88 172.81
  Z"
/>
<path fill="#2b2b2b" d="
  M 95.82 175.38
  Q 95.81 175.81 95.72 176.29
  A 0.25 0.25 0.0 0 1 95.22 176.23
  L 95.33 174.49
  A 0.34 0.34 0.0 0 1 96.00 174.46
  Q 96.04 174.73 95.93 174.96
  Q 95.83 175.16 95.82 175.38
  Z"
/>
<path fill="#514f4f" d="
  M 285.02 178.68
  L 300.23 191.20
  Q 299.47 191.32 299.07 192.06
  A 0.72 0.72 0.0 0 0 299.84 193.12
  L 300.51 192.99
  A 0.34 0.34 0.0 0 1 300.84 193.53
  Q 300.37 194.15 299.65 194.02
  Q 299.30 193.96 299.13 193.65
  Q 298.36 192.31 297.11 192.18
  A 0.22 0.21 -20.8 0 0 296.94 192.55
  L 299.27 194.73
  Q 299.64 195.07 300.13 195.04
  Q 301.77 194.91 302.51 196.23
  Q 302.67 196.52 302.47 196.76
  Q 302.19 197.09 302.02 196.70
  Q 301.62 195.78 300.58 196.00
  Q 300.11 196.10 299.69 195.85
  L 298.91 195.39
  Q 298.55 195.17 298.21 195.44
  L 296.65 196.68
  Q 296.09 197.11 296.04 196.41
  L 295.98 195.68
  Q 295.94 195.14 295.43 195.32
  Q 294.44 195.66 294.45 197.02
  L 281.75 188.42
  L 282.00 187.37
  A 1.06 1.04 -58.4 0 0 281.79 186.46
  Q 281.04 185.55 281.29 184.42
  A 0.27 0.27 0.0 0 1 281.81 184.40
  Q 282.73 187.59 285.17 189.82
  Q 285.79 190.39 285.70 189.56
  Q 285.64 189.05 285.29 188.66
  Q 284.98 188.33 285.31 188.02
  L 286.43 186.96
  Q 286.85 186.56 286.48 186.11
  Q 284.98 184.32 283.32 182.69
  Q 283.08 182.45 283.22 182.28
  Q 283.47 181.99 283.74 182.26
  L 286.31 184.89
  Q 286.60 185.19 286.68 184.77
  Q 286.71 184.61 286.78 184.41
  Q 286.81 184.32 286.75 184.26
  L 284.32 181.81
  Q 283.92 181.40 284.42 181.13
  Q 284.68 180.99 284.87 181.11
  L 289.29 185.69
  A 0.20 0.20 0.0 0 0 289.58 185.42
  L 287.23 182.94
  A 0.62 0.60 -72.6 0 1 287.06 182.60
  Q 286.70 180.70 284.87 181.11
  L 285.02 178.68
  Z
  M 287.57 187.99
  Q 287.34 188.00 287.17 188.17
  A 0.40 0.31 -82.8 0 0 287.54 188.79
  L 288.79 187.60
  A 0.36 0.36 0.0 0 0 288.33 187.04
  Q 288.01 187.28 287.94 187.68
  Q 287.89 187.99 287.57 187.99
  Z"
/>
<path fill="#514f4f" d="
  M 75.57 179.89
  Q 76.23 179.96 75.23 181.29
  Q 74.95 181.66 75.35 181.89
  Q 77.17 182.96 76.94 184.65
  A 2.54 2.46 77.9 0 0 80.72 187.18
  Q 81.03 186.98 81.04 185.42
  Q 81.04 185.01 81.45 185.00
  Q 81.59 185.00 81.74 185.00
  Q 82.10 185.00 82.01 185.35
  L 81.41 187.71
  L 69.57 195.90
  Q 68.95 194.39 66.90 196.71
  A 0.46 0.45 42.5 0 1 66.24 196.73
  L 65.47 195.95
  A 0.48 0.47 -82.8 0 0 64.73 196.53
  Q 65.03 197.05 64.85 197.56
  Q 64.69 197.98 64.36 197.67
  L 62.96 196.32
  A 0.97 0.97 0.0 0 1 62.93 194.95
  L 64.80 193.05
  A 0.48 0.48 0.0 0 0 64.13 192.37
  L 61.28 195.01
  A 0.21 0.20 82.7 0 1 60.96 194.76
  Q 62.42 192.00 61.49 191.43
  L 75.57 179.89
  Z
  M 77.92 187.31
  Q 75.80 185.90 75.85 183.32
  A 0.40 0.40 0.0 0 0 75.06 183.21
  Q 74.55 185.09 75.83 186.37
  Q 76.33 186.86 75.63 186.96
  L 75.21 187.02
  A 0.24 0.24 0.0 0 0 75.00 187.30
  L 75.03 187.55
  A 0.29 0.28 71.0 0 0 75.45 187.76
  L 76.30 187.27
  Q 76.88 186.93 76.98 187.60
  Q 77.15 188.80 76.13 189.20
  A 0.16 0.16 0.0 0 0 76.08 189.46
  L 76.27 189.65
  Q 76.67 190.04 77.00 189.59
  L 78.07 188.18
  A 0.61 0.60 35.5 0 0 77.92 187.31
  Z
  M 73.30 185.17
  Q 73.63 184.94 73.62 184.59
  Q 73.62 184.14 73.24 184.38
  Q 72.90 184.60 72.68 184.93
  Q 72.47 185.24 72.53 185.61
  Q 72.71 186.59 73.56 187.03
  A 0.30 0.30 0.0 0 0 73.92 186.56
  L 73.23 185.80
  Q 72.92 185.45 73.30 185.17
  Z
  M 73.41 188.68
  Q 73.73 189.51 74.48 189.66
  Q 75.18 189.80 74.68 189.30
  L 73.80 188.42
  A 0.24 0.24 0.0 0 0 73.41 188.68
  Z"
/>
<path fill="#514f4f" d="
  M 286.00 186.34
  A 0.18 0.18 0.0 0 1 286.00 186.60
  L 284.89 187.71
  A 0.52 0.52 0.0 0 1 284.00 187.34
  L 284.00 186.00
  A 1.50 1.45 -68.5 0 0 283.56 184.94
  L 279.33 180.70
  Q 279.16 180.53 279.23 180.30
  Q 279.28 180.15 279.34 179.99
  A 0.11 0.01 41.4 0 1 279.44 180.06
  L 286.00 186.34
  Z"
/>
<path fill="#d4d4d4" d="
  M 188.94 181.67
  Q 212.83 182.56 235.50 181.96
  Q 237.46 181.91 242.10 180.99
  Q 242.70 180.87 243.00 181.41
  L 250.30 194.50
  Q 258.12 217.22 253.72 243.12
  L 249.52 258.54
  L 243.27 257.28
  Q 243.26 256.96 242.74 256.95
  C 246.69 241.69 250.82 228.24 250.26 211.20
  C 250.20 209.50 249.60 207.32 249.79 205.27
  Q 249.84 204.70 249.33 204.46
  Q 248.31 204.00 248.29 203.00
  Q 248.28 202.38 247.85 202.81
  Q 247.06 203.58 246.57 203.58
  C 240.29 203.65 233.32 202.97 227.80 202.91
  Q 177.80 202.42 127.81 202.94
  Q 125.62 202.96 123.63 203.75
  Q 123.21 203.92 122.76 203.85
  Q 121.37 203.62 119.92 203.75
  Q 119.26 203.82 118.86 203.14
  Q 118.46 202.45 118.14 203.18
  L 117.76 204.06
  Q 117.67 204.27 117.46 204.19
  L 116.30 203.77
  A 0.31 0.31 0.0 0 0 115.88 204.06
  L 115.87 204.51
  Q 115.87 205.23 115.39 204.68
  L 113.95 202.99
  A 0.59 0.59 0.0 0 0 112.92 203.31
  Q 111.51 217.03 113.73 229.26
  Q 115.90 241.22 120.47 257.33
  L 113.67 258.55
  L 109.07 242.44
  L 108.96 241.26
  Q 109.82 241.37 109.87 240.83
  Q 110.21 237.22 109.39 233.77
  C 108.39 229.61 108.41 220.24 109.39 216.08
  C 110.06 213.28 110.04 210.33 110.69 207.67
  Q 111.96 202.45 112.96 197.20
  C 113.74 193.15 115.97 189.57 117.40 185.74
  C 118.83 181.89 121.17 183.49 124.03 183.61
  Q 149.61 184.67 174.46 183.95
  C 178.22 186.61 181.52 189.41 185.16 185.31
  Q 187.44 182.73 188.94 181.67
  Z"
/>
<path fill="#2b2b2b" d="
  M 284.87 181.11
  Q 286.70 180.70 287.06 182.60
  A 0.62 0.60 -72.6 0 0 287.23 182.94
  L 289.58 185.42
  A 0.20 0.20 0.0 0 1 289.29 185.69
  L 284.87 181.11
  Z"
/>
<path fill="#514f4f" d="
  M 78.99 182.90
  L 79.00 183.35
  Q 79.03 183.95 78.45 183.77
  Q 77.33 183.40 76.97 182.28
  A 0.26 0.26 0.0 0 1 77.43 182.04
  Q 78.13 182.96 78.99 182.90
  Z"
/>
<path fill="#514f4f" d="
  M 78.99 182.90
  Q 79.72 182.08 80.93 183.63
  A 0.23 0.22 -15.1 0 1 80.72 183.99
  Q 80.08 183.93 78.99 182.90
  Z"
/>
<path fill="#2b2b2b" d="
  M 77.92 187.31
  A 0.61 0.60 35.5 0 1 78.07 188.18
  L 77.00 189.59
  Q 76.67 190.04 76.27 189.65
  L 76.08 189.46
  A 0.16 0.16 0.0 0 1 76.13 189.20
  Q 77.15 188.80 76.98 187.60
  Q 76.88 186.93 76.30 187.27
  L 75.45 187.76
  A 0.29 0.28 71.0 0 1 75.03 187.55
  L 75.00 187.30
  A 0.24 0.24 0.0 0 1 75.21 187.02
  L 75.63 186.96
  Q 76.33 186.86 75.83 186.37
  Q 74.55 185.09 75.06 183.21
  A 0.40 0.40 0.0 0 1 75.85 183.32
  Q 75.80 185.90 77.92 187.31
  Z"
/>
<path fill="#514f4f" d="
  M 275.23 184.29
  Q 275.03 184.23 274.96 184.01
  L 274.88 183.72
  Q 274.82 183.55 274.95 183.42
  L 275.20 183.17
  A 0.47 0.46 -29.0 0 1 275.98 183.39
  Q 276.22 184.33 275.23 184.29
  Z"
/>
<path fill="#514f4f" d="
  M 277.47 185.43
  Q 276.76 185.89 276.21 185.31
  Q 277.35 183.63 277.94 184.31
  Q 278.32 184.76 277.47 185.43
  Z"
/>
<path fill="#2b2b2b" d="
  M 73.23 185.80
  L 73.92 186.56
  A 0.30 0.30 0.0 0 1 73.56 187.03
  Q 72.71 186.59 72.53 185.61
  Q 72.47 185.24 72.68 184.93
  Q 72.90 184.60 73.24 184.38
  Q 73.62 184.14 73.62 184.59
  Q 73.63 184.94 73.30 185.17
  Q 72.92 185.45 73.23 185.80
  Z"
/>
<path fill="#514f4f" d="
  M 78.64 186.19
  Q 77.97 185.84 78.54 185.13
  A 0.82 0.82 0.0 0 1 80.00 185.65
  L 80.00 186.22
  Q 80.00 186.87 79.36 186.75
  Q 79.16 186.72 79.06 186.61
  Q 78.67 186.21 78.64 186.19
  Z"
/>
<path fill="#514f4f" d="
  M 84.34 185.88
  Q 84.20 185.44 83.50 186.56
  Q 82.62 186.08 83.19 185.20
  Q 83.54 184.65 84.00 185.11
  Q 84.23 185.33 84.34 185.88
  Z"
/>
<path fill="#514f4f" d="
  M 280.91 188.03
  L 278.36 185.81
  Q 280.94 184.45 280.91 188.03
  Z"
/>
<path fill="#2b2b2b" d="
  M 287.94 187.68
  Q 288.01 187.28 288.33 187.04
  A 0.36 0.36 0.0 0 1 288.79 187.60
  L 287.54 188.79
  A 0.40 0.31 -82.8 0 1 287.17 188.17
  Q 287.34 188.00 287.57 187.99
  Q 287.89 187.99 287.94 187.68
  Z"
/>
<path fill="#2b2b2b" d="
  M 73.80 188.42
  L 74.68 189.30
  Q 75.18 189.80 74.48 189.66
  Q 73.73 189.51 73.41 188.68
  A 0.24 0.24 0.0 0 1 73.80 188.42
  Z"
/>
<path fill="#8f8e8d" d="
  M 300.23 191.20
  C 303.94 194.81 309.36 201.18 309.93 206.44
  A 0.39 0.38 13.6 0 1 309.33 206.80
  L 294.45 197.02
  Q 294.44 195.66 295.43 195.32
  Q 295.94 195.14 295.98 195.68
  L 296.04 196.41
  Q 296.09 197.11 296.65 196.68
  L 298.21 195.44
  Q 298.55 195.17 298.91 195.39
  L 299.69 195.85
  Q 300.11 196.10 300.58 196.00
  Q 301.62 195.78 302.02 196.70
  Q 302.19 197.09 302.47 196.76
  Q 302.67 196.52 302.51 196.23
  Q 301.77 194.91 300.13 195.04
  Q 299.64 195.07 299.27 194.73
  L 296.94 192.55
  A 0.22 0.21 -20.8 0 1 297.11 192.18
  Q 298.36 192.31 299.13 193.65
  Q 299.30 193.96 299.65 194.02
  Q 300.37 194.15 300.84 193.53
  A 0.34 0.34 0.0 0 0 300.51 192.99
  L 299.84 193.12
  A 0.72 0.72 0.0 0 1 299.07 192.06
  Q 299.47 191.32 300.23 191.20
  Z
  M 298.14 196.20
  C 297.77 197.12 298.28 198.27 299.11 198.69
  Q 299.61 198.94 299.46 198.40
  L 298.86 196.24
  A 0.38 0.38 0.0 0 0 298.14 196.20
  Z"
/>
<path fill="#8f8e8d" d="
  M 61.49 191.43
  Q 62.42 192.00 60.96 194.76
  A 0.21 0.20 82.7 0 0 61.28 195.01
  L 64.13 192.37
  A 0.48 0.48 0.0 0 1 64.80 193.05
  L 62.93 194.95
  A 0.97 0.97 0.0 0 0 62.96 196.32
  L 64.36 197.67
  Q 64.69 197.98 64.85 197.56
  Q 65.03 197.05 64.73 196.53
  A 0.48 0.47 -82.8 0 1 65.47 195.95
  L 66.24 196.73
  A 0.46 0.45 42.5 0 0 66.90 196.71
  Q 68.95 194.39 69.57 195.90
  L 51.87 207.50
  A 0.29 0.29 0.0 0 1 51.43 207.22
  C 52.22 201.58 57.58 195.37 61.49 191.43
  Z
  M 61.98 197.68
  Q 61.88 198.27 62.29 198.67
  Q 62.71 199.08 62.82 198.51
  Q 63.09 196.99 61.61 196.24
  Q 61.22 196.05 61.25 196.48
  Q 61.27 196.78 61.65 197.00
  Q 62.05 197.23 61.98 197.68
  Z
  M 59.20 199.55
  Q 60.06 199.71 60.56 198.81
  Q 60.94 198.11 60.25 198.50
  L 59.13 199.12
  A 0.23 0.23 0.0 0 0 59.20 199.55
  Z"
/>
<path fill="#514f4f" d="
  M 270.99 196.47
  Q 271.51 195.18 272.76 195.46
  C 274.33 195.82 275.57 196.03 277.05 196.72
  Q 291.17 203.21 303.97 212.04
  Q 304.60 212.47 304.04 213.10
  A 0.66 0.65 39.5 0 1 303.16 213.18
  C 300.76 211.37 297.79 210.83 295.44 209.32
  C 290.23 205.97 277.80 196.88 271.78 197.51
  A 0.76 0.76 0.0 0 1 270.99 196.47
  Z"
/>
<path fill="#514f4f" d="
  M 61.65 197.00
  Q 61.27 196.78 61.25 196.48
  Q 61.22 196.05 61.61 196.24
  Q 63.09 196.99 62.82 198.51
  Q 62.71 199.08 62.29 198.67
  Q 61.88 198.27 61.98 197.68
  Q 62.05 197.23 61.65 197.00
  Z"
/>
<path fill="#514f4f" d="
  M 89.85 196.09
  A 0.55 0.55 0.0 0 1 90.31 196.95
  Q 89.23 198.54 87.44 197.79
  Q 86.95 197.59 86.49 197.85
  C 82.76 199.96 78.98 201.63 75.41 204.00
  Q 66.96 209.57 57.65 213.59
  Q 57.12 213.82 56.74 213.75
  A 0.30 0.30 0.0 0 1 56.62 213.21
  Q 62.62 209.05 68.73 205.30
  C 73.53 202.36 79.20 199.99 84.48 197.27
  Q 86.74 196.10 89.85 196.09
  Z"
/>
<path fill="#514f4f" d="
  M 299.11 198.69
  C 298.28 198.27 297.77 197.12 298.14 196.20
  A 0.38 0.38 0.0 0 1 298.86 196.24
  L 299.46 198.40
  Q 299.61 198.94 299.11 198.69
  Z"
/>
<path fill="#514f4f" d="
  M 59.20 199.55
  A 0.23 0.23 0.0 0 1 59.13 199.12
  L 60.25 198.50
  Q 60.94 198.11 60.56 198.81
  Q 60.06 199.71 59.20 199.55
  Z"
/>
<path fill="#bfbebe" d="
  M 242.74 256.95
  C 227.38 253.56 210.28 256.34 197.14 265.12
  C 187.87 271.31 181.14 282.85 184.29 294.21
  Q 181.77 294.70 179.66 294.19
  C 182.41 280.46 173.63 269.07 162.13 262.90
  Q 147.37 254.98 130.63 256.63
  L 120.47 257.33
  Q 115.90 241.22 113.73 229.26
  Q 111.51 217.03 112.92 203.31
  A 0.59 0.59 0.0 0 1 113.95 202.99
  L 115.39 204.68
  Q 115.87 205.23 115.87 204.51
  L 115.88 204.06
  A 0.31 0.31 0.0 0 1 116.30 203.77
  L 117.46 204.19
  Q 117.67 204.27 117.76 204.06
  L 118.14 203.18
  Q 118.46 202.45 118.86 203.14
  Q 119.26 203.82 119.92 203.75
  Q 121.37 203.62 122.76 203.85
  Q 123.21 203.92 123.63 203.75
  Q 125.62 202.96 127.81 202.94
  Q 177.80 202.42 227.80 202.91
  C 233.32 202.97 240.29 203.65 246.57 203.58
  Q 247.06 203.58 247.85 202.81
  Q 248.28 202.38 248.29 203.00
  Q 248.31 204.00 249.33 204.46
  Q 249.84 204.70 249.79 205.27
  C 249.60 207.32 250.20 209.50 250.26 211.20
  C 250.82 228.24 246.69 241.69 242.74 256.95
  Z"
/>
<path fill="#a0a0a0" d="
  M 318.03 212.65
  Q 318.52 212.82 318.68 213.33
  Q 318.79 213.66 318.58 214.17
  Q 317.75 216.18 317.51 218.78
  Q 311.07 223.66 301.95 222.57
  C 295.68 221.82 287.17 214.38 282.47 210.28
  Q 281.62 209.54 280.17 210.28
  L 278.48 210.25
  L 278.63 207.38
  Q 278.66 206.79 279.18 207.07
  Q 287.57 211.50 295.34 216.99
  Q 298.69 219.36 301.30 219.89
  C 307.99 221.24 315.30 219.85 318.03 212.65
  Z"
/>
<path fill="#a0a0a0" d="
  M 97.89 259.03
  Q 96.52 257.52 96.90 257.37
  Q 94.09 252.00 91.38 246.69
  C 85.59 235.36 82.85 223.88 82.54 211.05
  A 0.72 0.72 0.0 0 0 81.41 210.48
  C 72.38 216.87 58.33 228.17 46.59 221.14
  Q 47.55 220.30 45.58 218.81
  Q 44.92 218.30 44.76 217.88
  Q 44.43 216.95 45.56 216.60
  C 52.57 222.14 59.74 220.99 67.09 216.49
  Q 75.08 211.59 83.34 207.35
  A 0.53 0.53 0.0 0 1 84.11 207.80
  Q 85.08 234.61 99.66 256.99
  Q 99.98 257.49 99.61 257.94
  Q 99.05 258.62 97.89 259.03
  Z"
/>
<path fill="#b0afb0" d="
  M 278.48 210.25
  L 280.17 210.28
  C 279.70 228.60 275.61 241.47 266.04 257.15
  Q 266.04 257.45 265.68 256.78
  Q 265.47 256.39 265.17 256.72
  Q 264.67 257.28 264.70 258.37
  Q 263.86 258.09 263.45 257.55
  A 0.74 0.74 0.0 0 1 263.42 256.69
  C 273.38 241.65 276.33 227.89 278.48 210.25
  Z"
/>
<path fill="#514f4f" d="
  M 109.07 242.44
  L 113.67 258.55
  L 112.51 258.70
  C 105.77 252.34 101.35 242.97 98.32 234.25
  Q 97.99 233.31 98.76 233.94
  L 109.07 242.44
  Z"
/>
<path fill="#514f4f" d="
  M 251.55 259.04
  L 249.52 258.54
  L 253.72 243.12
  L 263.73 235.29
  A 0.38 0.38 0.0 0 1 264.32 235.71
  Q 259.95 248.61 251.55 259.04
  Z"
/>
<path fill="#a0a0a0" d="
  M 242.74 256.95
  Q 243.26 256.96 243.27 257.28
  Q 232.50 256.36 222.01 258.46
  C 205.21 261.83 187.06 274.30 189.44 293.93
  L 184.29 294.21
  C 181.14 282.85 187.87 271.31 197.14 265.12
  C 210.28 256.34 227.38 253.56 242.74 256.95
  Z"
/>
<path fill="#a0a0a0" d="
  M 179.66 294.19
  L 174.32 293.92
  C 176.35 275.30 159.71 262.55 143.19 258.87
  Q 138.93 257.91 130.63 256.63
  Q 147.37 254.98 162.13 262.90
  C 173.63 269.07 182.41 280.46 179.66 294.19
  Z"
/>
<path fill="#d4d4d4" d="
  M 266.04 257.15
  C 267.93 258.63 270.08 258.76 271.76 259.94
  C 281.27 266.65 289.00 277.25 288.79 289.26
  A 2.34 2.32 11.2 0 0 290.28 291.47
  C 293.94 292.87 297.30 294.24 297.11 299.05
  Q 296.86 305.68 290.24 307.43
  C 298.36 301.70 295.78 295.38 287.43 292.25
  Q 286.99 292.09 286.99 291.62
  C 286.96 276.44 277.37 265.28 264.70 258.37
  Q 264.67 257.28 265.17 256.72
  Q 265.47 256.39 265.68 256.78
  Q 266.04 257.45 266.04 257.15
  Z"
/>
<path fill="#dead24" d="
  M 130.63 256.63
  Q 138.93 257.91 143.19 258.87
  C 159.71 262.55 176.35 275.30 174.32 293.92
  L 173.16 296.42
  L 171.43 299.80
  C 170.92 300.21 170.51 300.48 169.79 300.49
  Q 127.87 301.01 85.92 300.41
  Q 85.39 300.40 85.14 299.94
  L 82.90 295.87
  C 78.18 278.21 93.05 266.86 107.12 260.52
  L 112.51 258.70
  L 113.67 258.55
  L 120.47 257.33
  L 130.63 256.63
  Z
  M 93.29 274.85
  Q 90.59 284.26 97.34 290.12
  Q 97.72 290.45 98.23 290.47
  C 112.88 291.16 130.02 292.79 144.38 290.06
  Q 144.89 289.97 145.21 289.57
  Q 150.79 282.71 148.02 274.92
  C 138.62 256.01 103.45 257.22 93.29 274.85
  Z"
/>
<path fill="#dead24" d="
  M 243.27 257.28
  L 249.52 258.54
  L 251.55 259.04
  L 255.93 260.45
  C 270.59 266.45 285.40 278.31 280.61 296.25
  Q 279.16 299.26 277.77 300.20
  Q 277.41 300.44 273.62 300.48
  Q 220.30 301.05 194.00 300.59
  Q 192.53 300.57 191.48 299.00
  L 190.34 296.48
  Q 190.24 294.87 189.44 293.93
  C 187.06 274.30 205.21 261.83 222.01 258.46
  Q 232.50 256.36 243.27 257.28
  Z
  M 229.37 263.51
  Q 219.89 266.08 215.11 274.78
  Q 211.97 283.45 218.64 290.07
  Q 218.99 290.42 219.49 290.45
  C 237.27 291.45 250.54 290.93 265.91 289.69
  A 1.32 1.31 18.0 0 0 266.76 289.26
  Q 272.49 282.78 269.82 275.15
  Q 265.15 266.59 256.95 263.97
  Q 243.08 258.90 229.37 263.51
  Z"
/>
<path fill="#d4d4d4" d="
  M 96.90 257.37
  Q 96.52 257.52 97.89 259.03
  C 85.30 266.71 77.24 275.60 76.71 291.06
  Q 76.69 291.59 76.19 291.80
  C 71.77 293.61 66.81 294.70 66.02 300.35
  C 64.05 303.33 67.17 303.82 67.28 306.03
  Q 67.29 306.30 67.15 306.48
  Q 66.83 306.91 66.54 306.46
  Q 66.07 305.75 65.53 306.13
  C 59.99 297.27 66.92 293.89 73.19 289.78
  A 1.30 1.30 0.0 0 0 73.73 289.01
  C 77.06 275.82 82.35 262.60 96.90 257.37
  Z"
/>
<path fill="#f0d897" d="
  M 148.02 274.92
  Q 122.90 275.60 98.38 274.64
  A 1.43 1.43 0.0 0 0 97.58 274.84
  Q 95.00 276.29 93.29 274.85
  C 103.45 257.22 138.62 256.01 148.02 274.92
  Z"
/>
<path fill="#ffffff" d="
  M 256.95 263.97
  Q 254.86 264.60 251.67 263.91
  Q 251.22 263.81 249.77 263.09
  Q 248.75 262.58 247.63 262.73
  C 243.97 263.20 240.25 262.98 236.56 263.01
  C 234.19 263.02 231.46 265.06 229.37 263.51
  Q 243.08 258.90 256.95 263.97
  Z"
/>
<path fill="#f0d897" d="
  M 256.95 263.97
  Q 265.15 266.59 269.82 275.15
  Q 267.07 275.07 264.48 274.86
  Q 261.58 274.63 259.14 274.74
  C 248.34 275.20 238.05 275.07 226.71 275.11
  Q 221.02 275.13 215.11 274.78
  Q 219.89 266.08 229.37 263.51
  C 231.46 265.06 234.19 263.02 236.56 263.01
  C 240.25 262.98 243.97 263.20 247.63 262.73
  Q 248.75 262.58 249.77 263.09
  Q 251.22 263.81 251.67 263.91
  Q 254.86 264.60 256.95 263.97
  Z"
/>
<path fill="#ebce78" d="
  M 215.11 274.78
  Q 221.02 275.13 226.71 275.11
  C 238.05 275.07 248.34 275.20 259.14 274.74
  Q 261.58 274.63 264.48 274.86
  Q 267.07 275.07 269.82 275.15
  Q 272.49 282.78 266.76 289.26
  A 1.32 1.31 18.0 0 1 265.91 289.69
  C 250.54 290.93 237.27 291.45 219.49 290.45
  Q 218.99 290.42 218.64 290.07
  Q 211.97 283.45 215.11 274.78
  Z"
/>
<path fill="#ebce78" d="
  M 148.02 274.92
  Q 150.79 282.71 145.21 289.57
  Q 144.89 289.97 144.38 290.06
  C 130.02 292.79 112.88 291.16 98.23 290.47
  Q 97.72 290.45 97.34 290.12
  Q 90.59 284.26 93.29 274.85
  Q 95.00 276.29 97.58 274.84
  A 1.43 1.43 0.0 0 1 98.38 274.64
  Q 122.90 275.60 148.02 274.92
  Z"
/>
<path fill="#514f4f" d="
  M 174.32 293.92
  L 179.66 294.19
  Q 181.77 294.70 184.29 294.21
  L 189.44 293.93
  Q 190.24 294.87 190.34 296.48
  L 173.16 296.42
  L 174.32 293.92
  Z"
/>
<path fill="#b0afb0" d="
  M 82.90 295.87
  L 85.14 299.94
  Q 85.39 300.40 85.92 300.41
  Q 127.87 301.01 169.79 300.49
  C 170.51 300.48 170.92 300.21 171.43 299.80
  Q 171.84 300.07 172.69 299.75
  C 177.85 297.82 186.08 298.17 191.48 299.00
  Q 192.53 300.57 194.00 300.59
  Q 220.30 301.05 273.62 300.48
  Q 277.41 300.44 277.77 300.20
  Q 279.16 299.26 280.61 296.25
  L 288.87 299.02
  A 1.51 1.51 0.0 0 1 289.06 301.80
  C 286.40 303.12 283.60 304.07 280.47 304.57
  Q 258.51 308.10 240.19 308.94
  C 195.12 311.00 149.43 311.31 104.42 307.74
  C 97.63 307.20 75.90 305.54 71.52 300.63
  A 0.67 0.67 0.0 0 1 71.63 299.64
  C 74.57 297.56 79.37 296.64 82.90 295.87
  Z"
/>
<path fill="#8f8e8d" d="
  M 173.16 296.42
  L 190.34 296.48
  L 191.48 299.00
  C 186.08 298.17 177.85 297.82 172.69 299.75
  Q 171.84 300.07 171.43 299.80
  L 173.16 296.42
  Z"
/>
<path fill="#a0a0a0" d="
  M 66.02 300.35
  C 67.78 309.82 85.80 311.06 94.54 312.15
  Q 94.52 312.34 94.50 312.54
  Q 86.21 312.08 77.94 311.57
  Q 70.50 311.12 65.53 306.13
  Q 66.07 305.75 66.54 306.46
  Q 66.83 306.91 67.15 306.48
  Q 67.29 306.30 67.28 306.03
  C 67.17 303.82 64.05 303.33 66.02 300.35
  Z"
/>
<path fill="#b0afb0" d="
  M 94.54 312.15
  L 101.04 312.81
  Q 97.57 313.41 94.50 312.54
  Q 94.52 312.34 94.54 312.15
  Z"
/>
</svg>
